solid OpenSCAD_Model
  facet normal 1 -0 0
    outer loop
      vertex 30 -6 2
      vertex 30 6 -2
      vertex 30 6 2
    endloop
  endfacet
  facet normal 1 0 0
    outer loop
      vertex 30 6 -2
      vertex 30 -6 2
      vertex 30 -6 -2
    endloop
  endfacet
  facet normal 0 0 1
    outer loop
      vertex 30 6 2
      vertex 12.7 0 2
      vertex 30 -6 2
    endloop
  endfacet
  facet normal 0 0 1
    outer loop
      vertex 30 6 2
      vertex 12.608 0.698811 2
      vertex 12.7 0 2
    endloop
  endfacet
  facet normal 0 0 1
    outer loop
      vertex 30 6 2
      vertex 12.3383 1.35 2
      vertex 12.608 0.698811 2
    endloop
  endfacet
  facet normal 0 0 1
    outer loop
      vertex 30 6 2
      vertex 11.9092 1.90919 2
      vertex 12.3383 1.35 2
    endloop
  endfacet
  facet normal 0 0 1
    outer loop
      vertex 30 6 2
      vertex 11.35 2.33827 2
      vertex 11.9092 1.90919 2
    endloop
  endfacet
  facet normal 0 0 1
    outer loop
      vertex 30 6 2
      vertex 10.6988 2.608 2
      vertex 11.35 2.33827 2
    endloop
  endfacet
  facet normal -0 0 1
    outer loop
      vertex 0 6 2
      vertex 10.6988 2.608 2
      vertex 30 6 2
    endloop
  endfacet
  facet normal 0 0 1
    outer loop
      vertex 10.6988 2.608 2
      vertex 0 6 2
      vertex 10 2.7 2
    endloop
  endfacet
  facet normal 0 0 1
    outer loop
      vertex 7.392 0.698811 2
      vertex 0 6 2
      vertex 7.3 0 2
    endloop
  endfacet
  facet normal 0 0 1
    outer loop
      vertex 7.66173 1.35 2
      vertex 0 6 2
      vertex 7.392 0.698811 2
    endloop
  endfacet
  facet normal 0 0 1
    outer loop
      vertex 8.09081 1.90919 2
      vertex 0 6 2
      vertex 7.66173 1.35 2
    endloop
  endfacet
  facet normal 0 0 1
    outer loop
      vertex 8.65 2.33827 2
      vertex 0 6 2
      vertex 8.09081 1.90919 2
    endloop
  endfacet
  facet normal 0 0 1
    outer loop
      vertex 9.30119 2.608 2
      vertex 0 6 2
      vertex 8.65 2.33827 2
    endloop
  endfacet
  facet normal 0 0 1
    outer loop
      vertex 10 2.7 2
      vertex 0 6 2
      vertex 9.30119 2.608 2
    endloop
  endfacet
  facet normal -0 0 1
    outer loop
      vertex 12.608 -0.698811 2
      vertex 30 -6 2
      vertex 12.7 0 2
    endloop
  endfacet
  facet normal -0 0 1
    outer loop
      vertex 12.3383 -1.35 2
      vertex 30 -6 2
      vertex 12.608 -0.698811 2
    endloop
  endfacet
  facet normal -0 0 1
    outer loop
      vertex 11.9092 -1.90919 2
      vertex 30 -6 2
      vertex 12.3383 -1.35 2
    endloop
  endfacet
  facet normal -0 0 1
    outer loop
      vertex 11.35 -2.33827 2
      vertex 30 -6 2
      vertex 11.9092 -1.90919 2
    endloop
  endfacet
  facet normal -0 0 1
    outer loop
      vertex 10.6988 -2.608 2
      vertex 30 -6 2
      vertex 11.35 -2.33827 2
    endloop
  endfacet
  facet normal 0 0 1
    outer loop
      vertex 0 -6 2
      vertex 10.6988 -2.608 2
      vertex 10 -2.7 2
    endloop
  endfacet
  facet normal 0 0 1
    outer loop
      vertex 0 -6 2
      vertex 10 -2.7 2
      vertex 9.30119 -2.608 2
    endloop
  endfacet
  facet normal 0 0 1
    outer loop
      vertex 0 -6 2
      vertex 7.3 0 2
      vertex 0 6 2
    endloop
  endfacet
  facet normal 0 0 1
    outer loop
      vertex 7.3 0 2
      vertex 0 -6 2
      vertex 7.392 -0.698811 2
    endloop
  endfacet
  facet normal 0 0 1
    outer loop
      vertex 7.392 -0.698811 2
      vertex 0 -6 2
      vertex 7.66173 -1.35 2
    endloop
  endfacet
  facet normal 0 0 1
    outer loop
      vertex 10.6988 -2.608 2
      vertex 0 -6 2
      vertex 30 -6 2
    endloop
  endfacet
  facet normal 0 0 1
    outer loop
      vertex 8.65 -2.33827 2
      vertex 0 -6 2
      vertex 9.30119 -2.608 2
    endloop
  endfacet
  facet normal 0 0 1
    outer loop
      vertex 8.09081 -1.90919 2
      vertex 0 -6 2
      vertex 8.65 -2.33827 2
    endloop
  endfacet
  facet normal 0 0 1
    outer loop
      vertex 7.66173 -1.35 2
      vertex 0 -6 2
      vertex 8.09081 -1.90919 2
    endloop
  endfacet
  facet normal 0 0 -1
    outer loop
      vertex 30 -6 -2
      vertex 12.7 0 -2
      vertex 30 6 -2
    endloop
  endfacet
  facet normal 0 0 -1
    outer loop
      vertex 30 -6 -2
      vertex 12.608 -0.698811 -2
      vertex 12.7 0 -2
    endloop
  endfacet
  facet normal 0 0 -1
    outer loop
      vertex 30 -6 -2
      vertex 12.3383 -1.35 -2
      vertex 12.608 -0.698811 -2
    endloop
  endfacet
  facet normal 0 0 -1
    outer loop
      vertex 30 -6 -2
      vertex 11.9092 -1.90919 -2
      vertex 12.3383 -1.35 -2
    endloop
  endfacet
  facet normal 0 0 -1
    outer loop
      vertex 30 -6 -2
      vertex 11.35 -2.33827 -2
      vertex 11.9092 -1.90919 -2
    endloop
  endfacet
  facet normal 0 0 -1
    outer loop
      vertex 30 -6 -2
      vertex 10.6988 -2.608 -2
      vertex 11.35 -2.33827 -2
    endloop
  endfacet
  facet normal 0 0 -1
    outer loop
      vertex 0 -6 -2
      vertex 10.6988 -2.608 -2
      vertex 30 -6 -2
    endloop
  endfacet
  facet normal 0 0 -1
    outer loop
      vertex 10.6988 -2.608 -2
      vertex 0 -6 -2
      vertex 10 -2.7 -2
    endloop
  endfacet
  facet normal -0 0 -1
    outer loop
      vertex 7.392 -0.698811 -2
      vertex 0 -6 -2
      vertex 7.3 0 -2
    endloop
  endfacet
  facet normal -0 0 -1
    outer loop
      vertex 7.66173 -1.35 -2
      vertex 0 -6 -2
      vertex 7.392 -0.698811 -2
    endloop
  endfacet
  facet normal -0 0 -1
    outer loop
      vertex 8.09081 -1.90919 -2
      vertex 0 -6 -2
      vertex 7.66173 -1.35 -2
    endloop
  endfacet
  facet normal -0 0 -1
    outer loop
      vertex 8.65 -2.33827 -2
      vertex 0 -6 -2
      vertex 8.09081 -1.90919 -2
    endloop
  endfacet
  facet normal -0 0 -1
    outer loop
      vertex 9.30119 -2.608 -2
      vertex 0 -6 -2
      vertex 8.65 -2.33827 -2
    endloop
  endfacet
  facet normal -0 0 -1
    outer loop
      vertex 10 -2.7 -2
      vertex 0 -6 -2
      vertex 9.30119 -2.608 -2
    endloop
  endfacet
  facet normal 0 0 -1
    outer loop
      vertex 12.608 0.698811 -2
      vertex 30 6 -2
      vertex 12.7 0 -2
    endloop
  endfacet
  facet normal 0 0 -1
    outer loop
      vertex 12.3383 1.35 -2
      vertex 30 6 -2
      vertex 12.608 0.698811 -2
    endloop
  endfacet
  facet normal 0 0 -1
    outer loop
      vertex 11.9092 1.90919 -2
      vertex 30 6 -2
      vertex 12.3383 1.35 -2
    endloop
  endfacet
  facet normal 0 0 -1
    outer loop
      vertex 11.35 2.33827 -2
      vertex 30 6 -2
      vertex 11.9092 1.90919 -2
    endloop
  endfacet
  facet normal 0 0 -1
    outer loop
      vertex 10.6988 2.608 -2
      vertex 30 6 -2
      vertex 11.35 2.33827 -2
    endloop
  endfacet
  facet normal 0 0 -1
    outer loop
      vertex 0 6 -2
      vertex 10.6988 2.608 -2
      vertex 10 2.7 -2
    endloop
  endfacet
  facet normal 0 0 -1
    outer loop
      vertex 0 6 -2
      vertex 10 2.7 -2
      vertex 9.30119 2.608 -2
    endloop
  endfacet
  facet normal 0 0 -1
    outer loop
      vertex 0 6 -2
      vertex 7.3 0 -2
      vertex 0 -6 -2
    endloop
  endfacet
  facet normal 0 0 -1
    outer loop
      vertex 7.3 0 -2
      vertex 0 6 -2
      vertex 7.392 0.698811 -2
    endloop
  endfacet
  facet normal 0 0 -1
    outer loop
      vertex 7.392 0.698811 -2
      vertex 0 6 -2
      vertex 7.66173 1.35 -2
    endloop
  endfacet
  facet normal 0 0 -1
    outer loop
      vertex 10.6988 2.608 -2
      vertex 0 6 -2
      vertex 30 6 -2
    endloop
  endfacet
  facet normal 0 0 -1
    outer loop
      vertex 8.65 2.33827 -2
      vertex 0 6 -2
      vertex 9.30119 2.608 -2
    endloop
  endfacet
  facet normal 0 0 -1
    outer loop
      vertex 8.09081 1.90919 -2
      vertex 0 6 -2
      vertex 8.65 2.33827 -2
    endloop
  endfacet
  facet normal 0 0 -1
    outer loop
      vertex 7.66173 1.35 -2
      vertex 0 6 -2
      vertex 8.09081 1.90919 -2
    endloop
  endfacet
  facet normal -1 0 0
    outer loop
      vertex 0 -6 -2
      vertex 0 6 2
      vertex 0 6 -2
    endloop
  endfacet
  facet normal -1 -0 0
    outer loop
      vertex 0 6 2
      vertex 0 -6 -2
      vertex 0 -6 2
    endloop
  endfacet
  facet normal 0 1 -0
    outer loop
      vertex 30 6 -2
      vertex 0 6 2
      vertex 30 6 2
    endloop
  endfacet
  facet normal 0 1 0
    outer loop
      vertex 0 6 2
      vertex 30 6 -2
      vertex 0 6 -2
    endloop
  endfacet
  facet normal 0 -1 0
    outer loop
      vertex 0 -6 -2
      vertex 30 -6 2
      vertex 0 -6 2
    endloop
  endfacet
  facet normal 0 -1 -0
    outer loop
      vertex 30 -6 2
      vertex 0 -6 -2
      vertex 30 -6 -2
    endloop
  endfacet
  facet normal 0.95821 0.126155 -0.256745
    outer loop
      vertex 7.23356 -0.741264 1.18632
      vertex 7.03125 -0.795474 0.404631
      vertex 6.92652 0 0.404631
    endloop
  endfacet
  facet normal -0.801886 -0.332133 -0.496655
    outer loop
      vertex 12.7664 0.741264 1.18632
      vertex 12.4379 1.10955 1.47042
      vertex 12.4803 1.43201 1.18632
    endloop
  endfacet
  facet normal -0.801875 -0.332082 -0.496708
    outer loop
      vertex 12.4379 1.10955 1.47042
      vertex 12.7664 0.741264 1.18632
      vertex 12.608 0.698811 1.47042
    endloop
  endfacet
  facet normal 0.95821 0.126152 -0.256748
    outer loop
      vertex 7.13597 0 1.18632
      vertex 7.23356 -0.741264 1.18632
      vertex 6.92652 0 0.404631
    endloop
  endfacet
  facet normal -0.892914 0.369836 0.256761
    outer loop
      vertex 12.6617 -1.53674 -0.404631
      vertex 12.7664 -0.741264 -1.18632
      vertex 12.4803 -1.43201 -1.18632
    endloop
  endfacet
  facet normal 0.892907 -0.369859 -0.256751
    outer loop
      vertex 7.33829 1.53674 0.404631
      vertex 7.51968 1.43201 1.18632
      vertex 7.23356 0.741264 1.18632
    endloop
  endfacet
  facet normal 0.126151 -0.95821 0.256748
    outer loop
      vertex 10 2.86403 -1.18632
      vertex 10 3.07348 -0.404631
      vertex 9.25873 2.76644 -1.18632
    endloop
  endfacet
  facet normal 0.113274 0.860445 -0.496793
    outer loop
      vertex 10 -2.7 1.47042
      vertex 10 -2.86403 1.18632
      vertex 9.74196 -2.66603 1.47042
    endloop
  endfacet
  facet normal -0.528297 -0.688546 0.496797
    outer loop
      vertex 11.9092 1.90919 -1.47042
      vertex 12.0252 2.02517 -1.18632
      vertex 11.7027 2.06763 -1.47042
    endloop
  endfacet
  facet normal -0.860474 -0.11338 -0.496719
    outer loop
      vertex 12.864 0 1.18632
      vertex 12.7 0 1.47042
      vertex 12.666 0.258035 1.47042
    endloop
  endfacet
  facet normal 0.766756 0.588356 -0.256752
    outer loop
      vertex 7.51968 -1.43201 1.18632
      vertex 7.97483 -2.02517 1.18632
      vertex 7.33829 -1.53674 0.404631
    endloop
  endfacet
  facet normal 0.991444 -0.130531 0
    outer loop
      vertex 6.92652 0 0.404631
      vertex 7.03125 0.795474 -0.404631
      vertex 7.03125 0.795474 0.404631
    endloop
  endfacet
  facet normal 0.991444 -0.130531 0
    outer loop
      vertex 7.03125 0.795474 -0.404631
      vertex 6.92652 0 0.404631
      vertex 6.92652 0 -0.404631
    endloop
  endfacet
  facet normal 0.369856 -0.89291 -0.256745
    outer loop
      vertex 9.20452 2.96875 0.404631
      vertex 9.25873 2.76644 1.18632
      vertex 8.46326 2.66171 0.404631
    endloop
  endfacet
  facet normal 0.860446 -0.113281 -0.49679
    outer loop
      vertex 7.33397 0.258035 1.47042
      vertex 7.23356 0.741264 1.18632
      vertex 7.392 0.698811 1.47042
    endloop
  endfacet
  facet normal 0.860446 -0.113281 -0.49679
    outer loop
      vertex 7.23356 0.741264 1.18632
      vertex 7.33397 0.258035 1.47042
      vertex 7.13597 0 1.18632
    endloop
  endfacet
  facet normal -0.958193 -0.126162 -0.256805
    outer loop
      vertex 13.0735 0 0.404631
      vertex 12.864 0 1.18632
      vertex 12.7664 0.741264 1.18632
    endloop
  endfacet
  facet normal -0.588316 0.766788 -0.25675
    outer loop
      vertex 12.0252 -2.02517 1.18632
      vertex 12.1733 -2.17328 0.404631
      vertex 11.5367 -2.66171 0.404631
    endloop
  endfacet
  facet normal -0.860507 -0.113231 -0.496696
    outer loop
      vertex 12.7664 0.741264 1.18632
      vertex 12.666 0.258035 1.47042
      vertex 12.608 0.698811 1.47042
    endloop
  endfacet
  facet normal -0.860449 -0.113293 -0.496781
    outer loop
      vertex 12.666 0.258035 1.47042
      vertex 12.7664 0.741264 1.18632
      vertex 12.864 0 1.18632
    endloop
  endfacet
  facet normal -0.332132 -0.801778 -0.49683
    outer loop
      vertex 10.7413 2.76644 1.18632
      vertex 11.1095 2.43787 1.47042
      vertex 10.6988 2.608 1.47042
    endloop
  endfacet
  facet normal -0.332134 -0.801779 -0.496828
    outer loop
      vertex 11.1095 2.43787 1.47042
      vertex 10.7413 2.76644 1.18632
      vertex 11.432 2.48032 1.18632
    endloop
  endfacet
  facet normal 0.688533 0.528338 0.496771
    outer loop
      vertex 7.97483 -2.02517 -1.18632
      vertex 8.09081 -1.90919 -1.47042
      vertex 7.93237 -1.70271 -1.47042
    endloop
  endfacet
  facet normal 0.13053 -0.991444 0
    outer loop
      vertex 9.20452 2.96875 -0.404631
      vertex 10 3.07348 0.404631
      vertex 9.20452 2.96875 0.404631
    endloop
  endfacet
  facet normal 0.13053 -0.991444 0
    outer loop
      vertex 10 3.07348 0.404631
      vertex 9.20452 2.96875 -0.404631
      vertex 10 3.07348 -0.404631
    endloop
  endfacet
  facet normal -0.801867 -0.332152 -0.496673
    outer loop
      vertex 12.3383 1.35 1.47042
      vertex 12.4803 1.43201 1.18632
      vertex 12.4379 1.10955 1.47042
    endloop
  endfacet
  facet normal -0.766779 -0.588329 0.256748
    outer loop
      vertex 12.6617 1.53674 -0.404631
      vertex 12.1733 2.17328 -0.404631
      vertex 12.0252 2.02517 -1.18632
    endloop
  endfacet
  facet normal 0.860446 0.113281 -0.49679
    outer loop
      vertex 7.23356 -0.741264 1.18632
      vertex 7.33397 -0.258035 1.47042
      vertex 7.392 -0.698811 1.47042
    endloop
  endfacet
  facet normal 0.860446 0.113281 -0.49679
    outer loop
      vertex 7.33397 -0.258035 1.47042
      vertex 7.23356 -0.741264 1.18632
      vertex 7.13597 0 1.18632
    endloop
  endfacet
  facet normal 0.892911 -0.369853 -0.256745
    outer loop
      vertex 7.33829 1.53674 0.404631
      vertex 7.23356 0.741264 1.18632
      vertex 7.03125 0.795474 0.404631
    endloop
  endfacet
  facet normal 0.95821 -0.126155 0.256745
    outer loop
      vertex 7.23356 0.741264 -1.18632
      vertex 7.03125 0.795474 -0.404631
      vertex 6.92652 0 -0.404631
    endloop
  endfacet
  facet normal -0.892863 0.369905 -0.256839
    outer loop
      vertex 12.7664 -0.741264 1.18632
      vertex 12.9688 -0.795474 0.404631
      vertex 12.6617 -1.53674 0.404631
    endloop
  endfacet
  facet normal -0.860474 -0.11338 0.496719
    outer loop
      vertex 12.7 0 -1.47042
      vertex 12.864 0 -1.18632
      vertex 12.666 0.258035 -1.47042
    endloop
  endfacet
  facet normal -0.369882 0.892901 0.256739
    outer loop
      vertex 10.7955 -2.96875 -0.404631
      vertex 11.5367 -2.66171 -0.404631
      vertex 10.7413 -2.76644 -1.18632
    endloop
  endfacet
  facet normal 0.688537 -0.528336 0.496768
    outer loop
      vertex 7.51968 1.43201 -1.18632
      vertex 7.93237 1.70271 -1.47042
      vertex 7.97483 2.02517 -1.18632
    endloop
  endfacet
  facet normal 0.688537 -0.528326 0.496778
    outer loop
      vertex 7.93237 1.70271 -1.47042
      vertex 7.51968 1.43201 -1.18632
      vertex 7.66173 1.35 -1.47042
    endloop
  endfacet
  facet normal -0.126146 -0.958211 0.256748
    outer loop
      vertex 10.7413 2.76644 -1.18632
      vertex 10 3.07348 -0.404631
      vertex 10 2.86403 -1.18632
    endloop
  endfacet
  facet normal -0.588334 -0.76678 0.256732
    outer loop
      vertex 12.0252 2.02517 -1.18632
      vertex 11.5367 2.66171 -0.404631
      vertex 11.432 2.48032 -1.18632
    endloop
  endfacet
  facet normal -0.991449 -0.130494 0
    outer loop
      vertex 13.0735 0 -0.404631
      vertex 12.9688 0.795474 0.404631
      vertex 12.9688 0.795474 -0.404631
    endloop
  endfacet
  facet normal -0.991449 -0.130494 0
    outer loop
      vertex 12.9688 0.795474 0.404631
      vertex 13.0735 0 -0.404631
      vertex 13.0735 0 0.404631
    endloop
  endfacet
  facet normal -0.892914 -0.369836 0.256761
    outer loop
      vertex 12.7664 0.741264 -1.18632
      vertex 12.6617 1.53674 -0.404631
      vertex 12.4803 1.43201 -1.18632
    endloop
  endfacet
  facet normal -0.801875 0.332082 -0.496708
    outer loop
      vertex 12.7664 -0.741264 1.18632
      vertex 12.4379 -1.10955 1.47042
      vertex 12.608 -0.698811 1.47042
    endloop
  endfacet
  facet normal -0.801886 0.332133 -0.496655
    outer loop
      vertex 12.4379 -1.10955 1.47042
      vertex 12.7664 -0.741264 1.18632
      vertex 12.4803 -1.43201 1.18632
    endloop
  endfacet
  facet normal 0.688537 0.528326 -0.496778
    outer loop
      vertex 7.93237 -1.70271 1.47042
      vertex 7.51968 -1.43201 1.18632
      vertex 7.66173 -1.35 1.47042
    endloop
  endfacet
  facet normal 0.688537 0.528336 -0.496768
    outer loop
      vertex 7.51968 -1.43201 1.18632
      vertex 7.93237 -1.70271 1.47042
      vertex 7.97483 -2.02517 1.18632
    endloop
  endfacet
  facet normal 0.892911 0.369853 -0.256745
    outer loop
      vertex 7.23356 -0.741264 1.18632
      vertex 7.33829 -1.53674 0.404631
      vertex 7.03125 -0.795474 0.404631
    endloop
  endfacet
  facet normal 0.892907 0.369859 -0.256751
    outer loop
      vertex 7.51968 -1.43201 1.18632
      vertex 7.33829 -1.53674 0.404631
      vertex 7.23356 -0.741264 1.18632
    endloop
  endfacet
  facet normal 0.766759 0.58835 -0.256758
    outer loop
      vertex 7.97483 -2.02517 1.18632
      vertex 7.82672 -2.17328 0.404631
      vertex 7.33829 -1.53674 0.404631
    endloop
  endfacet
  facet normal 0.766756 -0.588356 -0.256752
    outer loop
      vertex 7.97483 2.02517 1.18632
      vertex 7.51968 1.43201 1.18632
      vertex 7.33829 1.53674 0.404631
    endloop
  endfacet
  facet normal 0.991444 0.130531 0
    outer loop
      vertex 7.03125 -0.795474 0.404631
      vertex 6.92652 0 -0.404631
      vertex 6.92652 0 0.404631
    endloop
  endfacet
  facet normal 0.991444 0.130531 0
    outer loop
      vertex 6.92652 0 -0.404631
      vertex 7.03125 -0.795474 0.404631
      vertex 7.03125 -0.795474 -0.404631
    endloop
  endfacet
  facet normal 0.332112 0.801808 -0.496796
    outer loop
      vertex 9.25873 -2.76644 1.18632
      vertex 8.89045 -2.43787 1.47042
      vertex 9.30119 -2.608 1.47042
    endloop
  endfacet
  facet normal 0.332128 0.801811 -0.496779
    outer loop
      vertex 8.89045 -2.43787 1.47042
      vertex 9.25873 -2.76644 1.18632
      vertex 8.56799 -2.48032 1.18632
    endloop
  endfacet
  facet normal 0.860445 0.113277 0.496793
    outer loop
      vertex 7.33397 -0.258035 -1.47042
      vertex 7.3 0 -1.47042
      vertex 7.13597 0 -1.18632
    endloop
  endfacet
  facet normal -0.892863 0.369905 0.256839
    outer loop
      vertex 12.9688 -0.795474 -0.404631
      vertex 12.7664 -0.741264 -1.18632
      vertex 12.6617 -1.53674 -0.404631
    endloop
  endfacet
  facet normal -0.958193 0.126162 0.256805
    outer loop
      vertex 13.0735 0 -0.404631
      vertex 12.864 0 -1.18632
      vertex 12.7664 -0.741264 -1.18632
    endloop
  endfacet
  facet normal -0.113292 0.860443 -0.496792
    outer loop
      vertex 10 -2.7 1.47042
      vertex 10.258 -2.66603 1.47042
      vertex 10 -2.86403 1.18632
    endloop
  endfacet
  facet normal 0.58835 0.766759 0.256758
    outer loop
      vertex 8.46326 -2.66171 -0.404631
      vertex 7.97483 -2.02517 -1.18632
      vertex 7.82672 -2.17328 -0.404631
    endloop
  endfacet
  facet normal -0.892914 0.369836 -0.256761
    outer loop
      vertex 12.7664 -0.741264 1.18632
      vertex 12.6617 -1.53674 0.404631
      vertex 12.4803 -1.43201 1.18632
    endloop
  endfacet
  facet normal -0.958188 0.126116 -0.256846
    outer loop
      vertex 13.0735 0 0.404631
      vertex 12.9688 -0.795474 0.404631
      vertex 12.7664 -0.741264 1.18632
    endloop
  endfacet
  facet normal -0.793374 0.608735 0
    outer loop
      vertex 12.1733 -2.17328 -0.404631
      vertex 12.6617 -1.53674 0.404631
      vertex 12.6617 -1.53674 -0.404631
    endloop
  endfacet
  facet normal -0.793374 0.608735 0
    outer loop
      vertex 12.6617 -1.53674 0.404631
      vertex 12.1733 -2.17328 -0.404631
      vertex 12.1733 -2.17328 0.404631
    endloop
  endfacet
  facet normal -0.588316 0.766788 0.25675
    outer loop
      vertex 12.1733 -2.17328 -0.404631
      vertex 12.0252 -2.02517 -1.18632
      vertex 11.5367 -2.66171 -0.404631
    endloop
  endfacet
  facet normal -0.923854 0.382745 0
    outer loop
      vertex 12.6617 -1.53674 -0.404631
      vertex 12.9688 -0.795474 0.404631
      vertex 12.9688 -0.795474 -0.404631
    endloop
  endfacet
  facet normal -0.923854 0.382745 0
    outer loop
      vertex 12.9688 -0.795474 0.404631
      vertex 12.6617 -1.53674 -0.404631
      vertex 12.6617 -1.53674 0.404631
    endloop
  endfacet
  facet normal -0.113274 -0.860439 0.496804
    outer loop
      vertex 10.258 2.66603 -1.47042
      vertex 10.7413 2.76644 -1.18632
      vertex 10 2.86403 -1.18632
    endloop
  endfacet
  facet normal -0.113274 -0.860439 0.496804
    outer loop
      vertex 10.6988 2.608 -1.47042
      vertex 10.7413 2.76644 -1.18632
      vertex 10.258 2.66603 -1.47042
    endloop
  endfacet
  facet normal -0.958193 -0.126162 0.256805
    outer loop
      vertex 12.864 0 -1.18632
      vertex 13.0735 0 -0.404631
      vertex 12.7664 0.741264 -1.18632
    endloop
  endfacet
  facet normal -0.332134 -0.801779 0.496828
    outer loop
      vertex 10.7413 2.76644 -1.18632
      vertex 11.1095 2.43787 -1.47042
      vertex 11.432 2.48032 -1.18632
    endloop
  endfacet
  facet normal -0.332132 -0.801778 0.49683
    outer loop
      vertex 11.1095 2.43787 -1.47042
      vertex 10.7413 2.76644 -1.18632
      vertex 10.6988 2.608 -1.47042
    endloop
  endfacet
  facet normal -0.588316 -0.766788 -0.25675
    outer loop
      vertex 12.1733 2.17328 0.404631
      vertex 12.0252 2.02517 1.18632
      vertex 11.5367 2.66171 0.404631
    endloop
  endfacet
  facet normal -0.688584 -0.528243 -0.496802
    outer loop
      vertex 12.0252 2.02517 1.18632
      vertex 12.0676 1.70271 1.47042
      vertex 11.9092 1.90919 1.47042
    endloop
  endfacet
  facet normal -0.588334 -0.76678 -0.256732
    outer loop
      vertex 11.5367 2.66171 0.404631
      vertex 12.0252 2.02517 1.18632
      vertex 11.432 2.48032 1.18632
    endloop
  endfacet
  facet normal 0.113274 -0.860445 -0.496793
    outer loop
      vertex 10 2.86403 1.18632
      vertex 10 2.7 1.47042
      vertex 9.74196 2.66603 1.47042
    endloop
  endfacet
  facet normal 0.892911 0.369853 0.256745
    outer loop
      vertex 7.33829 -1.53674 -0.404631
      vertex 7.23356 -0.741264 -1.18632
      vertex 7.03125 -0.795474 -0.404631
    endloop
  endfacet
  facet normal 0.923881 -0.382681 0
    outer loop
      vertex 7.03125 0.795474 0.404631
      vertex 7.33829 1.53674 -0.404631
      vertex 7.33829 1.53674 0.404631
    endloop
  endfacet
  facet normal 0.923881 -0.382681 0
    outer loop
      vertex 7.33829 1.53674 -0.404631
      vertex 7.03125 0.795474 0.404631
      vertex 7.03125 0.795474 -0.404631
    endloop
  endfacet
  facet normal 0.11328 -0.860447 0.496789
    outer loop
      vertex 9.25873 2.76644 -1.18632
      vertex 9.74196 2.66603 -1.47042
      vertex 10 2.86403 -1.18632
    endloop
  endfacet
  facet normal 0.113283 -0.860444 0.496793
    outer loop
      vertex 9.25873 2.76644 -1.18632
      vertex 9.30119 2.608 -1.47042
      vertex 9.74196 2.66603 -1.47042
    endloop
  endfacet
  facet normal 0.860446 -0.113281 0.49679
    outer loop
      vertex 7.23356 0.741264 -1.18632
      vertex 7.33397 0.258035 -1.47042
      vertex 7.392 0.698811 -1.47042
    endloop
  endfacet
  facet normal 0.860446 -0.113281 0.49679
    outer loop
      vertex 7.33397 0.258035 -1.47042
      vertex 7.23356 0.741264 -1.18632
      vertex 7.13597 0 -1.18632
    endloop
  endfacet
  facet normal 0.860445 -0.113277 -0.496793
    outer loop
      vertex 7.33397 0.258035 1.47042
      vertex 7.3 0 1.47042
      vertex 7.13597 0 1.18632
    endloop
  endfacet
  facet normal 0.860445 0.113277 -0.496793
    outer loop
      vertex 7.3 0 1.47042
      vertex 7.33397 -0.258035 1.47042
      vertex 7.13597 0 1.18632
    endloop
  endfacet
  facet normal -0.126151 0.958211 0.256743
    outer loop
      vertex 10.7955 -2.96875 -0.404631
      vertex 10.7413 -2.76644 -1.18632
      vertex 10 -3.07348 -0.404631
    endloop
  endfacet
  facet normal 0.126154 0.95821 -0.256745
    outer loop
      vertex 9.25873 -2.76644 1.18632
      vertex 10 -3.07348 0.404631
      vertex 9.20452 -2.96875 0.404631
    endloop
  endfacet
  facet normal -0.113292 0.860443 0.496792
    outer loop
      vertex 10.258 -2.66603 -1.47042
      vertex 10 -2.7 -1.47042
      vertex 10 -2.86403 -1.18632
    endloop
  endfacet
  facet normal -0.126151 0.958211 -0.256743
    outer loop
      vertex 10.7413 -2.76644 1.18632
      vertex 10.7955 -2.96875 0.404631
      vertex 10 -3.07348 0.404631
    endloop
  endfacet
  facet normal -0.126146 0.958211 -0.256748
    outer loop
      vertex 10 -2.86403 1.18632
      vertex 10.7413 -2.76644 1.18632
      vertex 10 -3.07348 0.404631
    endloop
  endfacet
  facet normal -0.801867 0.332152 -0.496673
    outer loop
      vertex 12.4803 -1.43201 1.18632
      vertex 12.3383 -1.35 1.47042
      vertex 12.4379 -1.10955 1.47042
    endloop
  endfacet
  facet normal -0.958193 0.126162 -0.256805
    outer loop
      vertex 12.864 0 1.18632
      vertex 13.0735 0 0.404631
      vertex 12.7664 -0.741264 1.18632
    endloop
  endfacet
  facet normal -0.860449 0.113293 -0.496781
    outer loop
      vertex 12.7664 -0.741264 1.18632
      vertex 12.666 -0.258035 1.47042
      vertex 12.864 0 1.18632
    endloop
  endfacet
  facet normal -0.860507 0.113231 -0.496696
    outer loop
      vertex 12.666 -0.258035 1.47042
      vertex 12.7664 -0.741264 1.18632
      vertex 12.608 -0.698811 1.47042
    endloop
  endfacet
  facet normal -0.860474 0.11338 -0.496719
    outer loop
      vertex 12.7 0 1.47042
      vertex 12.864 0 1.18632
      vertex 12.666 -0.258035 1.47042
    endloop
  endfacet
  facet normal -0.369881 0.892901 0.256739
    outer loop
      vertex 11.5367 -2.66171 -0.404631
      vertex 11.432 -2.48032 -1.18632
      vertex 10.7413 -2.76644 -1.18632
    endloop
  endfacet
  facet normal -0.369881 -0.892901 0.256739
    outer loop
      vertex 11.432 2.48032 -1.18632
      vertex 11.5367 2.66171 -0.404631
      vertex 10.7413 2.76644 -1.18632
    endloop
  endfacet
  facet normal -0.126151 -0.958211 0.256743
    outer loop
      vertex 10.7413 2.76644 -1.18632
      vertex 10.7955 2.96875 -0.404631
      vertex 10 3.07348 -0.404631
    endloop
  endfacet
  facet normal -0.608722 -0.793384 0
    outer loop
      vertex 11.5367 2.66171 -0.404631
      vertex 12.1733 2.17328 0.404631
      vertex 11.5367 2.66171 0.404631
    endloop
  endfacet
  facet normal -0.608722 -0.793384 -0
    outer loop
      vertex 12.1733 2.17328 0.404631
      vertex 11.5367 2.66171 -0.404631
      vertex 12.1733 2.17328 -0.404631
    endloop
  endfacet
  facet normal 0.528336 -0.688537 0.496768
    outer loop
      vertex 8.29729 2.06763 -1.47042
      vertex 8.56799 2.48032 -1.18632
      vertex 7.97483 2.02517 -1.18632
    endloop
  endfacet
  facet normal 0.528326 -0.688537 0.496778
    outer loop
      vertex 8.56799 2.48032 -1.18632
      vertex 8.29729 2.06763 -1.47042
      vertex 8.65 2.33827 -1.47042
    endloop
  endfacet
  facet normal 0.588356 -0.766756 -0.256752
    outer loop
      vertex 8.46326 2.66171 0.404631
      vertex 8.56799 2.48032 1.18632
      vertex 7.97483 2.02517 1.18632
    endloop
  endfacet
  facet normal -0.991449 0.130494 0
    outer loop
      vertex 12.9688 -0.795474 -0.404631
      vertex 13.0735 0 0.404631
      vertex 13.0735 0 -0.404631
    endloop
  endfacet
  facet normal -0.991449 0.130494 0
    outer loop
      vertex 13.0735 0 0.404631
      vertex 12.9688 -0.795474 -0.404631
      vertex 12.9688 -0.795474 0.404631
    endloop
  endfacet
  facet normal -0.892863 -0.369905 0.256839
    outer loop
      vertex 12.7664 0.741264 -1.18632
      vertex 12.9688 0.795474 -0.404631
      vertex 12.6617 1.53674 -0.404631
    endloop
  endfacet
  facet normal -0.588316 -0.766788 0.25675
    outer loop
      vertex 12.0252 2.02517 -1.18632
      vertex 12.1733 2.17328 -0.404631
      vertex 11.5367 2.66171 -0.404631
    endloop
  endfacet
  facet normal -0.766779 -0.588329 -0.256748
    outer loop
      vertex 12.1733 2.17328 0.404631
      vertex 12.6617 1.53674 0.404631
      vertex 12.0252 2.02517 1.18632
    endloop
  endfacet
  facet normal -0.688531 -0.528273 -0.496843
    outer loop
      vertex 12.4803 1.43201 1.18632
      vertex 12.0676 1.70271 1.47042
      vertex 12.0252 2.02517 1.18632
    endloop
  endfacet
  facet normal -0.688524 -0.528433 -0.496682
    outer loop
      vertex 12.0676 1.70271 1.47042
      vertex 12.4803 1.43201 1.18632
      vertex 12.3383 1.35 1.47042
    endloop
  endfacet
  facet normal -0.923854 -0.382745 0
    outer loop
      vertex 12.9688 0.795474 -0.404631
      vertex 12.6617 1.53674 0.404631
      vertex 12.6617 1.53674 -0.404631
    endloop
  endfacet
  facet normal -0.923854 -0.382745 0
    outer loop
      vertex 12.6617 1.53674 0.404631
      vertex 12.9688 0.795474 -0.404631
      vertex 12.9688 0.795474 0.404631
    endloop
  endfacet
  facet normal -0.793374 -0.608735 0
    outer loop
      vertex 12.6617 1.53674 -0.404631
      vertex 12.1733 2.17328 0.404631
      vertex 12.1733 2.17328 -0.404631
    endloop
  endfacet
  facet normal -0.793374 -0.608735 0
    outer loop
      vertex 12.1733 2.17328 0.404631
      vertex 12.6617 1.53674 -0.404631
      vertex 12.6617 1.53674 0.404631
    endloop
  endfacet
  facet normal 0.892911 -0.369853 0.256745
    outer loop
      vertex 7.23356 0.741264 -1.18632
      vertex 7.33829 1.53674 -0.404631
      vertex 7.03125 0.795474 -0.404631
    endloop
  endfacet
  facet normal 0.688537 0.528326 0.496778
    outer loop
      vertex 7.51968 -1.43201 -1.18632
      vertex 7.93237 -1.70271 -1.47042
      vertex 7.66173 -1.35 -1.47042
    endloop
  endfacet
  facet normal 0.688537 0.528336 0.496768
    outer loop
      vertex 7.93237 -1.70271 -1.47042
      vertex 7.51968 -1.43201 -1.18632
      vertex 7.97483 -2.02517 -1.18632
    endloop
  endfacet
  facet normal 0.860446 0.113281 0.49679
    outer loop
      vertex 7.23356 -0.741264 -1.18632
      vertex 7.33397 -0.258035 -1.47042
      vertex 7.13597 0 -1.18632
    endloop
  endfacet
  facet normal 0.860446 0.113281 0.49679
    outer loop
      vertex 7.33397 -0.258035 -1.47042
      vertex 7.23356 -0.741264 -1.18632
      vertex 7.392 -0.698811 -1.47042
    endloop
  endfacet
  facet normal 0.369862 0.892906 0.256751
    outer loop
      vertex 9.25873 -2.76644 -1.18632
      vertex 8.56799 -2.48032 -1.18632
      vertex 8.46326 -2.66171 -0.404631
    endloop
  endfacet
  facet normal 0.528336 -0.688537 -0.496768
    outer loop
      vertex 8.56799 2.48032 1.18632
      vertex 8.29729 2.06763 1.47042
      vertex 7.97483 2.02517 1.18632
    endloop
  endfacet
  facet normal 0.528326 -0.688537 -0.496778
    outer loop
      vertex 8.29729 2.06763 1.47042
      vertex 8.56799 2.48032 1.18632
      vertex 8.65 2.33827 1.47042
    endloop
  endfacet
  facet normal -0.369881 -0.892901 -0.256739
    outer loop
      vertex 11.5367 2.66171 0.404631
      vertex 11.432 2.48032 1.18632
      vertex 10.7413 2.76644 1.18632
    endloop
  endfacet
  facet normal 0.95821 0.126152 0.256748
    outer loop
      vertex 7.23356 -0.741264 -1.18632
      vertex 7.13597 0 -1.18632
      vertex 6.92652 0 -0.404631
    endloop
  endfacet
  facet normal 0.793356 0.608758 0
    outer loop
      vertex 7.82672 -2.17328 0.404631
      vertex 7.33829 -1.53674 -0.404631
      vertex 7.33829 -1.53674 0.404631
    endloop
  endfacet
  facet normal 0.793356 0.608758 0
    outer loop
      vertex 7.33829 -1.53674 -0.404631
      vertex 7.82672 -2.17328 0.404631
      vertex 7.82672 -2.17328 -0.404631
    endloop
  endfacet
  facet normal 0.801813 -0.332126 -0.496777
    outer loop
      vertex 7.56213 1.10955 1.47042
      vertex 7.23356 0.741264 1.18632
      vertex 7.51968 1.43201 1.18632
    endloop
  endfacet
  facet normal 0.801811 -0.332114 -0.49679
    outer loop
      vertex 7.23356 0.741264 1.18632
      vertex 7.56213 1.10955 1.47042
      vertex 7.392 0.698811 1.47042
    endloop
  endfacet
  facet normal 0.369856 -0.89291 0.256745
    outer loop
      vertex 9.25873 2.76644 -1.18632
      vertex 9.20452 2.96875 -0.404631
      vertex 8.46326 2.66171 -0.404631
    endloop
  endfacet
  facet normal -0.126146 -0.958211 -0.256748
    outer loop
      vertex 10 3.07348 0.404631
      vertex 10.7413 2.76644 1.18632
      vertex 10 2.86403 1.18632
    endloop
  endfacet
  facet normal -0.688524 0.528433 0.496682
    outer loop
      vertex 12.0676 -1.70271 -1.47042
      vertex 12.4803 -1.43201 -1.18632
      vertex 12.3383 -1.35 -1.47042
    endloop
  endfacet
  facet normal -0.688531 0.528273 0.496843
    outer loop
      vertex 12.4803 -1.43201 -1.18632
      vertex 12.0676 -1.70271 -1.47042
      vertex 12.0252 -2.02517 -1.18632
    endloop
  endfacet
  facet normal -0.332134 0.801779 0.496828
    outer loop
      vertex 11.1095 -2.43787 -1.47042
      vertex 10.7413 -2.76644 -1.18632
      vertex 11.432 -2.48032 -1.18632
    endloop
  endfacet
  facet normal -0.332132 0.801778 0.49683
    outer loop
      vertex 10.7413 -2.76644 -1.18632
      vertex 11.1095 -2.43787 -1.47042
      vertex 10.6988 -2.608 -1.47042
    endloop
  endfacet
  facet normal -0.369882 0.892901 -0.256739
    outer loop
      vertex 11.5367 -2.66171 0.404631
      vertex 10.7955 -2.96875 0.404631
      vertex 10.7413 -2.76644 1.18632
    endloop
  endfacet
  facet normal 0.126151 0.95821 -0.256748
    outer loop
      vertex 10 -2.86403 1.18632
      vertex 10 -3.07348 0.404631
      vertex 9.25873 -2.76644 1.18632
    endloop
  endfacet
  facet normal 0.382683 0.92388 -0
    outer loop
      vertex 9.20452 -2.96875 -0.404631
      vertex 8.46326 -2.66171 0.404631
      vertex 9.20452 -2.96875 0.404631
    endloop
  endfacet
  facet normal 0.382683 0.92388 0
    outer loop
      vertex 8.46326 -2.66171 0.404631
      vertex 9.20452 -2.96875 -0.404631
      vertex 8.46326 -2.66171 -0.404631
    endloop
  endfacet
  facet normal 0.369856 0.89291 0.256745
    outer loop
      vertex 9.20452 -2.96875 -0.404631
      vertex 9.25873 -2.76644 -1.18632
      vertex 8.46326 -2.66171 -0.404631
    endloop
  endfacet
  facet normal 0.126154 0.95821 0.256745
    outer loop
      vertex 10 -3.07348 -0.404631
      vertex 9.25873 -2.76644 -1.18632
      vertex 9.20452 -2.96875 -0.404631
    endloop
  endfacet
  facet normal 0.332128 0.801811 0.496779
    outer loop
      vertex 9.25873 -2.76644 -1.18632
      vertex 8.89045 -2.43787 -1.47042
      vertex 8.56799 -2.48032 -1.18632
    endloop
  endfacet
  facet normal 0.332112 0.801808 0.496796
    outer loop
      vertex 8.89045 -2.43787 -1.47042
      vertex 9.25873 -2.76644 -1.18632
      vertex 9.30119 -2.608 -1.47042
    endloop
  endfacet
  facet normal 0.126151 0.95821 0.256748
    outer loop
      vertex 10 -3.07348 -0.404631
      vertex 10 -2.86403 -1.18632
      vertex 9.25873 -2.76644 -1.18632
    endloop
  endfacet
  facet normal -0.860474 0.11338 0.496719
    outer loop
      vertex 12.864 0 -1.18632
      vertex 12.7 0 -1.47042
      vertex 12.666 -0.258035 -1.47042
    endloop
  endfacet
  facet normal -0.369881 0.892901 -0.256739
    outer loop
      vertex 11.432 -2.48032 1.18632
      vertex 11.5367 -2.66171 0.404631
      vertex 10.7413 -2.76644 1.18632
    endloop
  endfacet
  facet normal -0.113274 0.860439 -0.496804
    outer loop
      vertex 10.7413 -2.76644 1.18632
      vertex 10.258 -2.66603 1.47042
      vertex 10.6988 -2.608 1.47042
    endloop
  endfacet
  facet normal -0.113274 0.860439 -0.496804
    outer loop
      vertex 10.258 -2.66603 1.47042
      vertex 10.7413 -2.76644 1.18632
      vertex 10 -2.86403 1.18632
    endloop
  endfacet
  facet normal -0.588334 0.76678 -0.256732
    outer loop
      vertex 12.0252 -2.02517 1.18632
      vertex 11.5367 -2.66171 0.404631
      vertex 11.432 -2.48032 1.18632
    endloop
  endfacet
  facet normal -0.766779 0.588329 -0.256748
    outer loop
      vertex 12.6617 -1.53674 0.404631
      vertex 12.1733 -2.17328 0.404631
      vertex 12.0252 -2.02517 1.18632
    endloop
  endfacet
  facet normal -0.766785 0.588314 -0.256763
    outer loop
      vertex 12.4803 -1.43201 1.18632
      vertex 12.6617 -1.53674 0.404631
      vertex 12.0252 -2.02517 1.18632
    endloop
  endfacet
  facet normal -0.38271 0.923869 0
    outer loop
      vertex 11.5367 -2.66171 -0.404631
      vertex 10.7955 -2.96875 0.404631
      vertex 11.5367 -2.66171 0.404631
    endloop
  endfacet
  facet normal -0.38271 0.923869 0
    outer loop
      vertex 10.7955 -2.96875 0.404631
      vertex 11.5367 -2.66171 -0.404631
      vertex 10.7955 -2.96875 -0.404631
    endloop
  endfacet
  facet normal 0.113274 -0.860445 0.496793
    outer loop
      vertex 10 2.7 -1.47042
      vertex 10 2.86403 -1.18632
      vertex 9.74196 2.66603 -1.47042
    endloop
  endfacet
  facet normal -0.113292 -0.860443 0.496792
    outer loop
      vertex 10.258 2.66603 -1.47042
      vertex 10 2.86403 -1.18632
      vertex 10 2.7 -1.47042
    endloop
  endfacet
  facet normal -0.588334 0.76678 0.256732
    outer loop
      vertex 11.5367 -2.66171 -0.404631
      vertex 12.0252 -2.02517 -1.18632
      vertex 11.432 -2.48032 -1.18632
    endloop
  endfacet
  facet normal -0.958188 0.126116 0.256846
    outer loop
      vertex 12.9688 -0.795474 -0.404631
      vertex 13.0735 0 -0.404631
      vertex 12.7664 -0.741264 -1.18632
    endloop
  endfacet
  facet normal -0.766785 -0.588314 0.256763
    outer loop
      vertex 12.4803 1.43201 -1.18632
      vertex 12.6617 1.53674 -0.404631
      vertex 12.0252 2.02517 -1.18632
    endloop
  endfacet
  facet normal -0.860507 -0.113231 0.496696
    outer loop
      vertex 12.666 0.258035 -1.47042
      vertex 12.7664 0.741264 -1.18632
      vertex 12.608 0.698811 -1.47042
    endloop
  endfacet
  facet normal -0.860449 -0.113293 0.496781
    outer loop
      vertex 12.7664 0.741264 -1.18632
      vertex 12.666 0.258035 -1.47042
      vertex 12.864 0 -1.18632
    endloop
  endfacet
  facet normal -0.958188 -0.126116 0.256846
    outer loop
      vertex 13.0735 0 -0.404631
      vertex 12.9688 0.795474 -0.404631
      vertex 12.7664 0.741264 -1.18632
    endloop
  endfacet
  facet normal -0.892863 -0.369905 -0.256839
    outer loop
      vertex 12.9688 0.795474 0.404631
      vertex 12.7664 0.741264 1.18632
      vertex 12.6617 1.53674 0.404631
    endloop
  endfacet
  facet normal -0.958188 -0.126116 -0.256846
    outer loop
      vertex 12.9688 0.795474 0.404631
      vertex 13.0735 0 0.404631
      vertex 12.7664 0.741264 1.18632
    endloop
  endfacet
  facet normal -0.892914 -0.369836 -0.256761
    outer loop
      vertex 12.6617 1.53674 0.404631
      vertex 12.7664 0.741264 1.18632
      vertex 12.4803 1.43201 1.18632
    endloop
  endfacet
  facet normal -0.766785 -0.588314 -0.256763
    outer loop
      vertex 12.6617 1.53674 0.404631
      vertex 12.4803 1.43201 1.18632
      vertex 12.0252 2.02517 1.18632
    endloop
  endfacet
  facet normal -0.688584 -0.528243 0.496802
    outer loop
      vertex 12.0676 1.70271 -1.47042
      vertex 12.0252 2.02517 -1.18632
      vertex 11.9092 1.90919 -1.47042
    endloop
  endfacet
  facet normal -0.126151 -0.958211 -0.256743
    outer loop
      vertex 10.7955 2.96875 0.404631
      vertex 10.7413 2.76644 1.18632
      vertex 10 3.07348 0.404631
    endloop
  endfacet
  facet normal -0.369882 -0.892901 -0.256739
    outer loop
      vertex 10.7955 2.96875 0.404631
      vertex 11.5367 2.66171 0.404631
      vertex 10.7413 2.76644 1.18632
    endloop
  endfacet
  facet normal 0.766756 -0.588356 0.256752
    outer loop
      vertex 7.51968 1.43201 -1.18632
      vertex 7.97483 2.02517 -1.18632
      vertex 7.33829 1.53674 -0.404631
    endloop
  endfacet
  facet normal 0.892907 -0.369859 0.256751
    outer loop
      vertex 7.51968 1.43201 -1.18632
      vertex 7.33829 1.53674 -0.404631
      vertex 7.23356 0.741264 -1.18632
    endloop
  endfacet
  facet normal 0.95821 -0.126152 0.256748
    outer loop
      vertex 7.13597 0 -1.18632
      vertex 7.23356 0.741264 -1.18632
      vertex 6.92652 0 -0.404631
    endloop
  endfacet
  facet normal 0.766759 0.58835 0.256758
    outer loop
      vertex 7.82672 -2.17328 -0.404631
      vertex 7.97483 -2.02517 -1.18632
      vertex 7.33829 -1.53674 -0.404631
    endloop
  endfacet
  facet normal 0.95821 0.126155 0.256745
    outer loop
      vertex 7.03125 -0.795474 -0.404631
      vertex 7.23356 -0.741264 -1.18632
      vertex 6.92652 0 -0.404631
    endloop
  endfacet
  facet normal 0.801811 0.332129 -0.49678
    outer loop
      vertex 7.66173 -1.35 1.47042
      vertex 7.51968 -1.43201 1.18632
      vertex 7.56213 -1.10955 1.47042
    endloop
  endfacet
  facet normal 0.801811 0.332114 -0.49679
    outer loop
      vertex 7.56213 -1.10955 1.47042
      vertex 7.23356 -0.741264 1.18632
      vertex 7.392 -0.698811 1.47042
    endloop
  endfacet
  facet normal 0.801813 0.332126 -0.496777
    outer loop
      vertex 7.23356 -0.741264 1.18632
      vertex 7.56213 -1.10955 1.47042
      vertex 7.51968 -1.43201 1.18632
    endloop
  endfacet
  facet normal 0.113283 -0.860444 -0.496793
    outer loop
      vertex 9.25873 2.76644 1.18632
      vertex 9.74196 2.66603 1.47042
      vertex 9.30119 2.608 1.47042
    endloop
  endfacet
  facet normal 0.11328 -0.860447 -0.496789
    outer loop
      vertex 9.74196 2.66603 1.47042
      vertex 9.25873 2.76644 1.18632
      vertex 10 2.86403 1.18632
    endloop
  endfacet
  facet normal 0.766759 -0.58835 0.256758
    outer loop
      vertex 7.97483 2.02517 -1.18632
      vertex 7.82672 2.17328 -0.404631
      vertex 7.33829 1.53674 -0.404631
    endloop
  endfacet
  facet normal 0.860445 -0.113277 0.496793
    outer loop
      vertex 7.3 0 -1.47042
      vertex 7.33397 0.258035 -1.47042
      vertex 7.13597 0 -1.18632
    endloop
  endfacet
  facet normal 0.95821 -0.126155 -0.256745
    outer loop
      vertex 7.03125 0.795474 0.404631
      vertex 7.23356 0.741264 1.18632
      vertex 6.92652 0 0.404631
    endloop
  endfacet
  facet normal 0.95821 -0.126152 -0.256748
    outer loop
      vertex 7.23356 0.741264 1.18632
      vertex 7.13597 0 1.18632
      vertex 6.92652 0 0.404631
    endloop
  endfacet
  facet normal 0.126154 -0.95821 0.256745
    outer loop
      vertex 9.25873 2.76644 -1.18632
      vertex 10 3.07348 -0.404631
      vertex 9.20452 2.96875 -0.404631
    endloop
  endfacet
  facet normal 0.688533 -0.528338 -0.496771
    outer loop
      vertex 7.97483 2.02517 1.18632
      vertex 8.09081 1.90919 1.47042
      vertex 7.93237 1.70271 1.47042
    endloop
  endfacet
  facet normal -0.528297 0.688546 0.496797
    outer loop
      vertex 12.0252 -2.02517 -1.18632
      vertex 11.9092 -1.90919 -1.47042
      vertex 11.7027 -2.06763 -1.47042
    endloop
  endfacet
  facet normal -0.332073 0.801842 0.496767
    outer loop
      vertex 11.432 -2.48032 -1.18632
      vertex 11.35 -2.33827 -1.47042
      vertex 11.1095 -2.43787 -1.47042
    endloop
  endfacet
  facet normal 0.588356 0.766756 -0.256752
    outer loop
      vertex 8.56799 -2.48032 1.18632
      vertex 8.46326 -2.66171 0.404631
      vertex 7.97483 -2.02517 1.18632
    endloop
  endfacet
  facet normal 0.58835 0.766759 -0.256758
    outer loop
      vertex 7.97483 -2.02517 1.18632
      vertex 8.46326 -2.66171 0.404631
      vertex 7.82672 -2.17328 0.404631
    endloop
  endfacet
  facet normal -0.130527 0.991445 0
    outer loop
      vertex 10.7955 -2.96875 -0.404631
      vertex 10 -3.07348 0.404631
      vertex 10.7955 -2.96875 0.404631
    endloop
  endfacet
  facet normal -0.130527 0.991445 0
    outer loop
      vertex 10 -3.07348 0.404631
      vertex 10.7955 -2.96875 -0.404631
      vertex 10 -3.07348 -0.404631
    endloop
  endfacet
  facet normal 0.11328 0.860447 -0.496789
    outer loop
      vertex 9.25873 -2.76644 1.18632
      vertex 9.74196 -2.66603 1.47042
      vertex 10 -2.86403 1.18632
    endloop
  endfacet
  facet normal 0.113283 0.860444 -0.496793
    outer loop
      vertex 9.74196 -2.66603 1.47042
      vertex 9.25873 -2.76644 1.18632
      vertex 9.30119 -2.608 1.47042
    endloop
  endfacet
  facet normal 0.11328 0.860447 0.496789
    outer loop
      vertex 9.74196 -2.66603 -1.47042
      vertex 9.25873 -2.76644 -1.18632
      vertex 10 -2.86403 -1.18632
    endloop
  endfacet
  facet normal 0.113283 0.860444 0.496793
    outer loop
      vertex 9.30119 -2.608 -1.47042
      vertex 9.25873 -2.76644 -1.18632
      vertex 9.74196 -2.66603 -1.47042
    endloop
  endfacet
  facet normal 0.588356 0.766756 0.256752
    outer loop
      vertex 8.46326 -2.66171 -0.404631
      vertex 8.56799 -2.48032 -1.18632
      vertex 7.97483 -2.02517 -1.18632
    endloop
  endfacet
  facet normal 0.332129 0.801811 0.49678
    outer loop
      vertex 8.56799 -2.48032 -1.18632
      vertex 8.89045 -2.43787 -1.47042
      vertex 8.65 -2.33827 -1.47042
    endloop
  endfacet
  facet normal -0.332134 0.801779 -0.496828
    outer loop
      vertex 10.7413 -2.76644 1.18632
      vertex 11.1095 -2.43787 1.47042
      vertex 11.432 -2.48032 1.18632
    endloop
  endfacet
  facet normal -0.332132 0.801778 -0.49683
    outer loop
      vertex 11.1095 -2.43787 1.47042
      vertex 10.7413 -2.76644 1.18632
      vertex 10.6988 -2.608 1.47042
    endloop
  endfacet
  facet normal -0.528297 0.688546 -0.496797
    outer loop
      vertex 11.9092 -1.90919 1.47042
      vertex 12.0252 -2.02517 1.18632
      vertex 11.7027 -2.06763 1.47042
    endloop
  endfacet
  facet normal -0.688524 0.528433 -0.496682
    outer loop
      vertex 12.4803 -1.43201 1.18632
      vertex 12.0676 -1.70271 1.47042
      vertex 12.3383 -1.35 1.47042
    endloop
  endfacet
  facet normal -0.688531 0.528273 -0.496843
    outer loop
      vertex 12.0676 -1.70271 1.47042
      vertex 12.4803 -1.43201 1.18632
      vertex 12.0252 -2.02517 1.18632
    endloop
  endfacet
  facet normal -0.688584 0.528243 -0.496802
    outer loop
      vertex 12.0676 -1.70271 1.47042
      vertex 12.0252 -2.02517 1.18632
      vertex 11.9092 -1.90919 1.47042
    endloop
  endfacet
  facet normal -0.528297 -0.688546 -0.496797
    outer loop
      vertex 12.0252 2.02517 1.18632
      vertex 11.9092 1.90919 1.47042
      vertex 11.7027 2.06763 1.47042
    endloop
  endfacet
  facet normal -0.801867 -0.332152 0.496673
    outer loop
      vertex 12.4803 1.43201 -1.18632
      vertex 12.3383 1.35 -1.47042
      vertex 12.4379 1.10955 -1.47042
    endloop
  endfacet
  facet normal -0.528301 -0.688538 0.496803
    outer loop
      vertex 11.432 2.48032 -1.18632
      vertex 11.7027 2.06763 -1.47042
      vertex 12.0252 2.02517 -1.18632
    endloop
  endfacet
  facet normal -0.52834 -0.688537 0.496764
    outer loop
      vertex 11.7027 2.06763 -1.47042
      vertex 11.432 2.48032 -1.18632
      vertex 11.35 2.33827 -1.47042
    endloop
  endfacet
  facet normal -0.332073 -0.801842 0.496767
    outer loop
      vertex 11.432 2.48032 -1.18632
      vertex 11.1095 2.43787 -1.47042
      vertex 11.35 2.33827 -1.47042
    endloop
  endfacet
  facet normal -0.801886 -0.332133 0.496655
    outer loop
      vertex 12.4379 1.10955 -1.47042
      vertex 12.7664 0.741264 -1.18632
      vertex 12.4803 1.43201 -1.18632
    endloop
  endfacet
  facet normal -0.801875 -0.332082 0.496708
    outer loop
      vertex 12.7664 0.741264 -1.18632
      vertex 12.4379 1.10955 -1.47042
      vertex 12.608 0.698811 -1.47042
    endloop
  endfacet
  facet normal -0.688531 -0.528273 0.496843
    outer loop
      vertex 12.0676 1.70271 -1.47042
      vertex 12.4803 1.43201 -1.18632
      vertex 12.0252 2.02517 -1.18632
    endloop
  endfacet
  facet normal -0.688524 -0.528433 0.496682
    outer loop
      vertex 12.4803 1.43201 -1.18632
      vertex 12.0676 1.70271 -1.47042
      vertex 12.3383 1.35 -1.47042
    endloop
  endfacet
  facet normal -0.369882 -0.892901 0.256739
    outer loop
      vertex 11.5367 2.66171 -0.404631
      vertex 10.7955 2.96875 -0.404631
      vertex 10.7413 2.76644 -1.18632
    endloop
  endfacet
  facet normal -0.130527 -0.991445 0
    outer loop
      vertex 10 3.07348 -0.404631
      vertex 10.7955 2.96875 0.404631
      vertex 10 3.07348 0.404631
    endloop
  endfacet
  facet normal -0.130527 -0.991445 -0
    outer loop
      vertex 10.7955 2.96875 0.404631
      vertex 10 3.07348 -0.404631
      vertex 10.7955 2.96875 -0.404631
    endloop
  endfacet
  facet normal 0.369862 -0.892906 0.256751
    outer loop
      vertex 8.56799 2.48032 -1.18632
      vertex 9.25873 2.76644 -1.18632
      vertex 8.46326 2.66171 -0.404631
    endloop
  endfacet
  facet normal 0.588356 -0.766756 0.256752
    outer loop
      vertex 8.56799 2.48032 -1.18632
      vertex 8.46326 2.66171 -0.404631
      vertex 7.97483 2.02517 -1.18632
    endloop
  endfacet
  facet normal 0.382683 -0.92388 0
    outer loop
      vertex 8.46326 2.66171 -0.404631
      vertex 9.20452 2.96875 0.404631
      vertex 8.46326 2.66171 0.404631
    endloop
  endfacet
  facet normal 0.382683 -0.92388 0
    outer loop
      vertex 9.20452 2.96875 0.404631
      vertex 8.46326 2.66171 -0.404631
      vertex 9.20452 2.96875 -0.404631
    endloop
  endfacet
  facet normal 0.801813 -0.332126 0.496777
    outer loop
      vertex 7.23356 0.741264 -1.18632
      vertex 7.56213 1.10955 -1.47042
      vertex 7.51968 1.43201 -1.18632
    endloop
  endfacet
  facet normal 0.801811 -0.332114 0.49679
    outer loop
      vertex 7.56213 1.10955 -1.47042
      vertex 7.23356 0.741264 -1.18632
      vertex 7.392 0.698811 -1.47042
    endloop
  endfacet
  facet normal 0.801811 -0.332129 0.49678
    outer loop
      vertex 7.66173 1.35 -1.47042
      vertex 7.51968 1.43201 -1.18632
      vertex 7.56213 1.10955 -1.47042
    endloop
  endfacet
  facet normal 0.923881 0.382681 0
    outer loop
      vertex 7.33829 -1.53674 0.404631
      vertex 7.03125 -0.795474 -0.404631
      vertex 7.03125 -0.795474 0.404631
    endloop
  endfacet
  facet normal 0.923881 0.382681 0
    outer loop
      vertex 7.03125 -0.795474 -0.404631
      vertex 7.33829 -1.53674 0.404631
      vertex 7.33829 -1.53674 -0.404631
    endloop
  endfacet
  facet normal 0.766756 0.588356 0.256752
    outer loop
      vertex 7.97483 -2.02517 -1.18632
      vertex 7.51968 -1.43201 -1.18632
      vertex 7.33829 -1.53674 -0.404631
    endloop
  endfacet
  facet normal 0.892907 0.369859 0.256751
    outer loop
      vertex 7.33829 -1.53674 -0.404631
      vertex 7.51968 -1.43201 -1.18632
      vertex 7.23356 -0.741264 -1.18632
    endloop
  endfacet
  facet normal 0.608758 0.793356 -0
    outer loop
      vertex 8.46326 -2.66171 -0.404631
      vertex 7.82672 -2.17328 0.404631
      vertex 8.46326 -2.66171 0.404631
    endloop
  endfacet
  facet normal 0.608758 0.793356 0
    outer loop
      vertex 7.82672 -2.17328 0.404631
      vertex 8.46326 -2.66171 -0.404631
      vertex 7.82672 -2.17328 -0.404631
    endloop
  endfacet
  facet normal 0.332128 -0.801811 0.496779
    outer loop
      vertex 8.89045 2.43787 -1.47042
      vertex 9.25873 2.76644 -1.18632
      vertex 8.56799 2.48032 -1.18632
    endloop
  endfacet
  facet normal 0.332112 -0.801808 0.496796
    outer loop
      vertex 9.25873 2.76644 -1.18632
      vertex 8.89045 2.43787 -1.47042
      vertex 9.30119 2.608 -1.47042
    endloop
  endfacet
  facet normal 0.332129 -0.801811 0.49678
    outer loop
      vertex 8.56799 2.48032 -1.18632
      vertex 8.65 2.33827 -1.47042
      vertex 8.89045 2.43787 -1.47042
    endloop
  endfacet
  facet normal 0.801811 -0.332129 -0.49678
    outer loop
      vertex 7.51968 1.43201 1.18632
      vertex 7.66173 1.35 1.47042
      vertex 7.56213 1.10955 1.47042
    endloop
  endfacet
  facet normal 0.688537 -0.528336 -0.496768
    outer loop
      vertex 7.93237 1.70271 1.47042
      vertex 7.51968 1.43201 1.18632
      vertex 7.97483 2.02517 1.18632
    endloop
  endfacet
  facet normal 0.688537 -0.528326 -0.496778
    outer loop
      vertex 7.51968 1.43201 1.18632
      vertex 7.93237 1.70271 1.47042
      vertex 7.66173 1.35 1.47042
    endloop
  endfacet
  facet normal 0.528338 -0.688533 -0.496771
    outer loop
      vertex 8.29729 2.06763 1.47042
      vertex 8.09081 1.90919 1.47042
      vertex 7.97483 2.02517 1.18632
    endloop
  endfacet
  facet normal -0.801867 0.332152 0.496673
    outer loop
      vertex 12.3383 -1.35 -1.47042
      vertex 12.4803 -1.43201 -1.18632
      vertex 12.4379 -1.10955 -1.47042
    endloop
  endfacet
  facet normal -0.688584 0.528243 0.496802
    outer loop
      vertex 12.0252 -2.02517 -1.18632
      vertex 12.0676 -1.70271 -1.47042
      vertex 11.9092 -1.90919 -1.47042
    endloop
  endfacet
  facet normal -0.801875 0.332082 0.496708
    outer loop
      vertex 12.4379 -1.10955 -1.47042
      vertex 12.7664 -0.741264 -1.18632
      vertex 12.608 -0.698811 -1.47042
    endloop
  endfacet
  facet normal -0.801886 0.332133 0.496655
    outer loop
      vertex 12.7664 -0.741264 -1.18632
      vertex 12.4379 -1.10955 -1.47042
      vertex 12.4803 -1.43201 -1.18632
    endloop
  endfacet
  facet normal -0.860507 0.113231 0.496696
    outer loop
      vertex 12.7664 -0.741264 -1.18632
      vertex 12.666 -0.258035 -1.47042
      vertex 12.608 -0.698811 -1.47042
    endloop
  endfacet
  facet normal -0.860449 0.113293 0.496781
    outer loop
      vertex 12.666 -0.258035 -1.47042
      vertex 12.7664 -0.741264 -1.18632
      vertex 12.864 0 -1.18632
    endloop
  endfacet
  facet normal -0.528301 0.688538 0.496803
    outer loop
      vertex 11.7027 -2.06763 -1.47042
      vertex 11.432 -2.48032 -1.18632
      vertex 12.0252 -2.02517 -1.18632
    endloop
  endfacet
  facet normal -0.52834 0.688537 0.496764
    outer loop
      vertex 11.432 -2.48032 -1.18632
      vertex 11.7027 -2.06763 -1.47042
      vertex 11.35 -2.33827 -1.47042
    endloop
  endfacet
  facet normal 0.113274 0.860445 0.496793
    outer loop
      vertex 10 -2.86403 -1.18632
      vertex 10 -2.7 -1.47042
      vertex 9.74196 -2.66603 -1.47042
    endloop
  endfacet
  facet normal -0.113274 0.860439 0.496804
    outer loop
      vertex 10.7413 -2.76644 -1.18632
      vertex 10.258 -2.66603 -1.47042
      vertex 10 -2.86403 -1.18632
    endloop
  endfacet
  facet normal -0.113274 0.860439 0.496804
    outer loop
      vertex 10.7413 -2.76644 -1.18632
      vertex 10.6988 -2.608 -1.47042
      vertex 10.258 -2.66603 -1.47042
    endloop
  endfacet
  facet normal -0.126146 0.958211 0.256748
    outer loop
      vertex 10.7413 -2.76644 -1.18632
      vertex 10 -2.86403 -1.18632
      vertex 10 -3.07348 -0.404631
    endloop
  endfacet
  facet normal 0.801811 0.332129 0.49678
    outer loop
      vertex 7.51968 -1.43201 -1.18632
      vertex 7.66173 -1.35 -1.47042
      vertex 7.56213 -1.10955 -1.47042
    endloop
  endfacet
  facet normal 0.801811 0.332114 0.49679
    outer loop
      vertex 7.23356 -0.741264 -1.18632
      vertex 7.56213 -1.10955 -1.47042
      vertex 7.392 -0.698811 -1.47042
    endloop
  endfacet
  facet normal 0.801813 0.332126 0.496777
    outer loop
      vertex 7.56213 -1.10955 -1.47042
      vertex 7.23356 -0.741264 -1.18632
      vertex 7.51968 -1.43201 -1.18632
    endloop
  endfacet
  facet normal 0.528336 0.688537 0.496768
    outer loop
      vertex 8.56799 -2.48032 -1.18632
      vertex 8.29729 -2.06763 -1.47042
      vertex 7.97483 -2.02517 -1.18632
    endloop
  endfacet
  facet normal 0.528326 0.688537 0.496778
    outer loop
      vertex 8.29729 -2.06763 -1.47042
      vertex 8.56799 -2.48032 -1.18632
      vertex 8.65 -2.33827 -1.47042
    endloop
  endfacet
  facet normal 0.528338 0.688533 0.496771
    outer loop
      vertex 8.29729 -2.06763 -1.47042
      vertex 8.09081 -1.90919 -1.47042
      vertex 7.97483 -2.02517 -1.18632
    endloop
  endfacet
  facet normal 0.369862 0.892906 -0.256751
    outer loop
      vertex 8.56799 -2.48032 1.18632
      vertex 9.25873 -2.76644 1.18632
      vertex 8.46326 -2.66171 0.404631
    endloop
  endfacet
  facet normal 0.369856 0.89291 -0.256745
    outer loop
      vertex 9.25873 -2.76644 1.18632
      vertex 9.20452 -2.96875 0.404631
      vertex 8.46326 -2.66171 0.404631
    endloop
  endfacet
  facet normal 0.13053 0.991444 -0
    outer loop
      vertex 10 -3.07348 -0.404631
      vertex 9.20452 -2.96875 0.404631
      vertex 10 -3.07348 0.404631
    endloop
  endfacet
  facet normal 0.13053 0.991444 0
    outer loop
      vertex 9.20452 -2.96875 0.404631
      vertex 10 -3.07348 -0.404631
      vertex 9.20452 -2.96875 -0.404631
    endloop
  endfacet
  facet normal -0.332073 0.801842 -0.496767
    outer loop
      vertex 11.1095 -2.43787 1.47042
      vertex 11.35 -2.33827 1.47042
      vertex 11.432 -2.48032 1.18632
    endloop
  endfacet
  facet normal -0.528301 0.688538 -0.496803
    outer loop
      vertex 11.432 -2.48032 1.18632
      vertex 11.7027 -2.06763 1.47042
      vertex 12.0252 -2.02517 1.18632
    endloop
  endfacet
  facet normal -0.52834 0.688537 -0.496764
    outer loop
      vertex 11.7027 -2.06763 1.47042
      vertex 11.432 -2.48032 1.18632
      vertex 11.35 -2.33827 1.47042
    endloop
  endfacet
  facet normal 0.528326 0.688537 -0.496778
    outer loop
      vertex 8.56799 -2.48032 1.18632
      vertex 8.29729 -2.06763 1.47042
      vertex 8.65 -2.33827 1.47042
    endloop
  endfacet
  facet normal 0.528336 0.688537 -0.496768
    outer loop
      vertex 8.29729 -2.06763 1.47042
      vertex 8.56799 -2.48032 1.18632
      vertex 7.97483 -2.02517 1.18632
    endloop
  endfacet
  facet normal -0.332073 -0.801842 -0.496767
    outer loop
      vertex 11.1095 2.43787 1.47042
      vertex 11.432 2.48032 1.18632
      vertex 11.35 2.33827 1.47042
    endloop
  endfacet
  facet normal -0.52834 -0.688537 -0.496764
    outer loop
      vertex 11.432 2.48032 1.18632
      vertex 11.7027 2.06763 1.47042
      vertex 11.35 2.33827 1.47042
    endloop
  endfacet
  facet normal -0.528301 -0.688538 -0.496803
    outer loop
      vertex 11.7027 2.06763 1.47042
      vertex 11.432 2.48032 1.18632
      vertex 12.0252 2.02517 1.18632
    endloop
  endfacet
  facet normal -0.38271 -0.923869 0
    outer loop
      vertex 10.7955 2.96875 -0.404631
      vertex 11.5367 2.66171 0.404631
      vertex 10.7955 2.96875 0.404631
    endloop
  endfacet
  facet normal -0.38271 -0.923869 -0
    outer loop
      vertex 11.5367 2.66171 0.404631
      vertex 10.7955 2.96875 -0.404631
      vertex 11.5367 2.66171 -0.404631
    endloop
  endfacet
  facet normal 0.332129 -0.801811 -0.49678
    outer loop
      vertex 8.89045 2.43787 1.47042
      vertex 8.65 2.33827 1.47042
      vertex 8.56799 2.48032 1.18632
    endloop
  endfacet
  facet normal 0.608758 -0.793356 0
    outer loop
      vertex 7.82672 2.17328 -0.404631
      vertex 8.46326 2.66171 0.404631
      vertex 7.82672 2.17328 0.404631
    endloop
  endfacet
  facet normal 0.608758 -0.793356 0
    outer loop
      vertex 8.46326 2.66171 0.404631
      vertex 7.82672 2.17328 -0.404631
      vertex 8.46326 2.66171 -0.404631
    endloop
  endfacet
  facet normal 0.528338 -0.688533 0.496771
    outer loop
      vertex 8.09081 1.90919 -1.47042
      vertex 8.29729 2.06763 -1.47042
      vertex 7.97483 2.02517 -1.18632
    endloop
  endfacet
  facet normal 0.688533 -0.528338 0.496771
    outer loop
      vertex 8.09081 1.90919 -1.47042
      vertex 7.97483 2.02517 -1.18632
      vertex 7.93237 1.70271 -1.47042
    endloop
  endfacet
  facet normal -0.608722 0.793384 0
    outer loop
      vertex 12.1733 -2.17328 -0.404631
      vertex 11.5367 -2.66171 0.404631
      vertex 12.1733 -2.17328 0.404631
    endloop
  endfacet
  facet normal -0.608722 0.793384 0
    outer loop
      vertex 11.5367 -2.66171 0.404631
      vertex 12.1733 -2.17328 -0.404631
      vertex 11.5367 -2.66171 -0.404631
    endloop
  endfacet
  facet normal 0.332129 0.801811 -0.49678
    outer loop
      vertex 8.89045 -2.43787 1.47042
      vertex 8.56799 -2.48032 1.18632
      vertex 8.65 -2.33827 1.47042
    endloop
  endfacet
  facet normal -0.113292 -0.860443 -0.496792
    outer loop
      vertex 10 2.86403 1.18632
      vertex 10.258 2.66603 1.47042
      vertex 10 2.7 1.47042
    endloop
  endfacet
  facet normal -0.113274 -0.860439 -0.496804
    outer loop
      vertex 10.7413 2.76644 1.18632
      vertex 10.258 2.66603 1.47042
      vertex 10 2.86403 1.18632
    endloop
  endfacet
  facet normal -0.113274 -0.860439 -0.496804
    outer loop
      vertex 10.258 2.66603 1.47042
      vertex 10.7413 2.76644 1.18632
      vertex 10.6988 2.608 1.47042
    endloop
  endfacet
  facet normal 0.58835 -0.766759 0.256758
    outer loop
      vertex 7.97483 2.02517 -1.18632
      vertex 8.46326 2.66171 -0.404631
      vertex 7.82672 2.17328 -0.404631
    endloop
  endfacet
  facet normal 0.793356 -0.608758 0
    outer loop
      vertex 7.33829 1.53674 0.404631
      vertex 7.82672 2.17328 -0.404631
      vertex 7.82672 2.17328 0.404631
    endloop
  endfacet
  facet normal 0.793356 -0.608758 0
    outer loop
      vertex 7.82672 2.17328 -0.404631
      vertex 7.33829 1.53674 0.404631
      vertex 7.33829 1.53674 -0.404631
    endloop
  endfacet
  facet normal 0.766759 -0.58835 -0.256758
    outer loop
      vertex 7.82672 2.17328 0.404631
      vertex 7.97483 2.02517 1.18632
      vertex 7.33829 1.53674 0.404631
    endloop
  endfacet
  facet normal 0.58835 -0.766759 -0.256758
    outer loop
      vertex 8.46326 2.66171 0.404631
      vertex 7.97483 2.02517 1.18632
      vertex 7.82672 2.17328 0.404631
    endloop
  endfacet
  facet normal -0.766785 0.588314 0.256763
    outer loop
      vertex 12.6617 -1.53674 -0.404631
      vertex 12.4803 -1.43201 -1.18632
      vertex 12.0252 -2.02517 -1.18632
    endloop
  endfacet
  facet normal -0.766779 0.588329 0.256748
    outer loop
      vertex 12.1733 -2.17328 -0.404631
      vertex 12.6617 -1.53674 -0.404631
      vertex 12.0252 -2.02517 -1.18632
    endloop
  endfacet
  facet normal 0.688533 0.528338 -0.496771
    outer loop
      vertex 8.09081 -1.90919 1.47042
      vertex 7.97483 -2.02517 1.18632
      vertex 7.93237 -1.70271 1.47042
    endloop
  endfacet
  facet normal 0.528338 0.688533 -0.496771
    outer loop
      vertex 8.09081 -1.90919 1.47042
      vertex 8.29729 -2.06763 1.47042
      vertex 7.97483 -2.02517 1.18632
    endloop
  endfacet
  facet normal 0.126151 -0.95821 -0.256748
    outer loop
      vertex 10 3.07348 0.404631
      vertex 10 2.86403 1.18632
      vertex 9.25873 2.76644 1.18632
    endloop
  endfacet
  facet normal 0.126154 -0.95821 -0.256745
    outer loop
      vertex 10 3.07348 0.404631
      vertex 9.25873 2.76644 1.18632
      vertex 9.20452 2.96875 0.404631
    endloop
  endfacet
  facet normal 0.369862 -0.892906 -0.256751
    outer loop
      vertex 9.25873 2.76644 1.18632
      vertex 8.56799 2.48032 1.18632
      vertex 8.46326 2.66171 0.404631
    endloop
  endfacet
  facet normal 0.332128 -0.801811 -0.496779
    outer loop
      vertex 9.25873 2.76644 1.18632
      vertex 8.89045 2.43787 1.47042
      vertex 8.56799 2.48032 1.18632
    endloop
  endfacet
  facet normal 0.332112 -0.801808 -0.496796
    outer loop
      vertex 8.89045 2.43787 1.47042
      vertex 9.25873 2.76644 1.18632
      vertex 9.30119 2.608 1.47042
    endloop
  endfacet
  facet normal -0.923876 -0.382691 0
    outer loop
      vertex 12.3383 1.35 -2
      vertex 12.4379 1.10955 -1.47042
      vertex 12.3383 1.35 -1.47042
    endloop
  endfacet
  facet normal -0.923895 -0.382646 2.42708e-05
    outer loop
      vertex 12.608 0.698811 -2
      vertex 12.4379 1.10955 -1.47042
      vertex 12.3383 1.35 -2
    endloop
  endfacet
  facet normal -0.923906 -0.382619 0
    outer loop
      vertex 12.4379 1.10955 -1.47042
      vertex 12.608 0.698811 -2
      vertex 12.608 0.698811 -1.47042
    endloop
  endfacet
  facet normal -0.923876 -0.382691 0
    outer loop
      vertex 12.4379 1.10955 1.47042
      vertex 12.3383 1.35 2
      vertex 12.3383 1.35 1.47042
    endloop
  endfacet
  facet normal -0.923906 -0.382619 -0
    outer loop
      vertex 12.608 0.698811 2
      vertex 12.4379 1.10955 1.47042
      vertex 12.608 0.698811 1.47042
    endloop
  endfacet
  facet normal -0.923895 -0.382646 -2.42708e-05
    outer loop
      vertex 12.4379 1.10955 1.47042
      vertex 12.608 0.698811 2
      vertex 12.3383 1.35 2
    endloop
  endfacet
  facet normal -0.991453 -0.130461 0
    outer loop
      vertex 12.608 0.698811 -2
      vertex 12.666 0.258035 -1.47042
      vertex 12.608 0.698811 -1.47042
    endloop
  endfacet
  facet normal -0.991445 -0.130526 -5.45289e-05
    outer loop
      vertex 12.7 0 -2
      vertex 12.666 0.258035 -1.47042
      vertex 12.608 0.698811 -2
    endloop
  endfacet
  facet normal -0.99143 -0.130636 0
    outer loop
      vertex 12.666 0.258035 -1.47042
      vertex 12.7 0 -2
      vertex 12.7 0 -1.47042
    endloop
  endfacet
  facet normal -0.991453 -0.130461 0
    outer loop
      vertex 12.666 0.258035 1.47042
      vertex 12.608 0.698811 2
      vertex 12.608 0.698811 1.47042
    endloop
  endfacet
  facet normal -0.99143 -0.130636 -0
    outer loop
      vertex 12.7 0 2
      vertex 12.666 0.258035 1.47042
      vertex 12.7 0 1.47042
    endloop
  endfacet
  facet normal -0.991445 -0.130526 5.45289e-05
    outer loop
      vertex 12.666 0.258035 1.47042
      vertex 12.7 0 2
      vertex 12.608 0.698811 2
    endloop
  endfacet
  facet normal -0.793423 -0.60867 0
    outer loop
      vertex 11.9092 1.90919 -2
      vertex 12.0676 1.70271 -1.47042
      vertex 11.9092 1.90919 -1.47042
    endloop
  endfacet
  facet normal -0.793341 -0.608778 -6.66315e-05
    outer loop
      vertex 12.3383 1.35 -2
      vertex 12.0676 1.70271 -1.47042
      vertex 11.9092 1.90919 -2
    endloop
  endfacet
  facet normal -0.793292 -0.608841 0
    outer loop
      vertex 12.0676 1.70271 -1.47042
      vertex 12.3383 1.35 -2
      vertex 12.3383 1.35 -1.47042
    endloop
  endfacet
  facet normal -0.793423 -0.60867 0
    outer loop
      vertex 12.0676 1.70271 1.47042
      vertex 11.9092 1.90919 2
      vertex 11.9092 1.90919 1.47042
    endloop
  endfacet
  facet normal -0.793292 -0.608841 -0
    outer loop
      vertex 12.3383 1.35 2
      vertex 12.0676 1.70271 1.47042
      vertex 12.3383 1.35 1.47042
    endloop
  endfacet
  facet normal -0.793341 -0.608778 6.66315e-05
    outer loop
      vertex 12.0676 1.70271 1.47042
      vertex 12.3383 1.35 2
      vertex 11.9092 1.90919 2
    endloop
  endfacet
  facet normal 0.793349 -0.608767 0
    outer loop
      vertex 7.93237 1.70271 -1.47042
      vertex 8.09081 1.90919 -2
      vertex 8.09081 1.90919 -1.47042
    endloop
  endfacet
  facet normal 0.793358 -0.608756 0
    outer loop
      vertex 7.66173 1.35 -2
      vertex 7.93237 1.70271 -1.47042
      vertex 7.66173 1.35 -1.47042
    endloop
  endfacet
  facet normal 0.793354 -0.60876 4.35395e-06
    outer loop
      vertex 7.93237 1.70271 -1.47042
      vertex 7.66173 1.35 -2
      vertex 8.09081 1.90919 -2
    endloop
  endfacet
  facet normal 0.793349 -0.608767 0
    outer loop
      vertex 8.09081 1.90919 2
      vertex 7.93237 1.70271 1.47042
      vertex 8.09081 1.90919 1.47042
    endloop
  endfacet
  facet normal 0.793354 -0.60876 -4.35395e-06
    outer loop
      vertex 7.66173 1.35 2
      vertex 7.93237 1.70271 1.47042
      vertex 8.09081 1.90919 2
    endloop
  endfacet
  facet normal 0.793358 -0.608756 0
    outer loop
      vertex 7.93237 1.70271 1.47042
      vertex 7.66173 1.35 2
      vertex 7.66173 1.35 1.47042
    endloop
  endfacet
  facet normal 0.608767 -0.793349 0
    outer loop
      vertex 8.09081 1.90919 -2
      vertex 8.29729 2.06763 -1.47042
      vertex 8.09081 1.90919 -1.47042
    endloop
  endfacet
  facet normal 0.60876 -0.793354 4.35395e-06
    outer loop
      vertex 8.65 2.33827 -2
      vertex 8.29729 2.06763 -1.47042
      vertex 8.09081 1.90919 -2
    endloop
  endfacet
  facet normal 0.608756 -0.793358 0
    outer loop
      vertex 8.29729 2.06763 -1.47042
      vertex 8.65 2.33827 -2
      vertex 8.65 2.33827 -1.47042
    endloop
  endfacet
  facet normal 0.60876 -0.793354 -4.35395e-06
    outer loop
      vertex 8.29729 2.06763 1.47042
      vertex 8.65 2.33827 2
      vertex 8.09081 1.90919 2
    endloop
  endfacet
  facet normal 0.608756 -0.793358 0
    outer loop
      vertex 8.65 2.33827 2
      vertex 8.29729 2.06763 1.47042
      vertex 8.65 2.33827 1.47042
    endloop
  endfacet
  facet normal 0.608767 -0.793349 0
    outer loop
      vertex 8.29729 2.06763 1.47042
      vertex 8.09081 1.90919 2
      vertex 8.09081 1.90919 1.47042
    endloop
  endfacet
  facet normal -0.382623 0.923904 0
    outer loop
      vertex 11.35 -2.33827 -2
      vertex 11.1095 -2.43787 -1.47042
      vertex 11.35 -2.33827 -1.47042
    endloop
  endfacet
  facet normal -0.382676 0.923882 -2.82499e-05
    outer loop
      vertex 10.6988 -2.608 -2
      vertex 11.1095 -2.43787 -1.47042
      vertex 11.35 -2.33827 -2
    endloop
  endfacet
  facet normal -0.382707 0.92387 0
    outer loop
      vertex 11.1095 -2.43787 -1.47042
      vertex 10.6988 -2.608 -2
      vertex 10.6988 -2.608 -1.47042
    endloop
  endfacet
  facet normal -0.382676 0.923882 2.82499e-05
    outer loop
      vertex 11.1095 -2.43787 1.47042
      vertex 10.6988 -2.608 2
      vertex 11.35 -2.33827 2
    endloop
  endfacet
  facet normal -0.382707 0.92387 0
    outer loop
      vertex 10.6988 -2.608 2
      vertex 11.1095 -2.43787 1.47042
      vertex 10.6988 -2.608 1.47042
    endloop
  endfacet
  facet normal -0.382623 0.923904 0
    outer loop
      vertex 11.1095 -2.43787 1.47042
      vertex 11.35 -2.33827 2
      vertex 11.35 -2.33827 1.47042
    endloop
  endfacet
  facet normal 0.923876 -0.382691 0
    outer loop
      vertex 7.56213 1.10955 -1.47042
      vertex 7.66173 1.35 -2
      vertex 7.66173 1.35 -1.47042
    endloop
  endfacet
  facet normal 0.923882 -0.382676 0
    outer loop
      vertex 7.392 0.698811 -2
      vertex 7.56213 1.10955 -1.47042
      vertex 7.392 0.698811 -1.47042
    endloop
  endfacet
  facet normal 0.92388 -0.382682 4.94522e-06
    outer loop
      vertex 7.56213 1.10955 -1.47042
      vertex 7.392 0.698811 -2
      vertex 7.66173 1.35 -2
    endloop
  endfacet
  facet normal 0.923876 -0.382691 0
    outer loop
      vertex 7.66173 1.35 2
      vertex 7.56213 1.10955 1.47042
      vertex 7.66173 1.35 1.47042
    endloop
  endfacet
  facet normal 0.92388 -0.382682 -4.94522e-06
    outer loop
      vertex 7.392 0.698811 2
      vertex 7.56213 1.10955 1.47042
      vertex 7.66173 1.35 2
    endloop
  endfacet
  facet normal 0.923882 -0.382676 0
    outer loop
      vertex 7.56213 1.10955 1.47042
      vertex 7.392 0.698811 2
      vertex 7.392 0.698811 1.47042
    endloop
  endfacet
  facet normal -0.608767 -0.793349 0
    outer loop
      vertex 11.35 2.33827 -2
      vertex 11.7027 2.06763 -1.47042
      vertex 11.35 2.33827 -1.47042
    endloop
  endfacet
  facet normal -0.608753 -0.79336 -1.43915e-05
    outer loop
      vertex 11.9092 1.90919 -2
      vertex 11.7027 2.06763 -1.47042
      vertex 11.35 2.33827 -2
    endloop
  endfacet
  facet normal -0.60873 -0.793378 0
    outer loop
      vertex 11.7027 2.06763 -1.47042
      vertex 11.9092 1.90919 -2
      vertex 11.9092 1.90919 -1.47042
    endloop
  endfacet
  facet normal -0.608767 -0.793349 0
    outer loop
      vertex 11.7027 2.06763 1.47042
      vertex 11.35 2.33827 2
      vertex 11.35 2.33827 1.47042
    endloop
  endfacet
  facet normal -0.608753 -0.79336 1.43915e-05
    outer loop
      vertex 11.35 2.33827 2
      vertex 11.7027 2.06763 1.47042
      vertex 11.9092 1.90919 2
    endloop
  endfacet
  facet normal -0.60873 -0.793378 -0
    outer loop
      vertex 11.9092 1.90919 2
      vertex 11.7027 2.06763 1.47042
      vertex 11.9092 1.90919 1.47042
    endloop
  endfacet
  facet normal -0.13054 -0.991443 0
    outer loop
      vertex 10 2.7 -2
      vertex 10.258 2.66603 -1.47042
      vertex 10 2.7 -1.47042
    endloop
  endfacet
  facet normal -0.130528 -0.991445 -5.9904e-06
    outer loop
      vertex 10.6988 2.608 -2
      vertex 10.258 2.66603 -1.47042
      vertex 10 2.7 -2
    endloop
  endfacet
  facet normal -0.130521 -0.991446 0
    outer loop
      vertex 10.258 2.66603 -1.47042
      vertex 10.6988 2.608 -2
      vertex 10.6988 2.608 -1.47042
    endloop
  endfacet
  facet normal -0.130528 -0.991445 5.9904e-06
    outer loop
      vertex 10.258 2.66603 1.47042
      vertex 10.6988 2.608 2
      vertex 10 2.7 2
    endloop
  endfacet
  facet normal -0.130521 -0.991446 -0
    outer loop
      vertex 10.6988 2.608 2
      vertex 10.258 2.66603 1.47042
      vertex 10.6988 2.608 1.47042
    endloop
  endfacet
  facet normal -0.13054 -0.991443 0
    outer loop
      vertex 10.258 2.66603 1.47042
      vertex 10 2.7 2
      vertex 10 2.7 1.47042
    endloop
  endfacet
  facet normal -0.130521 0.991446 0
    outer loop
      vertex 10.6988 -2.608 -2
      vertex 10.258 -2.66603 -1.47042
      vertex 10.6988 -2.608 -1.47042
    endloop
  endfacet
  facet normal -0.130528 0.991445 -5.9904e-06
    outer loop
      vertex 10 -2.7 -2
      vertex 10.258 -2.66603 -1.47042
      vertex 10.6988 -2.608 -2
    endloop
  endfacet
  facet normal -0.13054 0.991443 0
    outer loop
      vertex 10.258 -2.66603 -1.47042
      vertex 10 -2.7 -2
      vertex 10 -2.7 -1.47042
    endloop
  endfacet
  facet normal -0.130521 0.991446 0
    outer loop
      vertex 10.258 -2.66603 1.47042
      vertex 10.6988 -2.608 2
      vertex 10.6988 -2.608 1.47042
    endloop
  endfacet
  facet normal -0.130528 0.991445 5.9904e-06
    outer loop
      vertex 10.6988 -2.608 2
      vertex 10.258 -2.66603 1.47042
      vertex 10 -2.7 2
    endloop
  endfacet
  facet normal -0.13054 0.991443 0
    outer loop
      vertex 10 -2.7 2
      vertex 10.258 -2.66603 1.47042
      vertex 10 -2.7 1.47042
    endloop
  endfacet
  facet normal -0.793292 0.608841 0
    outer loop
      vertex 12.3383 -1.35 -2
      vertex 12.0676 -1.70271 -1.47042
      vertex 12.3383 -1.35 -1.47042
    endloop
  endfacet
  facet normal -0.793341 0.608778 -6.66315e-05
    outer loop
      vertex 11.9092 -1.90919 -2
      vertex 12.0676 -1.70271 -1.47042
      vertex 12.3383 -1.35 -2
    endloop
  endfacet
  facet normal -0.793423 0.60867 0
    outer loop
      vertex 12.0676 -1.70271 -1.47042
      vertex 11.9092 -1.90919 -2
      vertex 11.9092 -1.90919 -1.47042
    endloop
  endfacet
  facet normal -0.793292 0.608841 0
    outer loop
      vertex 12.0676 -1.70271 1.47042
      vertex 12.3383 -1.35 2
      vertex 12.3383 -1.35 1.47042
    endloop
  endfacet
  facet normal -0.793423 0.60867 0
    outer loop
      vertex 11.9092 -1.90919 2
      vertex 12.0676 -1.70271 1.47042
      vertex 11.9092 -1.90919 1.47042
    endloop
  endfacet
  facet normal -0.793341 0.608778 6.66315e-05
    outer loop
      vertex 12.0676 -1.70271 1.47042
      vertex 11.9092 -1.90919 2
      vertex 12.3383 -1.35 2
    endloop
  endfacet
  facet normal -0.60873 0.793378 0
    outer loop
      vertex 11.9092 -1.90919 -2
      vertex 11.7027 -2.06763 -1.47042
      vertex 11.9092 -1.90919 -1.47042
    endloop
  endfacet
  facet normal -0.608753 0.79336 -1.43915e-05
    outer loop
      vertex 11.35 -2.33827 -2
      vertex 11.7027 -2.06763 -1.47042
      vertex 11.9092 -1.90919 -2
    endloop
  endfacet
  facet normal -0.608767 0.793349 0
    outer loop
      vertex 11.7027 -2.06763 -1.47042
      vertex 11.35 -2.33827 -2
      vertex 11.35 -2.33827 -1.47042
    endloop
  endfacet
  facet normal -0.608753 0.79336 1.43915e-05
    outer loop
      vertex 11.7027 -2.06763 1.47042
      vertex 11.35 -2.33827 2
      vertex 11.9092 -1.90919 2
    endloop
  endfacet
  facet normal -0.608767 0.793349 0
    outer loop
      vertex 11.35 -2.33827 2
      vertex 11.7027 -2.06763 1.47042
      vertex 11.35 -2.33827 1.47042
    endloop
  endfacet
  facet normal -0.60873 0.793378 0
    outer loop
      vertex 11.7027 -2.06763 1.47042
      vertex 11.9092 -1.90919 2
      vertex 11.9092 -1.90919 1.47042
    endloop
  endfacet
  facet normal 0.793358 0.608756 0
    outer loop
      vertex 7.93237 -1.70271 -1.47042
      vertex 7.66173 -1.35 -2
      vertex 7.66173 -1.35 -1.47042
    endloop
  endfacet
  facet normal 0.793349 0.608767 -0
    outer loop
      vertex 8.09081 -1.90919 -2
      vertex 7.93237 -1.70271 -1.47042
      vertex 8.09081 -1.90919 -1.47042
    endloop
  endfacet
  facet normal 0.793354 0.60876 4.35395e-06
    outer loop
      vertex 7.93237 -1.70271 -1.47042
      vertex 8.09081 -1.90919 -2
      vertex 7.66173 -1.35 -2
    endloop
  endfacet
  facet normal 0.793358 0.608756 0
    outer loop
      vertex 7.66173 -1.35 2
      vertex 7.93237 -1.70271 1.47042
      vertex 7.66173 -1.35 1.47042
    endloop
  endfacet
  facet normal 0.793354 0.60876 -4.35395e-06
    outer loop
      vertex 8.09081 -1.90919 2
      vertex 7.93237 -1.70271 1.47042
      vertex 7.66173 -1.35 2
    endloop
  endfacet
  facet normal 0.793349 0.608767 0
    outer loop
      vertex 7.93237 -1.70271 1.47042
      vertex 8.09081 -1.90919 2
      vertex 8.09081 -1.90919 1.47042
    endloop
  endfacet
  facet normal -0.99143 0.130636 0
    outer loop
      vertex 12.7 0 -2
      vertex 12.666 -0.258035 -1.47042
      vertex 12.7 0 -1.47042
    endloop
  endfacet
  facet normal -0.991445 0.130526 -5.45289e-05
    outer loop
      vertex 12.608 -0.698811 -2
      vertex 12.666 -0.258035 -1.47042
      vertex 12.7 0 -2
    endloop
  endfacet
  facet normal -0.991453 0.130461 0
    outer loop
      vertex 12.666 -0.258035 -1.47042
      vertex 12.608 -0.698811 -2
      vertex 12.608 -0.698811 -1.47042
    endloop
  endfacet
  facet normal -0.99143 0.130636 0
    outer loop
      vertex 12.666 -0.258035 1.47042
      vertex 12.7 0 2
      vertex 12.7 0 1.47042
    endloop
  endfacet
  facet normal -0.991453 0.130461 0
    outer loop
      vertex 12.608 -0.698811 2
      vertex 12.666 -0.258035 1.47042
      vertex 12.608 -0.698811 1.47042
    endloop
  endfacet
  facet normal -0.991445 0.130526 5.45289e-05
    outer loop
      vertex 12.666 -0.258035 1.47042
      vertex 12.608 -0.698811 2
      vertex 12.7 0 2
    endloop
  endfacet
  facet normal 0.991445 -0.130528 0
    outer loop
      vertex 7.33397 0.258035 -1.47042
      vertex 7.392 0.698811 -2
      vertex 7.392 0.698811 -1.47042
    endloop
  endfacet
  facet normal 0.991445 -0.130523 0
    outer loop
      vertex 7.3 0 -2
      vertex 7.33397 0.258035 -1.47042
      vertex 7.3 0 -1.47042
    endloop
  endfacet
  facet normal 0.991445 -0.130526 1.63509e-06
    outer loop
      vertex 7.33397 0.258035 -1.47042
      vertex 7.3 0 -2
      vertex 7.392 0.698811 -2
    endloop
  endfacet
  facet normal 0.991445 -0.130528 0
    outer loop
      vertex 7.392 0.698811 2
      vertex 7.33397 0.258035 1.47042
      vertex 7.392 0.698811 1.47042
    endloop
  endfacet
  facet normal 0.991445 -0.130526 -1.63509e-06
    outer loop
      vertex 7.3 0 2
      vertex 7.33397 0.258035 1.47042
      vertex 7.392 0.698811 2
    endloop
  endfacet
  facet normal 0.991445 -0.130523 0
    outer loop
      vertex 7.33397 0.258035 1.47042
      vertex 7.3 0 2
      vertex 7.3 0 1.47042
    endloop
  endfacet
  facet normal 0.13053 -0.991444 0
    outer loop
      vertex 9.30119 2.608 -2
      vertex 9.74196 2.66603 -1.47042
      vertex 9.30119 2.608 -1.47042
    endloop
  endfacet
  facet normal 0.130526 -0.991445 2.95845e-06
    outer loop
      vertex 10 2.7 -2
      vertex 9.74196 2.66603 -1.47042
      vertex 9.30119 2.608 -2
    endloop
  endfacet
  facet normal 0.13052 -0.991446 0
    outer loop
      vertex 9.74196 2.66603 -1.47042
      vertex 10 2.7 -2
      vertex 10 2.7 -1.47042
    endloop
  endfacet
  facet normal 0.13053 -0.991444 0
    outer loop
      vertex 9.74196 2.66603 1.47042
      vertex 9.30119 2.608 2
      vertex 9.30119 2.608 1.47042
    endloop
  endfacet
  facet normal 0.130526 -0.991445 -2.95845e-06
    outer loop
      vertex 9.30119 2.608 2
      vertex 9.74196 2.66603 1.47042
      vertex 10 2.7 2
    endloop
  endfacet
  facet normal 0.13052 -0.991446 0
    outer loop
      vertex 10 2.7 2
      vertex 9.74196 2.66603 1.47042
      vertex 10 2.7 1.47042
    endloop
  endfacet
  facet normal -0.923906 0.382619 0
    outer loop
      vertex 12.608 -0.698811 -2
      vertex 12.4379 -1.10955 -1.47042
      vertex 12.608 -0.698811 -1.47042
    endloop
  endfacet
  facet normal -0.923895 0.382646 2.42708e-05
    outer loop
      vertex 12.3383 -1.35 -2
      vertex 12.4379 -1.10955 -1.47042
      vertex 12.608 -0.698811 -2
    endloop
  endfacet
  facet normal -0.923876 0.382691 0
    outer loop
      vertex 12.4379 -1.10955 -1.47042
      vertex 12.3383 -1.35 -2
      vertex 12.3383 -1.35 -1.47042
    endloop
  endfacet
  facet normal -0.923906 0.382619 0
    outer loop
      vertex 12.4379 -1.10955 1.47042
      vertex 12.608 -0.698811 2
      vertex 12.608 -0.698811 1.47042
    endloop
  endfacet
  facet normal -0.923876 0.382691 0
    outer loop
      vertex 12.3383 -1.35 2
      vertex 12.4379 -1.10955 1.47042
      vertex 12.3383 -1.35 1.47042
    endloop
  endfacet
  facet normal -0.923895 0.382646 -2.42708e-05
    outer loop
      vertex 12.4379 -1.10955 1.47042
      vertex 12.3383 -1.35 2
      vertex 12.608 -0.698811 2
    endloop
  endfacet
  facet normal 0.382691 -0.923876 0
    outer loop
      vertex 8.65 2.33827 -2
      vertex 8.89045 2.43787 -1.47042
      vertex 8.65 2.33827 -1.47042
    endloop
  endfacet
  facet normal 0.382681 -0.92388 5.21204e-06
    outer loop
      vertex 9.30119 2.608 -2
      vertex 8.89045 2.43787 -1.47042
      vertex 8.65 2.33827 -2
    endloop
  endfacet
  facet normal 0.382676 -0.923883 0
    outer loop
      vertex 8.89045 2.43787 -1.47042
      vertex 9.30119 2.608 -2
      vertex 9.30119 2.608 -1.47042
    endloop
  endfacet
  facet normal 0.382681 -0.92388 -5.21204e-06
    outer loop
      vertex 8.89045 2.43787 1.47042
      vertex 9.30119 2.608 2
      vertex 8.65 2.33827 2
    endloop
  endfacet
  facet normal 0.382676 -0.923883 0
    outer loop
      vertex 9.30119 2.608 2
      vertex 8.89045 2.43787 1.47042
      vertex 9.30119 2.608 1.47042
    endloop
  endfacet
  facet normal 0.382691 -0.923876 0
    outer loop
      vertex 8.89045 2.43787 1.47042
      vertex 8.65 2.33827 2
      vertex 8.65 2.33827 1.47042
    endloop
  endfacet
  facet normal -0.382707 -0.92387 0
    outer loop
      vertex 10.6988 2.608 -2
      vertex 11.1095 2.43787 -1.47042
      vertex 10.6988 2.608 -1.47042
    endloop
  endfacet
  facet normal -0.382676 -0.923882 -2.82499e-05
    outer loop
      vertex 11.35 2.33827 -2
      vertex 11.1095 2.43787 -1.47042
      vertex 10.6988 2.608 -2
    endloop
  endfacet
  facet normal -0.382623 -0.923904 0
    outer loop
      vertex 11.1095 2.43787 -1.47042
      vertex 11.35 2.33827 -2
      vertex 11.35 2.33827 -1.47042
    endloop
  endfacet
  facet normal -0.382707 -0.92387 0
    outer loop
      vertex 11.1095 2.43787 1.47042
      vertex 10.6988 2.608 2
      vertex 10.6988 2.608 1.47042
    endloop
  endfacet
  facet normal -0.382676 -0.923882 2.82499e-05
    outer loop
      vertex 10.6988 2.608 2
      vertex 11.1095 2.43787 1.47042
      vertex 11.35 2.33827 2
    endloop
  endfacet
  facet normal -0.382623 -0.923904 -0
    outer loop
      vertex 11.35 2.33827 2
      vertex 11.1095 2.43787 1.47042
      vertex 11.35 2.33827 1.47042
    endloop
  endfacet
  facet normal 0.13052 0.991446 -0
    outer loop
      vertex 10 -2.7 -2
      vertex 9.74196 -2.66603 -1.47042
      vertex 10 -2.7 -1.47042
    endloop
  endfacet
  facet normal 0.130526 0.991445 2.95845e-06
    outer loop
      vertex 9.30119 -2.608 -2
      vertex 9.74196 -2.66603 -1.47042
      vertex 10 -2.7 -2
    endloop
  endfacet
  facet normal 0.13053 0.991444 0
    outer loop
      vertex 9.74196 -2.66603 -1.47042
      vertex 9.30119 -2.608 -2
      vertex 9.30119 -2.608 -1.47042
    endloop
  endfacet
  facet normal 0.130526 0.991445 -2.95845e-06
    outer loop
      vertex 9.74196 -2.66603 1.47042
      vertex 9.30119 -2.608 2
      vertex 10 -2.7 2
    endloop
  endfacet
  facet normal 0.13053 0.991444 0
    outer loop
      vertex 9.30119 -2.608 2
      vertex 9.74196 -2.66603 1.47042
      vertex 9.30119 -2.608 1.47042
    endloop
  endfacet
  facet normal 0.13052 0.991446 0
    outer loop
      vertex 9.74196 -2.66603 1.47042
      vertex 10 -2.7 2
      vertex 10 -2.7 1.47042
    endloop
  endfacet
  facet normal 0.923882 0.382676 0
    outer loop
      vertex 7.56213 -1.10955 -1.47042
      vertex 7.392 -0.698811 -2
      vertex 7.392 -0.698811 -1.47042
    endloop
  endfacet
  facet normal 0.923876 0.382691 -0
    outer loop
      vertex 7.66173 -1.35 -2
      vertex 7.56213 -1.10955 -1.47042
      vertex 7.66173 -1.35 -1.47042
    endloop
  endfacet
  facet normal 0.92388 0.382682 4.94522e-06
    outer loop
      vertex 7.56213 -1.10955 -1.47042
      vertex 7.66173 -1.35 -2
      vertex 7.392 -0.698811 -2
    endloop
  endfacet
  facet normal 0.923882 0.382676 0
    outer loop
      vertex 7.392 -0.698811 2
      vertex 7.56213 -1.10955 1.47042
      vertex 7.392 -0.698811 1.47042
    endloop
  endfacet
  facet normal 0.92388 0.382682 -4.94522e-06
    outer loop
      vertex 7.66173 -1.35 2
      vertex 7.56213 -1.10955 1.47042
      vertex 7.392 -0.698811 2
    endloop
  endfacet
  facet normal 0.923876 0.382691 0
    outer loop
      vertex 7.56213 -1.10955 1.47042
      vertex 7.66173 -1.35 2
      vertex 7.66173 -1.35 1.47042
    endloop
  endfacet
  facet normal 0.991445 0.130523 0
    outer loop
      vertex 7.33397 -0.258035 -1.47042
      vertex 7.3 0 -2
      vertex 7.3 0 -1.47042
    endloop
  endfacet
  facet normal 0.991445 0.130528 -0
    outer loop
      vertex 7.392 -0.698811 -2
      vertex 7.33397 -0.258035 -1.47042
      vertex 7.392 -0.698811 -1.47042
    endloop
  endfacet
  facet normal 0.991445 0.130526 1.63509e-06
    outer loop
      vertex 7.33397 -0.258035 -1.47042
      vertex 7.392 -0.698811 -2
      vertex 7.3 0 -2
    endloop
  endfacet
  facet normal 0.991445 0.130523 0
    outer loop
      vertex 7.3 0 2
      vertex 7.33397 -0.258035 1.47042
      vertex 7.3 0 1.47042
    endloop
  endfacet
  facet normal 0.991445 0.130526 -1.63509e-06
    outer loop
      vertex 7.392 -0.698811 2
      vertex 7.33397 -0.258035 1.47042
      vertex 7.3 0 2
    endloop
  endfacet
  facet normal 0.991445 0.130528 0
    outer loop
      vertex 7.33397 -0.258035 1.47042
      vertex 7.392 -0.698811 2
      vertex 7.392 -0.698811 1.47042
    endloop
  endfacet
  facet normal 0.608756 0.793358 -0
    outer loop
      vertex 8.65 -2.33827 -2
      vertex 8.29729 -2.06763 -1.47042
      vertex 8.65 -2.33827 -1.47042
    endloop
  endfacet
  facet normal 0.60876 0.793354 4.35395e-06
    outer loop
      vertex 8.09081 -1.90919 -2
      vertex 8.29729 -2.06763 -1.47042
      vertex 8.65 -2.33827 -2
    endloop
  endfacet
  facet normal 0.608767 0.793349 0
    outer loop
      vertex 8.29729 -2.06763 -1.47042
      vertex 8.09081 -1.90919 -2
      vertex 8.09081 -1.90919 -1.47042
    endloop
  endfacet
  facet normal 0.608756 0.793358 0
    outer loop
      vertex 8.29729 -2.06763 1.47042
      vertex 8.65 -2.33827 2
      vertex 8.65 -2.33827 1.47042
    endloop
  endfacet
  facet normal 0.60876 0.793354 -4.35395e-06
    outer loop
      vertex 8.65 -2.33827 2
      vertex 8.29729 -2.06763 1.47042
      vertex 8.09081 -1.90919 2
    endloop
  endfacet
  facet normal 0.608767 0.793349 0
    outer loop
      vertex 8.09081 -1.90919 2
      vertex 8.29729 -2.06763 1.47042
      vertex 8.09081 -1.90919 1.47042
    endloop
  endfacet
  facet normal 0.382676 0.923883 -0
    outer loop
      vertex 9.30119 -2.608 -2
      vertex 8.89045 -2.43787 -1.47042
      vertex 9.30119 -2.608 -1.47042
    endloop
  endfacet
  facet normal 0.382681 0.92388 5.21204e-06
    outer loop
      vertex 8.65 -2.33827 -2
      vertex 8.89045 -2.43787 -1.47042
      vertex 9.30119 -2.608 -2
    endloop
  endfacet
  facet normal 0.382691 0.923876 0
    outer loop
      vertex 8.89045 -2.43787 -1.47042
      vertex 8.65 -2.33827 -2
      vertex 8.65 -2.33827 -1.47042
    endloop
  endfacet
  facet normal 0.382676 0.923883 0
    outer loop
      vertex 8.89045 -2.43787 1.47042
      vertex 9.30119 -2.608 2
      vertex 9.30119 -2.608 1.47042
    endloop
  endfacet
  facet normal 0.382681 0.92388 -5.21204e-06
    outer loop
      vertex 9.30119 -2.608 2
      vertex 8.89045 -2.43787 1.47042
      vertex 8.65 -2.33827 2
    endloop
  endfacet
  facet normal 0.382691 0.923876 0
    outer loop
      vertex 8.65 -2.33827 2
      vertex 8.89045 -2.43787 1.47042
      vertex 8.65 -2.33827 1.47042
    endloop
  endfacet
endsolid OpenSCAD_Model
