solid OpenSCAD_Model
  facet normal 1 -0 0
    outer loop
      vertex 30 -6 2
      vertex 30 6 -2
      vertex 30 6 2
    endloop
  endfacet
  facet normal 1 0 0
    outer loop
      vertex 30 6 -2
      vertex 30 -6 2
      vertex 30 -6 -2
    endloop
  endfacet
  facet normal 0 0 1
    outer loop
      vertex 30 6 2
      vertex 12.6 0 2
      vertex 30 -6 2
    endloop
  endfacet
  facet normal 0 0 1
    outer loop
      vertex 30 6 2
      vertex 12.5114 0.672929 2
      vertex 12.6 0 2
    endloop
  endfacet
  facet normal 0 0 1
    outer loop
      vertex 30 6 2
      vertex 12.2517 1.3 2
      vertex 12.5114 0.672929 2
    endloop
  endfacet
  facet normal 0 0 1
    outer loop
      vertex 30 6 2
      vertex 11.8385 1.83848 2
      vertex 12.2517 1.3 2
    endloop
  endfacet
  facet normal 0 0 1
    outer loop
      vertex 30 6 2
      vertex 11.3 2.25167 2
      vertex 11.8385 1.83848 2
    endloop
  endfacet
  facet normal 0 0 1
    outer loop
      vertex 30 6 2
      vertex 10.6729 2.51141 2
      vertex 11.3 2.25167 2
    endloop
  endfacet
  facet normal -0 0 1
    outer loop
      vertex 0 6 2
      vertex 10.6729 2.51141 2
      vertex 30 6 2
    endloop
  endfacet
  facet normal 0 0 1
    outer loop
      vertex 10.6729 2.51141 2
      vertex 0 6 2
      vertex 10 2.6 2
    endloop
  endfacet
  facet normal 0 0 1
    outer loop
      vertex 7.48859 0.672929 2
      vertex 0 6 2
      vertex 7.4 0 2
    endloop
  endfacet
  facet normal 0 0 1
    outer loop
      vertex 7.74833 1.3 2
      vertex 0 6 2
      vertex 7.48859 0.672929 2
    endloop
  endfacet
  facet normal 0 0 1
    outer loop
      vertex 8.16152 1.83848 2
      vertex 0 6 2
      vertex 7.74833 1.3 2
    endloop
  endfacet
  facet normal 0 0 1
    outer loop
      vertex 8.7 2.25167 2
      vertex 0 6 2
      vertex 8.16152 1.83848 2
    endloop
  endfacet
  facet normal 0 0 1
    outer loop
      vertex 9.32707 2.51141 2
      vertex 0 6 2
      vertex 8.7 2.25167 2
    endloop
  endfacet
  facet normal 0 0 1
    outer loop
      vertex 10 2.6 2
      vertex 0 6 2
      vertex 9.32707 2.51141 2
    endloop
  endfacet
  facet normal -0 0 1
    outer loop
      vertex 12.5114 -0.672929 2
      vertex 30 -6 2
      vertex 12.6 0 2
    endloop
  endfacet
  facet normal -0 0 1
    outer loop
      vertex 12.2517 -1.3 2
      vertex 30 -6 2
      vertex 12.5114 -0.672929 2
    endloop
  endfacet
  facet normal -0 0 1
    outer loop
      vertex 11.8385 -1.83848 2
      vertex 30 -6 2
      vertex 12.2517 -1.3 2
    endloop
  endfacet
  facet normal -0 0 1
    outer loop
      vertex 11.3 -2.25167 2
      vertex 30 -6 2
      vertex 11.8385 -1.83848 2
    endloop
  endfacet
  facet normal -0 0 1
    outer loop
      vertex 10.6729 -2.51141 2
      vertex 30 -6 2
      vertex 11.3 -2.25167 2
    endloop
  endfacet
  facet normal 0 0 1
    outer loop
      vertex 0 -6 2
      vertex 10.6729 -2.51141 2
      vertex 10 -2.6 2
    endloop
  endfacet
  facet normal 0 0 1
    outer loop
      vertex 0 -6 2
      vertex 10 -2.6 2
      vertex 9.32707 -2.51141 2
    endloop
  endfacet
  facet normal 0 0 1
    outer loop
      vertex 0 -6 2
      vertex 7.4 0 2
      vertex 0 6 2
    endloop
  endfacet
  facet normal 0 0 1
    outer loop
      vertex 7.4 0 2
      vertex 0 -6 2
      vertex 7.48859 -0.672929 2
    endloop
  endfacet
  facet normal 0 0 1
    outer loop
      vertex 7.48859 -0.672929 2
      vertex 0 -6 2
      vertex 7.74833 -1.3 2
    endloop
  endfacet
  facet normal 0 0 1
    outer loop
      vertex 10.6729 -2.51141 2
      vertex 0 -6 2
      vertex 30 -6 2
    endloop
  endfacet
  facet normal 0 0 1
    outer loop
      vertex 8.7 -2.25167 2
      vertex 0 -6 2
      vertex 9.32707 -2.51141 2
    endloop
  endfacet
  facet normal 0 0 1
    outer loop
      vertex 8.16152 -1.83848 2
      vertex 0 -6 2
      vertex 8.7 -2.25167 2
    endloop
  endfacet
  facet normal 0 0 1
    outer loop
      vertex 7.74833 -1.3 2
      vertex 0 -6 2
      vertex 8.16152 -1.83848 2
    endloop
  endfacet
  facet normal 0 0 -1
    outer loop
      vertex 30 -6 -2
      vertex 12.6 0 -2
      vertex 30 6 -2
    endloop
  endfacet
  facet normal 0 0 -1
    outer loop
      vertex 30 -6 -2
      vertex 12.5114 -0.672929 -2
      vertex 12.6 0 -2
    endloop
  endfacet
  facet normal 0 0 -1
    outer loop
      vertex 30 -6 -2
      vertex 12.2517 -1.3 -2
      vertex 12.5114 -0.672929 -2
    endloop
  endfacet
  facet normal 0 0 -1
    outer loop
      vertex 30 -6 -2
      vertex 11.8385 -1.83848 -2
      vertex 12.2517 -1.3 -2
    endloop
  endfacet
  facet normal 0 0 -1
    outer loop
      vertex 30 -6 -2
      vertex 11.3 -2.25167 -2
      vertex 11.8385 -1.83848 -2
    endloop
  endfacet
  facet normal 0 0 -1
    outer loop
      vertex 30 -6 -2
      vertex 10.6729 -2.51141 -2
      vertex 11.3 -2.25167 -2
    endloop
  endfacet
  facet normal 0 0 -1
    outer loop
      vertex 0 -6 -2
      vertex 10.6729 -2.51141 -2
      vertex 30 -6 -2
    endloop
  endfacet
  facet normal 0 0 -1
    outer loop
      vertex 10.6729 -2.51141 -2
      vertex 0 -6 -2
      vertex 10 -2.6 -2
    endloop
  endfacet
  facet normal -0 0 -1
    outer loop
      vertex 7.48859 -0.672929 -2
      vertex 0 -6 -2
      vertex 7.4 0 -2
    endloop
  endfacet
  facet normal -0 0 -1
    outer loop
      vertex 7.74833 -1.3 -2
      vertex 0 -6 -2
      vertex 7.48859 -0.672929 -2
    endloop
  endfacet
  facet normal -0 0 -1
    outer loop
      vertex 8.16152 -1.83848 -2
      vertex 0 -6 -2
      vertex 7.74833 -1.3 -2
    endloop
  endfacet
  facet normal -0 0 -1
    outer loop
      vertex 8.7 -2.25167 -2
      vertex 0 -6 -2
      vertex 8.16152 -1.83848 -2
    endloop
  endfacet
  facet normal -0 0 -1
    outer loop
      vertex 9.32707 -2.51141 -2
      vertex 0 -6 -2
      vertex 8.7 -2.25167 -2
    endloop
  endfacet
  facet normal -0 0 -1
    outer loop
      vertex 10 -2.6 -2
      vertex 0 -6 -2
      vertex 9.32707 -2.51141 -2
    endloop
  endfacet
  facet normal 0 0 -1
    outer loop
      vertex 12.5114 0.672929 -2
      vertex 30 6 -2
      vertex 12.6 0 -2
    endloop
  endfacet
  facet normal 0 0 -1
    outer loop
      vertex 12.2517 1.3 -2
      vertex 30 6 -2
      vertex 12.5114 0.672929 -2
    endloop
  endfacet
  facet normal 0 0 -1
    outer loop
      vertex 11.8385 1.83848 -2
      vertex 30 6 -2
      vertex 12.2517 1.3 -2
    endloop
  endfacet
  facet normal 0 0 -1
    outer loop
      vertex 11.3 2.25167 -2
      vertex 30 6 -2
      vertex 11.8385 1.83848 -2
    endloop
  endfacet
  facet normal 0 0 -1
    outer loop
      vertex 10.6729 2.51141 -2
      vertex 30 6 -2
      vertex 11.3 2.25167 -2
    endloop
  endfacet
  facet normal 0 0 -1
    outer loop
      vertex 0 6 -2
      vertex 10.6729 2.51141 -2
      vertex 10 2.6 -2
    endloop
  endfacet
  facet normal 0 0 -1
    outer loop
      vertex 0 6 -2
      vertex 10 2.6 -2
      vertex 9.32707 2.51141 -2
    endloop
  endfacet
  facet normal 0 0 -1
    outer loop
      vertex 0 6 -2
      vertex 7.4 0 -2
      vertex 0 -6 -2
    endloop
  endfacet
  facet normal 0 0 -1
    outer loop
      vertex 7.4 0 -2
      vertex 0 6 -2
      vertex 7.48859 0.672929 -2
    endloop
  endfacet
  facet normal 0 0 -1
    outer loop
      vertex 7.48859 0.672929 -2
      vertex 0 6 -2
      vertex 7.74833 1.3 -2
    endloop
  endfacet
  facet normal 0 0 -1
    outer loop
      vertex 10.6729 2.51141 -2
      vertex 0 6 -2
      vertex 30 6 -2
    endloop
  endfacet
  facet normal 0 0 -1
    outer loop
      vertex 8.7 2.25167 -2
      vertex 0 6 -2
      vertex 9.32707 2.51141 -2
    endloop
  endfacet
  facet normal 0 0 -1
    outer loop
      vertex 8.16152 1.83848 -2
      vertex 0 6 -2
      vertex 8.7 2.25167 -2
    endloop
  endfacet
  facet normal 0 0 -1
    outer loop
      vertex 7.74833 1.3 -2
      vertex 0 6 -2
      vertex 8.16152 1.83848 -2
    endloop
  endfacet
  facet normal -1 0 0
    outer loop
      vertex 0 -6 -2
      vertex 0 6 2
      vertex 0 6 -2
    endloop
  endfacet
  facet normal -1 -0 0
    outer loop
      vertex 0 6 2
      vertex 0 -6 -2
      vertex 0 -6 2
    endloop
  endfacet
  facet normal 0 1 -0
    outer loop
      vertex 30 6 -2
      vertex 0 6 2
      vertex 30 6 2
    endloop
  endfacet
  facet normal 0 1 0
    outer loop
      vertex 0 6 2
      vertex 30 6 -2
      vertex 0 6 -2
    endloop
  endfacet
  facet normal 0 -1 0
    outer loop
      vertex 0 -6 -2
      vertex 30 -6 2
      vertex 0 -6 2
    endloop
  endfacet
  facet normal 0 -1 -0
    outer loop
      vertex 30 -6 2
      vertex 0 -6 -2
      vertex 30 -6 -2
    endloop
  endfacet
  facet normal 0.958207 0.126152 -0.25676
    outer loop
      vertex 7.24249 -0.738873 1.18249
      vertex 7.04082 -0.792909 0.403325
      vertex 6.93643 0 0.403325
    endloop
  endfacet
  facet normal 0.958207 0.126158 -0.256755
    outer loop
      vertex 7.14521 0 1.18249
      vertex 7.24249 -0.738873 1.18249
      vertex 6.93643 0 0.403325
    endloop
  endfacet
  facet normal 0.801818 -0.332126 -0.496769
    outer loop
      vertex 7.6433 1.04643 1.6238
      vertex 7.48859 0.672929 1.6238
      vertex 7.24249 0.738873 1.18249
    endloop
  endfacet
  facet normal 0.126158 -0.95821 -0.256743
    outer loop
      vertex 10 3.06356 0.403325
      vertex 10 2.85479 1.18249
      vertex 9.26113 2.75751 1.18249
    endloop
  endfacet
  facet normal -0.528417 -0.68847 -0.496774
    outer loop
      vertex 11.4274 2.47232 1.18249
      vertex 11.5177 2.08458 1.6238
      vertex 11.3 2.25167 1.6238
    endloop
  endfacet
  facet normal -0.528345 -0.688497 -0.496813
    outer loop
      vertex 11.5177 2.08458 1.6238
      vertex 11.4274 2.47232 1.18249
      vertex 12.0186 2.01864 1.18249
    endloop
  endfacet
  facet normal -0.528274 0.688624 0.496713
    outer loop
      vertex 12.0186 -2.01864 -1.18249
      vertex 11.8385 -1.83848 -1.6238
      vertex 11.5177 -2.08458 -1.6238
    endloop
  endfacet
  facet normal 0.528326 0.688541 -0.496773
    outer loop
      vertex 8.16152 -1.83848 1.6238
      vertex 8.48225 -2.08458 1.6238
      vertex 7.98136 -2.01864 1.18249
    endloop
  endfacet
  facet normal -0.958196 0.126163 -0.256795
    outer loop
      vertex 13.0636 0 0.403325
      vertex 12.9592 -0.792909 0.403325
      vertex 12.7575 -0.738873 1.18249
    endloop
  endfacet
  facet normal -0.588331 0.766758 0.256804
    outer loop
      vertex 12.1663 -2.16627 -0.403325
      vertex 12.0186 -2.01864 -1.18249
      vertex 11.5318 -2.65312 -0.403325
    endloop
  endfacet
  facet normal -0.528274 -0.688624 0.496713
    outer loop
      vertex 11.8385 1.83848 -1.6238
      vertex 12.0186 2.01864 -1.18249
      vertex 11.5177 2.08458 -1.6238
    endloop
  endfacet
  facet normal -0.860447 -0.113348 -0.496772
    outer loop
      vertex 12.7575 0.738873 1.18249
      vertex 12.5642 0.272114 1.6238
      vertex 12.5114 0.672929 1.6238
    endloop
  endfacet
  facet normal 0.892906 0.369865 -0.256746
    outer loop
      vertex 7.52768 -1.42739 1.18249
      vertex 7.34688 -1.53178 0.403325
      vertex 7.04082 -0.792909 0.403325
    endloop
  endfacet
  facet normal 0.991445 -0.130528 0
    outer loop
      vertex 6.93643 0 0.403325
      vertex 7.04082 0.792909 -0.403325
      vertex 7.04082 0.792909 0.403325
    endloop
  endfacet
  facet normal 0.991445 -0.130528 0
    outer loop
      vertex 7.04082 0.792909 -0.403325
      vertex 6.93643 0 0.403325
      vertex 6.93643 0 -0.403325
    endloop
  endfacet
  facet normal 0.126158 -0.95821 0.256743
    outer loop
      vertex 10 2.85479 -1.18249
      vertex 10 3.06356 -0.403325
      vertex 9.26113 2.75751 -1.18249
    endloop
  endfacet
  facet normal 0.860453 -0.113267 -0.496782
    outer loop
      vertex 7.14521 0 1.18249
      vertex 7.43582 0.272114 1.6238
      vertex 7.4 0 1.6238
    endloop
  endfacet
  facet normal 0.860456 -0.113288 -0.496771
    outer loop
      vertex 7.43582 0.272114 1.6238
      vertex 7.14521 0 1.18249
      vertex 7.24249 0.738873 1.18249
    endloop
  endfacet
  facet normal -0.528345 0.688497 -0.496813
    outer loop
      vertex 11.4274 -2.47232 1.18249
      vertex 11.5177 -2.08458 1.6238
      vertex 12.0186 -2.01864 1.18249
    endloop
  endfacet
  facet normal -0.528417 0.68847 -0.496774
    outer loop
      vertex 11.5177 -2.08458 1.6238
      vertex 11.4274 -2.47232 1.18249
      vertex 11.3 -2.25167 1.6238
    endloop
  endfacet
  facet normal -0.801825 0.332107 0.49677
    outer loop
      vertex 12.7575 -0.738873 -1.18249
      vertex 12.5114 -0.672929 -1.6238
      vertex 12.3567 -1.04643 -1.6238
    endloop
  endfacet
  facet normal -0.958198 -0.126182 -0.256777
    outer loop
      vertex 13.0636 0 0.403325
      vertex 12.8548 0 1.18249
      vertex 12.7575 0.738873 1.18249
    endloop
  endfacet
  facet normal -0.36986 -0.892909 -0.256743
    outer loop
      vertex 10.7929 2.95918 0.403325
      vertex 11.4274 2.47232 1.18249
      vertex 10.7389 2.75751 1.18249
    endloop
  endfacet
  facet normal -0.801893 -0.332053 -0.496698
    outer loop
      vertex 12.4723 1.42739 1.18249
      vertex 12.3567 1.04643 1.6238
      vertex 12.2517 1.3 1.6238
    endloop
  endfacet
  facet normal -0.801826 -0.332135 -0.496751
    outer loop
      vertex 12.3567 1.04643 1.6238
      vertex 12.4723 1.42739 1.18249
      vertex 12.7575 0.738873 1.18249
    endloop
  endfacet
  facet normal -0.860468 -0.113313 -0.496744
    outer loop
      vertex 12.8548 0 1.18249
      vertex 12.5642 0.272114 1.6238
      vertex 12.7575 0.738873 1.18249
    endloop
  endfacet
  facet normal -0.86045 -0.113203 -0.4968
    outer loop
      vertex 12.5642 0.272114 1.6238
      vertex 12.8548 0 1.18249
      vertex 12.6 0 1.6238
    endloop
  endfacet
  facet normal -0.892888 -0.369906 0.256748
    outer loop
      vertex 12.9592 0.792909 -0.403325
      vertex 12.6531 1.53178 -0.403325
      vertex 12.4723 1.42739 -1.18249
    endloop
  endfacet
  facet normal -0.801893 -0.332053 0.496698
    outer loop
      vertex 12.3567 1.04643 -1.6238
      vertex 12.4723 1.42739 -1.18249
      vertex 12.2517 1.3 -1.6238
    endloop
  endfacet
  facet normal -0.801826 -0.332135 0.496751
    outer loop
      vertex 12.4723 1.42739 -1.18249
      vertex 12.3567 1.04643 -1.6238
      vertex 12.7575 0.738873 -1.18249
    endloop
  endfacet
  facet normal 0.76676 0.588353 0.256747
    outer loop
      vertex 7.98136 -2.01864 -1.18249
      vertex 7.52768 -1.42739 -1.18249
      vertex 7.34688 -1.53178 -0.403325
    endloop
  endfacet
  facet normal 0.892906 -0.369865 -0.256746
    outer loop
      vertex 7.34688 1.53178 0.403325
      vertex 7.52768 1.42739 1.18249
      vertex 7.04082 0.792909 0.403325
    endloop
  endfacet
  facet normal 0.860458 -0.113285 -0.496769
    outer loop
      vertex 7.48859 0.672929 1.6238
      vertex 7.43582 0.272114 1.6238
      vertex 7.24249 0.738873 1.18249
    endloop
  endfacet
  facet normal 0.528329 -0.688535 -0.496777
    outer loop
      vertex 8.57261 2.47232 1.18249
      vertex 8.48225 2.08458 1.6238
      vertex 7.98136 2.01864 1.18249
    endloop
  endfacet
  facet normal 0.528342 -0.68853 -0.49677
    outer loop
      vertex 8.48225 2.08458 1.6238
      vertex 8.57261 2.47232 1.18249
      vertex 8.7 2.25167 1.6238
    endloop
  endfacet
  facet normal 0.892908 -0.369851 -0.25676
    outer loop
      vertex 7.52768 1.42739 1.18249
      vertex 7.24249 0.738873 1.18249
      vertex 7.04082 0.792909 0.403325
    endloop
  endfacet
  facet normal -0.369853 0.89291 0.25675
    outer loop
      vertex 11.5318 -2.65312 -0.403325
      vertex 11.4274 -2.47232 -1.18249
      vertex 10.7929 -2.95918 -0.403325
    endloop
  endfacet
  facet normal -0.958196 0.126163 0.256795
    outer loop
      vertex 12.9592 -0.792909 -0.403325
      vertex 13.0636 0 -0.403325
      vertex 12.7575 -0.738873 -1.18249
    endloop
  endfacet
  facet normal -0.79339 0.608713 0
    outer loop
      vertex 12.1663 -2.16627 -0.403325
      vertex 12.6531 -1.53178 0.403325
      vertex 12.6531 -1.53178 -0.403325
    endloop
  endfacet
  facet normal -0.79339 0.608713 0
    outer loop
      vertex 12.6531 -1.53178 0.403325
      vertex 12.1663 -2.16627 -0.403325
      vertex 12.1663 -2.16627 0.403325
    endloop
  endfacet
  facet normal -0.892896 0.369859 -0.256791
    outer loop
      vertex 12.7575 -0.738873 1.18249
      vertex 12.9592 -0.792909 0.403325
      vertex 12.4723 -1.42739 1.18249
    endloop
  endfacet
  facet normal -0.528274 0.688624 -0.496713
    outer loop
      vertex 11.8385 -1.83848 1.6238
      vertex 12.0186 -2.01864 1.18249
      vertex 11.5177 -2.08458 1.6238
    endloop
  endfacet
  facet normal 0.958207 -0.126152 0.25676
    outer loop
      vertex 7.24249 0.738873 -1.18249
      vertex 7.04082 0.792909 -0.403325
      vertex 6.93643 0 -0.403325
    endloop
  endfacet
  facet normal -0.126153 -0.958211 0.256744
    outer loop
      vertex 10.7389 2.75751 -1.18249
      vertex 10 3.06356 -0.403325
      vertex 10 2.85479 -1.18249
    endloop
  endfacet
  facet normal -0.588331 -0.766758 0.256804
    outer loop
      vertex 12.0186 2.01864 -1.18249
      vertex 12.1663 2.16627 -0.403325
      vertex 11.5318 2.65312 -0.403325
    endloop
  endfacet
  facet normal -0.608746 -0.793365 0
    outer loop
      vertex 11.5318 2.65312 -0.403325
      vertex 12.1663 2.16627 0.403325
      vertex 11.5318 2.65312 0.403325
    endloop
  endfacet
  facet normal -0.608746 -0.793365 -0
    outer loop
      vertex 12.1663 2.16627 0.403325
      vertex 11.5318 2.65312 -0.403325
      vertex 12.1663 2.16627 -0.403325
    endloop
  endfacet
  facet normal -0.76678 -0.588297 -0.256818
    outer loop
      vertex 12.1663 2.16627 0.403325
      vertex 12.6531 1.53178 0.403325
      vertex 12.0186 2.01864 1.18249
    endloop
  endfacet
  facet normal -0.801825 -0.332107 -0.49677
    outer loop
      vertex 12.7575 0.738873 1.18249
      vertex 12.5114 0.672929 1.6238
      vertex 12.3567 1.04643 1.6238
    endloop
  endfacet
  facet normal 0.76676 0.588353 -0.256747
    outer loop
      vertex 7.52768 -1.42739 1.18249
      vertex 7.98136 -2.01864 1.18249
      vertex 7.34688 -1.53178 0.403325
    endloop
  endfacet
  facet normal 0.688519 0.528358 -0.496769
    outer loop
      vertex 7.91542 -1.51774 1.6238
      vertex 7.52768 -1.42739 1.18249
      vertex 7.74833 -1.3 1.6238
    endloop
  endfacet
  facet normal 0.688531 0.528326 -0.496786
    outer loop
      vertex 7.52768 -1.42739 1.18249
      vertex 7.91542 -1.51774 1.6238
      vertex 7.98136 -2.01864 1.18249
    endloop
  endfacet
  facet normal 0.801818 0.332126 -0.496769
    outer loop
      vertex 7.48859 -0.672929 1.6238
      vertex 7.6433 -1.04643 1.6238
      vertex 7.24249 -0.738873 1.18249
    endloop
  endfacet
  facet normal 0.766764 0.588345 -0.256755
    outer loop
      vertex 7.98136 -2.01864 1.18249
      vertex 7.83373 -2.16627 0.403325
      vertex 7.34688 -1.53178 0.403325
    endloop
  endfacet
  facet normal 0.766764 0.588345 0.256755
    outer loop
      vertex 7.83373 -2.16627 -0.403325
      vertex 7.98136 -2.01864 -1.18249
      vertex 7.34688 -1.53178 -0.403325
    endloop
  endfacet
  facet normal 0.369849 -0.892908 0.256761
    outer loop
      vertex 9.26113 2.75751 -1.18249
      vertex 9.20709 2.95918 -0.403325
      vertex 8.57261 2.47232 -1.18249
    endloop
  endfacet
  facet normal 0.76676 -0.588353 -0.256747
    outer loop
      vertex 7.98136 2.01864 1.18249
      vertex 7.52768 1.42739 1.18249
      vertex 7.34688 1.53178 0.403325
    endloop
  endfacet
  facet normal 0.588353 0.76676 0.256747
    outer loop
      vertex 8.46822 -2.65312 -0.403325
      vertex 8.57261 -2.47232 -1.18249
      vertex 7.98136 -2.01864 -1.18249
    endloop
  endfacet
  facet normal 0.79336 0.608753 0
    outer loop
      vertex 7.83373 -2.16627 0.403325
      vertex 7.34688 -1.53178 -0.403325
      vertex 7.34688 -1.53178 0.403325
    endloop
  endfacet
  facet normal 0.79336 0.608753 0
    outer loop
      vertex 7.34688 -1.53178 -0.403325
      vertex 7.83373 -2.16627 0.403325
      vertex 7.83373 -2.16627 -0.403325
    endloop
  endfacet
  facet normal 0.12614 0.958208 -0.25676
    outer loop
      vertex 9.26113 -2.75751 1.18249
      vertex 10 -3.06356 0.403325
      vertex 9.20709 -2.95918 0.403325
    endloop
  endfacet
  facet normal -0.588384 0.766735 -0.256753
    outer loop
      vertex 12.0186 -2.01864 1.18249
      vertex 11.5318 -2.65312 0.403325
      vertex 11.4274 -2.47232 1.18249
    endloop
  endfacet
  facet normal -0.86045 -0.113203 0.4968
    outer loop
      vertex 12.8548 0 -1.18249
      vertex 12.5642 0.272114 -1.6238
      vertex 12.6 0 -1.6238
    endloop
  endfacet
  facet normal -0.860468 -0.113313 0.496744
    outer loop
      vertex 12.5642 0.272114 -1.6238
      vertex 12.8548 0 -1.18249
      vertex 12.7575 0.738873 -1.18249
    endloop
  endfacet
  facet normal -0.76678 -0.588297 0.256818
    outer loop
      vertex 12.6531 1.53178 -0.403325
      vertex 12.1663 2.16627 -0.403325
      vertex 12.0186 2.01864 -1.18249
    endloop
  endfacet
  facet normal -0.86045 0.113203 -0.4968
    outer loop
      vertex 12.8548 0 1.18249
      vertex 12.5642 -0.272114 1.6238
      vertex 12.6 0 1.6238
    endloop
  endfacet
  facet normal -0.860468 0.113313 -0.496744
    outer loop
      vertex 12.5642 -0.272114 1.6238
      vertex 12.8548 0 1.18249
      vertex 12.7575 -0.738873 1.18249
    endloop
  endfacet
  facet normal -0.958198 0.126182 -0.256777
    outer loop
      vertex 12.8548 0 1.18249
      vertex 13.0636 0 0.403325
      vertex 12.7575 -0.738873 1.18249
    endloop
  endfacet
  facet normal -0.860447 0.113348 -0.496772
    outer loop
      vertex 12.5114 -0.672929 1.6238
      vertex 12.5642 -0.272114 1.6238
      vertex 12.7575 -0.738873 1.18249
    endloop
  endfacet
  facet normal -0.113288 -0.860451 0.49678
    outer loop
      vertex 10.6729 2.51141 -1.6238
      vertex 10.7389 2.75751 -1.18249
      vertex 10.2721 2.56418 -1.6238
    endloop
  endfacet
  facet normal -0.113272 -0.860452 0.496781
    outer loop
      vertex 10.2721 2.56418 -1.6238
      vertex 10 2.85479 -1.18249
      vertex 10 2.6 -1.6238
    endloop
  endfacet
  facet normal -0.113283 -0.860454 0.496776
    outer loop
      vertex 10 2.85479 -1.18249
      vertex 10.2721 2.56418 -1.6238
      vertex 10.7389 2.75751 -1.18249
    endloop
  endfacet
  facet normal -0.36986 -0.892909 0.256743
    outer loop
      vertex 11.4274 2.47232 -1.18249
      vertex 10.7929 2.95918 -0.403325
      vertex 10.7389 2.75751 -1.18249
    endloop
  endfacet
  facet normal -0.588331 -0.766758 -0.256804
    outer loop
      vertex 12.1663 2.16627 0.403325
      vertex 12.0186 2.01864 1.18249
      vertex 11.5318 2.65312 0.403325
    endloop
  endfacet
  facet normal -0.688581 -0.52834 -0.496701
    outer loop
      vertex 12.0186 2.01864 1.18249
      vertex 12.0846 1.51774 1.6238
      vertex 11.8385 1.83848 1.6238
    endloop
  endfacet
  facet normal -0.588384 -0.766735 -0.256753
    outer loop
      vertex 11.5318 2.65312 0.403325
      vertex 12.0186 2.01864 1.18249
      vertex 11.4274 2.47232 1.18249
    endloop
  endfacet
  facet normal 0.892908 0.369851 0.25676
    outer loop
      vertex 7.52768 -1.42739 -1.18249
      vertex 7.24249 -0.738873 -1.18249
      vertex 7.04082 -0.792909 -0.403325
    endloop
  endfacet
  facet normal 0.79336 -0.608753 0
    outer loop
      vertex 7.34688 1.53178 0.403325
      vertex 7.83373 2.16627 -0.403325
      vertex 7.83373 2.16627 0.403325
    endloop
  endfacet
  facet normal 0.79336 -0.608753 0
    outer loop
      vertex 7.83373 2.16627 -0.403325
      vertex 7.34688 1.53178 0.403325
      vertex 7.34688 1.53178 -0.403325
    endloop
  endfacet
  facet normal 0.12614 -0.958208 -0.25676
    outer loop
      vertex 10 3.06356 0.403325
      vertex 9.26113 2.75751 1.18249
      vertex 9.20709 2.95918 0.403325
    endloop
  endfacet
  facet normal 0.923875 -0.382694 0
    outer loop
      vertex 7.04082 0.792909 0.403325
      vertex 7.34688 1.53178 -0.403325
      vertex 7.34688 1.53178 0.403325
    endloop
  endfacet
  facet normal 0.923875 -0.382694 0
    outer loop
      vertex 7.34688 1.53178 -0.403325
      vertex 7.04082 0.792909 0.403325
      vertex 7.04082 0.792909 -0.403325
    endloop
  endfacet
  facet normal 0.860453 0.113267 -0.496782
    outer loop
      vertex 7.43582 -0.272114 1.6238
      vertex 7.14521 0 1.18249
      vertex 7.4 0 1.6238
    endloop
  endfacet
  facet normal 0.860456 0.113288 -0.496771
    outer loop
      vertex 7.14521 0 1.18249
      vertex 7.43582 -0.272114 1.6238
      vertex 7.24249 -0.738873 1.18249
    endloop
  endfacet
  facet normal 0.860458 0.113285 -0.496769
    outer loop
      vertex 7.43582 -0.272114 1.6238
      vertex 7.48859 -0.672929 1.6238
      vertex 7.24249 -0.738873 1.18249
    endloop
  endfacet
  facet normal -0.588384 0.766735 0.256753
    outer loop
      vertex 11.5318 -2.65312 -0.403325
      vertex 12.0186 -2.01864 -1.18249
      vertex 11.4274 -2.47232 -1.18249
    endloop
  endfacet
  facet normal 0.608753 0.79336 -0
    outer loop
      vertex 8.46822 -2.65312 -0.403325
      vertex 7.83373 -2.16627 0.403325
      vertex 8.46822 -2.65312 0.403325
    endloop
  endfacet
  facet normal 0.608753 0.79336 0
    outer loop
      vertex 7.83373 -2.16627 0.403325
      vertex 8.46822 -2.65312 -0.403325
      vertex 7.83373 -2.16627 -0.403325
    endloop
  endfacet
  facet normal -0.126153 0.958211 -0.256744
    outer loop
      vertex 10 -2.85479 1.18249
      vertex 10.7389 -2.75751 1.18249
      vertex 10 -3.06356 0.403325
    endloop
  endfacet
  facet normal -0.113288 0.860451 0.49678
    outer loop
      vertex 10.7389 -2.75751 -1.18249
      vertex 10.6729 -2.51141 -1.6238
      vertex 10.2721 -2.56418 -1.6238
    endloop
  endfacet
  facet normal -0.801826 0.332135 -0.496751
    outer loop
      vertex 12.4723 -1.42739 1.18249
      vertex 12.3567 -1.04643 1.6238
      vertex 12.7575 -0.738873 1.18249
    endloop
  endfacet
  facet normal -0.801893 0.332053 -0.496698
    outer loop
      vertex 12.3567 -1.04643 1.6238
      vertex 12.4723 -1.42739 1.18249
      vertex 12.2517 -1.3 1.6238
    endloop
  endfacet
  facet normal -0.382681 0.923881 0
    outer loop
      vertex 11.5318 -2.65312 -0.403325
      vertex 10.7929 -2.95918 0.403325
      vertex 11.5318 -2.65312 0.403325
    endloop
  endfacet
  facet normal -0.382681 0.923881 0
    outer loop
      vertex 10.7929 -2.95918 0.403325
      vertex 11.5318 -2.65312 -0.403325
      vertex 10.7929 -2.95918 -0.403325
    endloop
  endfacet
  facet normal -0.892896 -0.369859 0.256791
    outer loop
      vertex 12.7575 0.738873 -1.18249
      vertex 12.9592 0.792909 -0.403325
      vertex 12.4723 1.42739 -1.18249
    endloop
  endfacet
  facet normal -0.923858 0.382736 0
    outer loop
      vertex 12.6531 -1.53178 -0.403325
      vertex 12.9592 -0.792909 0.403325
      vertex 12.9592 -0.792909 -0.403325
    endloop
  endfacet
  facet normal -0.923858 0.382736 0
    outer loop
      vertex 12.9592 -0.792909 0.403325
      vertex 12.6531 -1.53178 -0.403325
      vertex 12.6531 -1.53178 0.403325
    endloop
  endfacet
  facet normal -0.892888 0.369906 -0.256748
    outer loop
      vertex 12.9592 -0.792909 0.403325
      vertex 12.6531 -1.53178 0.403325
      vertex 12.4723 -1.42739 1.18249
    endloop
  endfacet
  facet normal -0.588331 0.766758 -0.256804
    outer loop
      vertex 12.0186 -2.01864 1.18249
      vertex 12.1663 -2.16627 0.403325
      vertex 11.5318 -2.65312 0.403325
    endloop
  endfacet
  facet normal -0.113288 0.860451 -0.49678
    outer loop
      vertex 10.6729 -2.51141 1.6238
      vertex 10.7389 -2.75751 1.18249
      vertex 10.2721 -2.56418 1.6238
    endloop
  endfacet
  facet normal -0.588384 -0.766735 0.256753
    outer loop
      vertex 12.0186 2.01864 -1.18249
      vertex 11.5318 2.65312 -0.403325
      vertex 11.4274 2.47232 -1.18249
    endloop
  endfacet
  facet normal -0.126142 -0.95821 0.256754
    outer loop
      vertex 10.7389 2.75751 -1.18249
      vertex 10.7929 2.95918 -0.403325
      vertex 10 3.06356 -0.403325
    endloop
  endfacet
  facet normal -0.33212 -0.801801 0.496801
    outer loop
      vertex 11.0464 2.3567 -1.6238
      vertex 10.7389 2.75751 -1.18249
      vertex 10.6729 2.51141 -1.6238
    endloop
  endfacet
  facet normal 0.332127 -0.801819 0.496767
    outer loop
      vertex 9.32707 2.51141 -1.6238
      vertex 9.26113 2.75751 -1.18249
      vertex 8.95357 2.3567 -1.6238
    endloop
  endfacet
  facet normal 0.528329 -0.688535 0.496777
    outer loop
      vertex 8.48225 2.08458 -1.6238
      vertex 8.57261 2.47232 -1.18249
      vertex 7.98136 2.01864 -1.18249
    endloop
  endfacet
  facet normal 0.528342 -0.68853 0.49677
    outer loop
      vertex 8.57261 2.47232 -1.18249
      vertex 8.48225 2.08458 -1.6238
      vertex 8.7 2.25167 -1.6238
    endloop
  endfacet
  facet normal 0.113288 -0.860456 0.496771
    outer loop
      vertex 9.72789 2.56418 -1.6238
      vertex 10 2.85479 -1.18249
      vertex 9.26113 2.75751 -1.18249
    endloop
  endfacet
  facet normal 0.113268 -0.860452 0.496782
    outer loop
      vertex 10 2.85479 -1.18249
      vertex 9.72789 2.56418 -1.6238
      vertex 10 2.6 -1.6238
    endloop
  endfacet
  facet normal -0.688546 -0.52836 -0.49673
    outer loop
      vertex 12.4723 1.42739 1.18249
      vertex 12.0846 1.51774 1.6238
      vertex 12.0186 2.01864 1.18249
    endloop
  endfacet
  facet normal -0.688531 -0.528399 -0.496709
    outer loop
      vertex 12.0846 1.51774 1.6238
      vertex 12.4723 1.42739 1.18249
      vertex 12.2517 1.3 1.6238
    endloop
  endfacet
  facet normal -0.79339 -0.608713 0
    outer loop
      vertex 12.6531 1.53178 -0.403325
      vertex 12.1663 2.16627 0.403325
      vertex 12.1663 2.16627 -0.403325
    endloop
  endfacet
  facet normal -0.79339 -0.608713 0
    outer loop
      vertex 12.1663 2.16627 0.403325
      vertex 12.6531 1.53178 -0.403325
      vertex 12.6531 1.53178 0.403325
    endloop
  endfacet
  facet normal 0.801818 -0.332126 0.496769
    outer loop
      vertex 7.48859 0.672929 -1.6238
      vertex 7.6433 1.04643 -1.6238
      vertex 7.24249 0.738873 -1.18249
    endloop
  endfacet
  facet normal 0.801818 0.33212 0.496773
    outer loop
      vertex 7.52768 -1.42739 -1.18249
      vertex 7.6433 -1.04643 -1.6238
      vertex 7.24249 -0.738873 -1.18249
    endloop
  endfacet
  facet normal 0.80182 0.332118 0.496771
    outer loop
      vertex 7.6433 -1.04643 -1.6238
      vertex 7.52768 -1.42739 -1.18249
      vertex 7.74833 -1.3 -1.6238
    endloop
  endfacet
  facet normal 0.958207 0.126158 0.256755
    outer loop
      vertex 7.24249 -0.738873 -1.18249
      vertex 7.14521 0 -1.18249
      vertex 6.93643 0 -0.403325
    endloop
  endfacet
  facet normal 0.126158 0.95821 0.256743
    outer loop
      vertex 10 -3.06356 -0.403325
      vertex 10 -2.85479 -1.18249
      vertex 9.26113 -2.75751 -1.18249
    endloop
  endfacet
  facet normal 0.130516 0.991446 -0
    outer loop
      vertex 10 -3.06356 -0.403325
      vertex 9.20709 -2.95918 0.403325
      vertex 10 -3.06356 0.403325
    endloop
  endfacet
  facet normal 0.130516 0.991446 0
    outer loop
      vertex 9.20709 -2.95918 0.403325
      vertex 10 -3.06356 -0.403325
      vertex 9.20709 -2.95918 -0.403325
    endloop
  endfacet
  facet normal 0.528329 0.688535 0.496777
    outer loop
      vertex 8.57261 -2.47232 -1.18249
      vertex 8.48225 -2.08458 -1.6238
      vertex 7.98136 -2.01864 -1.18249
    endloop
  endfacet
  facet normal 0.528342 0.68853 0.49677
    outer loop
      vertex 8.48225 -2.08458 -1.6238
      vertex 8.57261 -2.47232 -1.18249
      vertex 8.7 -2.25167 -1.6238
    endloop
  endfacet
  facet normal 0.892906 0.369865 0.256746
    outer loop
      vertex 7.34688 -1.53178 -0.403325
      vertex 7.52768 -1.42739 -1.18249
      vertex 7.04082 -0.792909 -0.403325
    endloop
  endfacet
  facet normal 0.588345 0.766764 -0.256755
    outer loop
      vertex 7.98136 -2.01864 1.18249
      vertex 8.46822 -2.65312 0.403325
      vertex 7.83373 -2.16627 0.403325
    endloop
  endfacet
  facet normal 0.12614 -0.958208 0.25676
    outer loop
      vertex 9.26113 2.75751 -1.18249
      vertex 10 3.06356 -0.403325
      vertex 9.20709 2.95918 -0.403325
    endloop
  endfacet
  facet normal 0.991445 0.130528 0
    outer loop
      vertex 7.04082 -0.792909 0.403325
      vertex 6.93643 0 -0.403325
      vertex 6.93643 0 0.403325
    endloop
  endfacet
  facet normal 0.991445 0.130528 0
    outer loop
      vertex 6.93643 0 -0.403325
      vertex 7.04082 -0.792909 0.403325
      vertex 7.04082 -0.792909 -0.403325
    endloop
  endfacet
  facet normal 0.958207 0.126152 0.25676
    outer loop
      vertex 7.04082 -0.792909 -0.403325
      vertex 7.24249 -0.738873 -1.18249
      vertex 6.93643 0 -0.403325
    endloop
  endfacet
  facet normal 0.113284 -0.860458 0.496768
    outer loop
      vertex 9.32707 2.51141 -1.6238
      vertex 9.72789 2.56418 -1.6238
      vertex 9.26113 2.75751 -1.18249
    endloop
  endfacet
  facet normal -0.369853 0.89291 -0.25675
    outer loop
      vertex 11.4274 -2.47232 1.18249
      vertex 11.5318 -2.65312 0.403325
      vertex 10.7929 -2.95918 0.403325
    endloop
  endfacet
  facet normal -0.126142 0.95821 -0.256754
    outer loop
      vertex 10.7389 -2.75751 1.18249
      vertex 10.7929 -2.95918 0.403325
      vertex 10 -3.06356 0.403325
    endloop
  endfacet
  facet normal 0.12614 0.958208 0.25676
    outer loop
      vertex 10 -3.06356 -0.403325
      vertex 9.26113 -2.75751 -1.18249
      vertex 9.20709 -2.95918 -0.403325
    endloop
  endfacet
  facet normal -0.33212 0.801801 0.496801
    outer loop
      vertex 10.7389 -2.75751 -1.18249
      vertex 11.0464 -2.3567 -1.6238
      vertex 10.6729 -2.51141 -1.6238
    endloop
  endfacet
  facet normal 0.113268 0.860452 0.496782
    outer loop
      vertex 9.72789 -2.56418 -1.6238
      vertex 10 -2.85479 -1.18249
      vertex 10 -2.6 -1.6238
    endloop
  endfacet
  facet normal 0.113288 0.860456 0.496771
    outer loop
      vertex 10 -2.85479 -1.18249
      vertex 9.72789 -2.56418 -1.6238
      vertex 9.26113 -2.75751 -1.18249
    endloop
  endfacet
  facet normal -0.608746 0.793365 0
    outer loop
      vertex 12.1663 -2.16627 -0.403325
      vertex 11.5318 -2.65312 0.403325
      vertex 12.1663 -2.16627 0.403325
    endloop
  endfacet
  facet normal -0.608746 0.793365 0
    outer loop
      vertex 11.5318 -2.65312 0.403325
      vertex 12.1663 -2.16627 -0.403325
      vertex 11.5318 -2.65312 -0.403325
    endloop
  endfacet
  facet normal -0.113283 0.860454 -0.496776
    outer loop
      vertex 10 -2.85479 1.18249
      vertex 10.2721 -2.56418 1.6238
      vertex 10.7389 -2.75751 1.18249
    endloop
  endfacet
  facet normal -0.113272 0.860452 -0.496781
    outer loop
      vertex 10.2721 -2.56418 1.6238
      vertex 10 -2.85479 1.18249
      vertex 10 -2.6 1.6238
    endloop
  endfacet
  facet normal -0.130517 0.991446 0
    outer loop
      vertex 10.7929 -2.95918 -0.403325
      vertex 10 -3.06356 0.403325
      vertex 10.7929 -2.95918 0.403325
    endloop
  endfacet
  facet normal -0.130517 0.991446 0
    outer loop
      vertex 10 -3.06356 0.403325
      vertex 10.7929 -2.95918 -0.403325
      vertex 10 -3.06356 -0.403325
    endloop
  endfacet
  facet normal -0.991443 0.13054 0
    outer loop
      vertex 12.9592 -0.792909 -0.403325
      vertex 13.0636 0 0.403325
      vertex 13.0636 0 -0.403325
    endloop
  endfacet
  facet normal -0.991443 0.13054 0
    outer loop
      vertex 13.0636 0 0.403325
      vertex 12.9592 -0.792909 -0.403325
      vertex 12.9592 -0.792909 0.403325
    endloop
  endfacet
  facet normal -0.892888 0.369906 0.256748
    outer loop
      vertex 12.6531 -1.53178 -0.403325
      vertex 12.9592 -0.792909 -0.403325
      vertex 12.4723 -1.42739 -1.18249
    endloop
  endfacet
  facet normal -0.86045 0.113203 0.4968
    outer loop
      vertex 12.5642 -0.272114 -1.6238
      vertex 12.8548 0 -1.18249
      vertex 12.6 0 -1.6238
    endloop
  endfacet
  facet normal -0.860468 0.113313 0.496744
    outer loop
      vertex 12.8548 0 -1.18249
      vertex 12.5642 -0.272114 -1.6238
      vertex 12.7575 -0.738873 -1.18249
    endloop
  endfacet
  facet normal -0.958198 0.126182 0.256777
    outer loop
      vertex 13.0636 0 -0.403325
      vertex 12.8548 0 -1.18249
      vertex 12.7575 -0.738873 -1.18249
    endloop
  endfacet
  facet normal -0.923858 -0.382736 0
    outer loop
      vertex 12.9592 0.792909 -0.403325
      vertex 12.6531 1.53178 0.403325
      vertex 12.6531 1.53178 -0.403325
    endloop
  endfacet
  facet normal -0.923858 -0.382736 0
    outer loop
      vertex 12.6531 1.53178 0.403325
      vertex 12.9592 0.792909 -0.403325
      vertex 12.9592 0.792909 0.403325
    endloop
  endfacet
  facet normal 0.76676 -0.588353 0.256747
    outer loop
      vertex 7.52768 1.42739 -1.18249
      vertex 7.98136 2.01864 -1.18249
      vertex 7.34688 1.53178 -0.403325
    endloop
  endfacet
  facet normal -0.892888 -0.369906 -0.256748
    outer loop
      vertex 12.6531 1.53178 0.403325
      vertex 12.9592 0.792909 0.403325
      vertex 12.4723 1.42739 1.18249
    endloop
  endfacet
  facet normal -0.766748 -0.58837 -0.256747
    outer loop
      vertex 12.6531 1.53178 0.403325
      vertex 12.4723 1.42739 1.18249
      vertex 12.0186 2.01864 1.18249
    endloop
  endfacet
  facet normal -0.688581 -0.52834 0.496701
    outer loop
      vertex 12.0846 1.51774 -1.6238
      vertex 12.0186 2.01864 -1.18249
      vertex 11.8385 1.83848 -1.6238
    endloop
  endfacet
  facet normal -0.766748 -0.58837 0.256747
    outer loop
      vertex 12.4723 1.42739 -1.18249
      vertex 12.6531 1.53178 -0.403325
      vertex 12.0186 2.01864 -1.18249
    endloop
  endfacet
  facet normal -0.126142 -0.95821 -0.256754
    outer loop
      vertex 10.7929 2.95918 0.403325
      vertex 10.7389 2.75751 1.18249
      vertex 10 3.06356 0.403325
    endloop
  endfacet
  facet normal -0.369853 -0.89291 -0.25675
    outer loop
      vertex 11.5318 2.65312 0.403325
      vertex 11.4274 2.47232 1.18249
      vertex 10.7929 2.95918 0.403325
    endloop
  endfacet
  facet normal -0.332122 -0.801801 -0.4968
    outer loop
      vertex 11.4274 2.47232 1.18249
      vertex 11.0464 2.3567 1.6238
      vertex 10.7389 2.75751 1.18249
    endloop
  endfacet
  facet normal -0.332084 -0.801832 -0.496775
    outer loop
      vertex 11.0464 2.3567 1.6238
      vertex 11.4274 2.47232 1.18249
      vertex 11.3 2.25167 1.6238
    endloop
  endfacet
  facet normal -0.113288 -0.860451 -0.49678
    outer loop
      vertex 10.7389 2.75751 1.18249
      vertex 10.6729 2.51141 1.6238
      vertex 10.2721 2.56418 1.6238
    endloop
  endfacet
  facet normal 0.860458 -0.113285 0.496769
    outer loop
      vertex 7.43582 0.272114 -1.6238
      vertex 7.48859 0.672929 -1.6238
      vertex 7.24249 0.738873 -1.18249
    endloop
  endfacet
  facet normal 0.860453 0.113267 0.496782
    outer loop
      vertex 7.14521 0 -1.18249
      vertex 7.43582 -0.272114 -1.6238
      vertex 7.4 0 -1.6238
    endloop
  endfacet
  facet normal 0.860456 0.113288 0.496771
    outer loop
      vertex 7.43582 -0.272114 -1.6238
      vertex 7.14521 0 -1.18249
      vertex 7.24249 -0.738873 -1.18249
    endloop
  endfacet
  facet normal 0.588345 0.766764 0.256755
    outer loop
      vertex 8.46822 -2.65312 -0.403325
      vertex 7.98136 -2.01864 -1.18249
      vertex 7.83373 -2.16627 -0.403325
    endloop
  endfacet
  facet normal 0.369866 0.892906 0.256746
    outer loop
      vertex 9.20709 -2.95918 -0.403325
      vertex 8.57261 -2.47232 -1.18249
      vertex 8.46822 -2.65312 -0.403325
    endloop
  endfacet
  facet normal 0.80182 0.332118 -0.496771
    outer loop
      vertex 7.52768 -1.42739 1.18249
      vertex 7.6433 -1.04643 1.6238
      vertex 7.74833 -1.3 1.6238
    endloop
  endfacet
  facet normal 0.801818 0.33212 -0.496773
    outer loop
      vertex 7.6433 -1.04643 1.6238
      vertex 7.52768 -1.42739 1.18249
      vertex 7.24249 -0.738873 1.18249
    endloop
  endfacet
  facet normal 0.892908 0.369851 -0.25676
    outer loop
      vertex 7.24249 -0.738873 1.18249
      vertex 7.52768 -1.42739 1.18249
      vertex 7.04082 -0.792909 0.403325
    endloop
  endfacet
  facet normal 0.588353 0.76676 -0.256747
    outer loop
      vertex 8.57261 -2.47232 1.18249
      vertex 8.46822 -2.65312 0.403325
      vertex 7.98136 -2.01864 1.18249
    endloop
  endfacet
  facet normal 0.369866 0.892906 -0.256746
    outer loop
      vertex 8.57261 -2.47232 1.18249
      vertex 9.20709 -2.95918 0.403325
      vertex 8.46822 -2.65312 0.403325
    endloop
  endfacet
  facet normal 0.528342 0.68853 -0.49677
    outer loop
      vertex 8.57261 -2.47232 1.18249
      vertex 8.48225 -2.08458 1.6238
      vertex 8.7 -2.25167 1.6238
    endloop
  endfacet
  facet normal 0.528329 0.688535 -0.496777
    outer loop
      vertex 8.48225 -2.08458 1.6238
      vertex 8.57261 -2.47232 1.18249
      vertex 7.98136 -2.01864 1.18249
    endloop
  endfacet
  facet normal -0.113272 -0.860452 -0.496781
    outer loop
      vertex 10 2.85479 1.18249
      vertex 10.2721 2.56418 1.6238
      vertex 10 2.6 1.6238
    endloop
  endfacet
  facet normal -0.113283 -0.860454 -0.496776
    outer loop
      vertex 10.2721 2.56418 1.6238
      vertex 10 2.85479 1.18249
      vertex 10.7389 2.75751 1.18249
    endloop
  endfacet
  facet normal 0.113284 -0.860458 -0.496768
    outer loop
      vertex 9.72789 2.56418 1.6238
      vertex 9.32707 2.51141 1.6238
      vertex 9.26113 2.75751 1.18249
    endloop
  endfacet
  facet normal 0.80182 -0.332118 0.496771
    outer loop
      vertex 7.52768 1.42739 -1.18249
      vertex 7.6433 1.04643 -1.6238
      vertex 7.74833 1.3 -1.6238
    endloop
  endfacet
  facet normal 0.801818 -0.33212 0.496773
    outer loop
      vertex 7.6433 1.04643 -1.6238
      vertex 7.52768 1.42739 -1.18249
      vertex 7.24249 0.738873 -1.18249
    endloop
  endfacet
  facet normal 0.892908 -0.369851 0.25676
    outer loop
      vertex 7.24249 0.738873 -1.18249
      vertex 7.52768 1.42739 -1.18249
      vertex 7.04082 0.792909 -0.403325
    endloop
  endfacet
  facet normal 0.766764 -0.588345 -0.256755
    outer loop
      vertex 7.83373 2.16627 0.403325
      vertex 7.98136 2.01864 1.18249
      vertex 7.34688 1.53178 0.403325
    endloop
  endfacet
  facet normal 0.958207 -0.126152 -0.25676
    outer loop
      vertex 7.04082 0.792909 0.403325
      vertex 7.24249 0.738873 1.18249
      vertex 6.93643 0 0.403325
    endloop
  endfacet
  facet normal 0.958207 -0.126158 -0.256755
    outer loop
      vertex 7.24249 0.738873 1.18249
      vertex 7.14521 0 1.18249
      vertex 6.93643 0 0.403325
    endloop
  endfacet
  facet normal 0.688549 -0.528316 -0.496772
    outer loop
      vertex 7.98136 2.01864 1.18249
      vertex 8.16152 1.83848 1.6238
      vertex 7.91542 1.51774 1.6238
    endloop
  endfacet
  facet normal -0.528345 0.688497 0.496813
    outer loop
      vertex 11.5177 -2.08458 -1.6238
      vertex 11.4274 -2.47232 -1.18249
      vertex 12.0186 -2.01864 -1.18249
    endloop
  endfacet
  facet normal -0.528417 0.68847 0.496774
    outer loop
      vertex 11.4274 -2.47232 -1.18249
      vertex 11.5177 -2.08458 -1.6238
      vertex 11.3 -2.25167 -1.6238
    endloop
  endfacet
  facet normal -0.688581 0.52834 0.496701
    outer loop
      vertex 12.0186 -2.01864 -1.18249
      vertex 12.0846 -1.51774 -1.6238
      vertex 11.8385 -1.83848 -1.6238
    endloop
  endfacet
  facet normal -0.126142 0.95821 0.256754
    outer loop
      vertex 10.7929 -2.95918 -0.403325
      vertex 10.7389 -2.75751 -1.18249
      vertex 10 -3.06356 -0.403325
    endloop
  endfacet
  facet normal -0.126153 0.958211 0.256744
    outer loop
      vertex 10.7389 -2.75751 -1.18249
      vertex 10 -2.85479 -1.18249
      vertex 10 -3.06356 -0.403325
    endloop
  endfacet
  facet normal 0.369849 0.892908 0.256761
    outer loop
      vertex 9.20709 -2.95918 -0.403325
      vertex 9.26113 -2.75751 -1.18249
      vertex 8.57261 -2.47232 -1.18249
    endloop
  endfacet
  facet normal 0.332119 0.801819 0.496772
    outer loop
      vertex 8.95357 -2.3567 -1.6238
      vertex 8.57261 -2.47232 -1.18249
      vertex 9.26113 -2.75751 -1.18249
    endloop
  endfacet
  facet normal 0.332118 0.80182 0.496771
    outer loop
      vertex 8.57261 -2.47232 -1.18249
      vertex 8.95357 -2.3567 -1.6238
      vertex 8.7 -2.25167 -1.6238
    endloop
  endfacet
  facet normal -0.36986 0.892909 -0.256743
    outer loop
      vertex 11.4274 -2.47232 1.18249
      vertex 10.7929 -2.95918 0.403325
      vertex 10.7389 -2.75751 1.18249
    endloop
  endfacet
  facet normal -0.801825 0.332107 -0.49677
    outer loop
      vertex 12.5114 -0.672929 1.6238
      vertex 12.7575 -0.738873 1.18249
      vertex 12.3567 -1.04643 1.6238
    endloop
  endfacet
  facet normal -0.76678 0.588297 0.256818
    outer loop
      vertex 12.1663 -2.16627 -0.403325
      vertex 12.6531 -1.53178 -0.403325
      vertex 12.0186 -2.01864 -1.18249
    endloop
  endfacet
  facet normal -0.860447 0.113348 0.496772
    outer loop
      vertex 12.7575 -0.738873 -1.18249
      vertex 12.5642 -0.272114 -1.6238
      vertex 12.5114 -0.672929 -1.6238
    endloop
  endfacet
  facet normal -0.801825 -0.332107 0.49677
    outer loop
      vertex 12.5114 0.672929 -1.6238
      vertex 12.7575 0.738873 -1.18249
      vertex 12.3567 1.04643 -1.6238
    endloop
  endfacet
  facet normal -0.991443 -0.13054 0
    outer loop
      vertex 13.0636 0 -0.403325
      vertex 12.9592 0.792909 0.403325
      vertex 12.9592 0.792909 -0.403325
    endloop
  endfacet
  facet normal -0.991443 -0.13054 0
    outer loop
      vertex 12.9592 0.792909 0.403325
      vertex 13.0636 0 -0.403325
      vertex 13.0636 0 0.403325
    endloop
  endfacet
  facet normal -0.892896 -0.369859 -0.256791
    outer loop
      vertex 12.9592 0.792909 0.403325
      vertex 12.7575 0.738873 1.18249
      vertex 12.4723 1.42739 1.18249
    endloop
  endfacet
  facet normal -0.958196 -0.126163 -0.256795
    outer loop
      vertex 12.9592 0.792909 0.403325
      vertex 13.0636 0 0.403325
      vertex 12.7575 0.738873 1.18249
    endloop
  endfacet
  facet normal -0.76678 0.588297 -0.256818
    outer loop
      vertex 12.6531 -1.53178 0.403325
      vertex 12.1663 -2.16627 0.403325
      vertex 12.0186 -2.01864 1.18249
    endloop
  endfacet
  facet normal -0.766748 0.58837 -0.256747
    outer loop
      vertex 12.4723 -1.42739 1.18249
      vertex 12.6531 -1.53178 0.403325
      vertex 12.0186 -2.01864 1.18249
    endloop
  endfacet
  facet normal -0.528274 -0.688624 -0.496713
    outer loop
      vertex 12.0186 2.01864 1.18249
      vertex 11.8385 1.83848 1.6238
      vertex 11.5177 2.08458 1.6238
    endloop
  endfacet
  facet normal 0.588345 -0.766764 0.256755
    outer loop
      vertex 7.98136 2.01864 -1.18249
      vertex 8.46822 2.65312 -0.403325
      vertex 7.83373 2.16627 -0.403325
    endloop
  endfacet
  facet normal 0.332119 -0.801819 0.496772
    outer loop
      vertex 8.57261 2.47232 -1.18249
      vertex 8.95357 2.3567 -1.6238
      vertex 9.26113 2.75751 -1.18249
    endloop
  endfacet
  facet normal 0.332118 -0.80182 0.496771
    outer loop
      vertex 8.95357 2.3567 -1.6238
      vertex 8.57261 2.47232 -1.18249
      vertex 8.7 2.25167 -1.6238
    endloop
  endfacet
  facet normal -0.528345 -0.688497 0.496813
    outer loop
      vertex 11.4274 2.47232 -1.18249
      vertex 11.5177 2.08458 -1.6238
      vertex 12.0186 2.01864 -1.18249
    endloop
  endfacet
  facet normal -0.528417 -0.68847 0.496774
    outer loop
      vertex 11.5177 2.08458 -1.6238
      vertex 11.4274 2.47232 -1.18249
      vertex 11.3 2.25167 -1.6238
    endloop
  endfacet
  facet normal -0.332122 -0.801801 0.4968
    outer loop
      vertex 11.0464 2.3567 -1.6238
      vertex 11.4274 2.47232 -1.18249
      vertex 10.7389 2.75751 -1.18249
    endloop
  endfacet
  facet normal -0.332084 -0.801832 0.496775
    outer loop
      vertex 11.4274 2.47232 -1.18249
      vertex 11.0464 2.3567 -1.6238
      vertex 11.3 2.25167 -1.6238
    endloop
  endfacet
  facet normal -0.860447 -0.113348 0.496772
    outer loop
      vertex 12.5114 0.672929 -1.6238
      vertex 12.5642 0.272114 -1.6238
      vertex 12.7575 0.738873 -1.18249
    endloop
  endfacet
  facet normal -0.688546 -0.52836 0.49673
    outer loop
      vertex 12.0846 1.51774 -1.6238
      vertex 12.4723 1.42739 -1.18249
      vertex 12.0186 2.01864 -1.18249
    endloop
  endfacet
  facet normal -0.688531 -0.528399 0.496709
    outer loop
      vertex 12.4723 1.42739 -1.18249
      vertex 12.0846 1.51774 -1.6238
      vertex 12.2517 1.3 -1.6238
    endloop
  endfacet
  facet normal -0.369853 -0.89291 0.25675
    outer loop
      vertex 11.4274 2.47232 -1.18249
      vertex 11.5318 2.65312 -0.403325
      vertex 10.7929 2.95918 -0.403325
    endloop
  endfacet
  facet normal -0.130517 -0.991446 0
    outer loop
      vertex 10 3.06356 -0.403325
      vertex 10.7929 2.95918 0.403325
      vertex 10 3.06356 0.403325
    endloop
  endfacet
  facet normal -0.130517 -0.991446 -0
    outer loop
      vertex 10.7929 2.95918 0.403325
      vertex 10 3.06356 -0.403325
      vertex 10.7929 2.95918 -0.403325
    endloop
  endfacet
  facet normal 0.528326 0.688541 0.496773
    outer loop
      vertex 8.48225 -2.08458 -1.6238
      vertex 8.16152 -1.83848 -1.6238
      vertex 7.98136 -2.01864 -1.18249
    endloop
  endfacet
  facet normal 0.382694 0.923875 -0
    outer loop
      vertex 9.20709 -2.95918 -0.403325
      vertex 8.46822 -2.65312 0.403325
      vertex 9.20709 -2.95918 0.403325
    endloop
  endfacet
  facet normal 0.382694 0.923875 0
    outer loop
      vertex 8.46822 -2.65312 0.403325
      vertex 9.20709 -2.95918 -0.403325
      vertex 8.46822 -2.65312 -0.403325
    endloop
  endfacet
  facet normal 0.369849 0.892908 -0.256761
    outer loop
      vertex 9.26113 -2.75751 1.18249
      vertex 9.20709 -2.95918 0.403325
      vertex 8.57261 -2.47232 1.18249
    endloop
  endfacet
  facet normal 0.113284 0.860458 -0.496768
    outer loop
      vertex 9.32707 -2.51141 1.6238
      vertex 9.72789 -2.56418 1.6238
      vertex 9.26113 -2.75751 1.18249
    endloop
  endfacet
  facet normal -0.126153 -0.958211 -0.256744
    outer loop
      vertex 10 3.06356 0.403325
      vertex 10.7389 2.75751 1.18249
      vertex 10 2.85479 1.18249
    endloop
  endfacet
  facet normal 0.113288 -0.860456 -0.496771
    outer loop
      vertex 10 2.85479 1.18249
      vertex 9.72789 2.56418 1.6238
      vertex 9.26113 2.75751 1.18249
    endloop
  endfacet
  facet normal 0.113268 -0.860452 -0.496782
    outer loop
      vertex 9.72789 2.56418 1.6238
      vertex 10 2.85479 1.18249
      vertex 10 2.6 1.6238
    endloop
  endfacet
  facet normal 0.688531 -0.528326 0.496786
    outer loop
      vertex 7.52768 1.42739 -1.18249
      vertex 7.91542 1.51774 -1.6238
      vertex 7.98136 2.01864 -1.18249
    endloop
  endfacet
  facet normal 0.688519 -0.528358 0.496769
    outer loop
      vertex 7.91542 1.51774 -1.6238
      vertex 7.52768 1.42739 -1.18249
      vertex 7.74833 1.3 -1.6238
    endloop
  endfacet
  facet normal 0.892906 -0.369865 0.256746
    outer loop
      vertex 7.52768 1.42739 -1.18249
      vertex 7.34688 1.53178 -0.403325
      vertex 7.04082 0.792909 -0.403325
    endloop
  endfacet
  facet normal 0.923875 0.382694 0
    outer loop
      vertex 7.34688 -1.53178 0.403325
      vertex 7.04082 -0.792909 -0.403325
      vertex 7.04082 -0.792909 0.403325
    endloop
  endfacet
  facet normal 0.923875 0.382694 0
    outer loop
      vertex 7.04082 -0.792909 -0.403325
      vertex 7.34688 -1.53178 0.403325
      vertex 7.34688 -1.53178 -0.403325
    endloop
  endfacet
  facet normal 0.958207 -0.126158 0.256755
    outer loop
      vertex 7.14521 0 -1.18249
      vertex 7.24249 0.738873 -1.18249
      vertex 6.93643 0 -0.403325
    endloop
  endfacet
  facet normal 0.860456 -0.113288 0.496771
    outer loop
      vertex 7.14521 0 -1.18249
      vertex 7.43582 0.272114 -1.6238
      vertex 7.24249 0.738873 -1.18249
    endloop
  endfacet
  facet normal 0.860453 -0.113267 0.496782
    outer loop
      vertex 7.43582 0.272114 -1.6238
      vertex 7.14521 0 -1.18249
      vertex 7.4 0 -1.6238
    endloop
  endfacet
  facet normal 0.608753 -0.79336 0
    outer loop
      vertex 7.83373 2.16627 -0.403325
      vertex 8.46822 2.65312 0.403325
      vertex 7.83373 2.16627 0.403325
    endloop
  endfacet
  facet normal 0.608753 -0.79336 0
    outer loop
      vertex 8.46822 2.65312 0.403325
      vertex 7.83373 2.16627 -0.403325
      vertex 8.46822 2.65312 -0.403325
    endloop
  endfacet
  facet normal 0.588345 -0.766764 -0.256755
    outer loop
      vertex 8.46822 2.65312 0.403325
      vertex 7.98136 2.01864 1.18249
      vertex 7.83373 2.16627 0.403325
    endloop
  endfacet
  facet normal 0.80182 -0.332118 -0.496771
    outer loop
      vertex 7.6433 1.04643 1.6238
      vertex 7.52768 1.42739 1.18249
      vertex 7.74833 1.3 1.6238
    endloop
  endfacet
  facet normal 0.801818 -0.33212 -0.496773
    outer loop
      vertex 7.52768 1.42739 1.18249
      vertex 7.6433 1.04643 1.6238
      vertex 7.24249 0.738873 1.18249
    endloop
  endfacet
  facet normal 0.688531 -0.528326 -0.496786
    outer loop
      vertex 7.91542 1.51774 1.6238
      vertex 7.52768 1.42739 1.18249
      vertex 7.98136 2.01864 1.18249
    endloop
  endfacet
  facet normal 0.688519 -0.528358 -0.496769
    outer loop
      vertex 7.52768 1.42739 1.18249
      vertex 7.91542 1.51774 1.6238
      vertex 7.74833 1.3 1.6238
    endloop
  endfacet
  facet normal 0.528326 -0.688541 -0.496773
    outer loop
      vertex 8.48225 2.08458 1.6238
      vertex 8.16152 1.83848 1.6238
      vertex 7.98136 2.01864 1.18249
    endloop
  endfacet
  facet normal 0.113284 0.860458 0.496768
    outer loop
      vertex 9.72789 -2.56418 -1.6238
      vertex 9.32707 -2.51141 -1.6238
      vertex 9.26113 -2.75751 -1.18249
    endloop
  endfacet
  facet normal 0.332127 0.801819 0.496767
    outer loop
      vertex 9.26113 -2.75751 -1.18249
      vertex 9.32707 -2.51141 -1.6238
      vertex 8.95357 -2.3567 -1.6238
    endloop
  endfacet
  facet normal -0.113283 0.860454 0.496776
    outer loop
      vertex 10.2721 -2.56418 -1.6238
      vertex 10 -2.85479 -1.18249
      vertex 10.7389 -2.75751 -1.18249
    endloop
  endfacet
  facet normal -0.113272 0.860452 0.496781
    outer loop
      vertex 10 -2.85479 -1.18249
      vertex 10.2721 -2.56418 -1.6238
      vertex 10 -2.6 -1.6238
    endloop
  endfacet
  facet normal -0.332122 0.801801 0.4968
    outer loop
      vertex 11.4274 -2.47232 -1.18249
      vertex 11.0464 -2.3567 -1.6238
      vertex 10.7389 -2.75751 -1.18249
    endloop
  endfacet
  facet normal -0.332084 0.801832 0.496775
    outer loop
      vertex 11.0464 -2.3567 -1.6238
      vertex 11.4274 -2.47232 -1.18249
      vertex 11.3 -2.25167 -1.6238
    endloop
  endfacet
  facet normal -0.36986 0.892909 0.256743
    outer loop
      vertex 10.7929 -2.95918 -0.403325
      vertex 11.4274 -2.47232 -1.18249
      vertex 10.7389 -2.75751 -1.18249
    endloop
  endfacet
  facet normal -0.766748 0.58837 0.256747
    outer loop
      vertex 12.6531 -1.53178 -0.403325
      vertex 12.4723 -1.42739 -1.18249
      vertex 12.0186 -2.01864 -1.18249
    endloop
  endfacet
  facet normal -0.688531 0.528399 0.496709
    outer loop
      vertex 12.0846 -1.51774 -1.6238
      vertex 12.4723 -1.42739 -1.18249
      vertex 12.2517 -1.3 -1.6238
    endloop
  endfacet
  facet normal -0.688546 0.52836 0.49673
    outer loop
      vertex 12.4723 -1.42739 -1.18249
      vertex 12.0846 -1.51774 -1.6238
      vertex 12.0186 -2.01864 -1.18249
    endloop
  endfacet
  facet normal -0.33212 -0.801801 -0.496801
    outer loop
      vertex 10.7389 2.75751 1.18249
      vertex 11.0464 2.3567 1.6238
      vertex 10.6729 2.51141 1.6238
    endloop
  endfacet
  facet normal -0.382681 -0.923881 0
    outer loop
      vertex 10.7929 2.95918 -0.403325
      vertex 11.5318 2.65312 0.403325
      vertex 10.7929 2.95918 0.403325
    endloop
  endfacet
  facet normal -0.382681 -0.923881 -0
    outer loop
      vertex 11.5318 2.65312 0.403325
      vertex 10.7929 2.95918 -0.403325
      vertex 11.5318 2.65312 -0.403325
    endloop
  endfacet
  facet normal -0.958196 -0.126163 0.256795
    outer loop
      vertex 13.0636 0 -0.403325
      vertex 12.9592 0.792909 -0.403325
      vertex 12.7575 0.738873 -1.18249
    endloop
  endfacet
  facet normal -0.958198 -0.126182 0.256777
    outer loop
      vertex 12.8548 0 -1.18249
      vertex 13.0636 0 -0.403325
      vertex 12.7575 0.738873 -1.18249
    endloop
  endfacet
  facet normal 0.688549 0.528316 0.496772
    outer loop
      vertex 7.98136 -2.01864 -1.18249
      vertex 8.16152 -1.83848 -1.6238
      vertex 7.91542 -1.51774 -1.6238
    endloop
  endfacet
  facet normal 0.688519 0.528358 0.496769
    outer loop
      vertex 7.52768 -1.42739 -1.18249
      vertex 7.91542 -1.51774 -1.6238
      vertex 7.74833 -1.3 -1.6238
    endloop
  endfacet
  facet normal 0.688531 0.528326 0.496786
    outer loop
      vertex 7.91542 -1.51774 -1.6238
      vertex 7.52768 -1.42739 -1.18249
      vertex 7.98136 -2.01864 -1.18249
    endloop
  endfacet
  facet normal 0.332127 0.801819 -0.496767
    outer loop
      vertex 9.32707 -2.51141 1.6238
      vertex 9.26113 -2.75751 1.18249
      vertex 8.95357 -2.3567 1.6238
    endloop
  endfacet
  facet normal 0.332119 0.801819 -0.496772
    outer loop
      vertex 8.57261 -2.47232 1.18249
      vertex 8.95357 -2.3567 1.6238
      vertex 9.26113 -2.75751 1.18249
    endloop
  endfacet
  facet normal 0.332118 0.80182 -0.496771
    outer loop
      vertex 8.95357 -2.3567 1.6238
      vertex 8.57261 -2.47232 1.18249
      vertex 8.7 -2.25167 1.6238
    endloop
  endfacet
  facet normal 0.688549 0.528316 -0.496772
    outer loop
      vertex 8.16152 -1.83848 1.6238
      vertex 7.98136 -2.01864 1.18249
      vertex 7.91542 -1.51774 1.6238
    endloop
  endfacet
  facet normal 0.369849 -0.892908 -0.256761
    outer loop
      vertex 9.20709 2.95918 0.403325
      vertex 9.26113 2.75751 1.18249
      vertex 8.57261 2.47232 1.18249
    endloop
  endfacet
  facet normal 0.332118 -0.80182 -0.496771
    outer loop
      vertex 8.57261 2.47232 1.18249
      vertex 8.95357 2.3567 1.6238
      vertex 8.7 2.25167 1.6238
    endloop
  endfacet
  facet normal 0.332119 -0.801819 -0.496772
    outer loop
      vertex 8.95357 2.3567 1.6238
      vertex 8.57261 2.47232 1.18249
      vertex 9.26113 2.75751 1.18249
    endloop
  endfacet
  facet normal 0.766764 -0.588345 0.256755
    outer loop
      vertex 7.98136 2.01864 -1.18249
      vertex 7.83373 2.16627 -0.403325
      vertex 7.34688 1.53178 -0.403325
    endloop
  endfacet
  facet normal 0.588353 -0.76676 0.256747
    outer loop
      vertex 8.57261 2.47232 -1.18249
      vertex 8.46822 2.65312 -0.403325
      vertex 7.98136 2.01864 -1.18249
    endloop
  endfacet
  facet normal 0.382694 -0.923875 0
    outer loop
      vertex 8.46822 2.65312 -0.403325
      vertex 9.20709 2.95918 0.403325
      vertex 8.46822 2.65312 0.403325
    endloop
  endfacet
  facet normal 0.382694 -0.923875 0
    outer loop
      vertex 9.20709 2.95918 0.403325
      vertex 8.46822 2.65312 -0.403325
      vertex 9.20709 2.95918 -0.403325
    endloop
  endfacet
  facet normal 0.369866 -0.892906 0.256746
    outer loop
      vertex 8.57261 2.47232 -1.18249
      vertex 9.20709 2.95918 -0.403325
      vertex 8.46822 2.65312 -0.403325
    endloop
  endfacet
  facet normal -0.892896 0.369859 0.256791
    outer loop
      vertex 12.9592 -0.792909 -0.403325
      vertex 12.7575 -0.738873 -1.18249
      vertex 12.4723 -1.42739 -1.18249
    endloop
  endfacet
  facet normal -0.801893 0.332053 0.496698
    outer loop
      vertex 12.4723 -1.42739 -1.18249
      vertex 12.3567 -1.04643 -1.6238
      vertex 12.2517 -1.3 -1.6238
    endloop
  endfacet
  facet normal -0.801826 0.332135 0.496751
    outer loop
      vertex 12.3567 -1.04643 -1.6238
      vertex 12.4723 -1.42739 -1.18249
      vertex 12.7575 -0.738873 -1.18249
    endloop
  endfacet
  facet normal -0.33212 0.801801 -0.496801
    outer loop
      vertex 11.0464 -2.3567 1.6238
      vertex 10.7389 -2.75751 1.18249
      vertex 10.6729 -2.51141 1.6238
    endloop
  endfacet
  facet normal -0.332084 0.801832 -0.496775
    outer loop
      vertex 11.4274 -2.47232 1.18249
      vertex 11.0464 -2.3567 1.6238
      vertex 11.3 -2.25167 1.6238
    endloop
  endfacet
  facet normal -0.332122 0.801801 -0.4968
    outer loop
      vertex 11.0464 -2.3567 1.6238
      vertex 11.4274 -2.47232 1.18249
      vertex 10.7389 -2.75751 1.18249
    endloop
  endfacet
  facet normal -0.688581 0.52834 -0.496701
    outer loop
      vertex 12.0846 -1.51774 1.6238
      vertex 12.0186 -2.01864 1.18249
      vertex 11.8385 -1.83848 1.6238
    endloop
  endfacet
  facet normal -0.688531 0.528399 -0.496709
    outer loop
      vertex 12.4723 -1.42739 1.18249
      vertex 12.0846 -1.51774 1.6238
      vertex 12.2517 -1.3 1.6238
    endloop
  endfacet
  facet normal -0.688546 0.52836 -0.49673
    outer loop
      vertex 12.0846 -1.51774 1.6238
      vertex 12.4723 -1.42739 1.18249
      vertex 12.0186 -2.01864 1.18249
    endloop
  endfacet
  facet normal 0.801818 0.332126 0.496769
    outer loop
      vertex 7.6433 -1.04643 -1.6238
      vertex 7.48859 -0.672929 -1.6238
      vertex 7.24249 -0.738873 -1.18249
    endloop
  endfacet
  facet normal 0.860458 0.113285 0.496769
    outer loop
      vertex 7.48859 -0.672929 -1.6238
      vertex 7.43582 -0.272114 -1.6238
      vertex 7.24249 -0.738873 -1.18249
    endloop
  endfacet
  facet normal 0.126158 0.95821 -0.256743
    outer loop
      vertex 10 -2.85479 1.18249
      vertex 10 -3.06356 0.403325
      vertex 9.26113 -2.75751 1.18249
    endloop
  endfacet
  facet normal 0.113268 0.860452 -0.496782
    outer loop
      vertex 10 -2.85479 1.18249
      vertex 9.72789 -2.56418 1.6238
      vertex 10 -2.6 1.6238
    endloop
  endfacet
  facet normal 0.113288 0.860456 -0.496771
    outer loop
      vertex 9.72789 -2.56418 1.6238
      vertex 10 -2.85479 1.18249
      vertex 9.26113 -2.75751 1.18249
    endloop
  endfacet
  facet normal 0.369866 -0.892906 -0.256746
    outer loop
      vertex 9.20709 2.95918 0.403325
      vertex 8.57261 2.47232 1.18249
      vertex 8.46822 2.65312 0.403325
    endloop
  endfacet
  facet normal 0.588353 -0.76676 -0.256747
    outer loop
      vertex 8.46822 2.65312 0.403325
      vertex 8.57261 2.47232 1.18249
      vertex 7.98136 2.01864 1.18249
    endloop
  endfacet
  facet normal 0.332127 -0.801819 -0.496767
    outer loop
      vertex 9.26113 2.75751 1.18249
      vertex 9.32707 2.51141 1.6238
      vertex 8.95357 2.3567 1.6238
    endloop
  endfacet
  facet normal 0.528326 -0.688541 0.496773
    outer loop
      vertex 8.16152 1.83848 -1.6238
      vertex 8.48225 2.08458 -1.6238
      vertex 7.98136 2.01864 -1.18249
    endloop
  endfacet
  facet normal 0.688549 -0.528316 0.496772
    outer loop
      vertex 8.16152 1.83848 -1.6238
      vertex 7.98136 2.01864 -1.18249
      vertex 7.91542 1.51774 -1.6238
    endloop
  endfacet
  facet normal 0.130516 -0.991446 0
    outer loop
      vertex 9.20709 2.95918 -0.403325
      vertex 10 3.06356 0.403325
      vertex 9.20709 2.95918 0.403325
    endloop
  endfacet
  facet normal 0.130516 -0.991446 0
    outer loop
      vertex 10 3.06356 0.403325
      vertex 9.20709 2.95918 -0.403325
      vertex 10 3.06356 -0.403325
    endloop
  endfacet
  facet normal -0.923921 -0.382583 0
    outer loop
      vertex 12.2517 1.3 -2
      vertex 12.3567 1.04643 -1.6238
      vertex 12.2517 1.3 -1.6238
    endloop
  endfacet
  facet normal -0.923901 -0.382631 -3.78875e-05
    outer loop
      vertex 12.5114 0.672929 -2
      vertex 12.3567 1.04643 -1.6238
      vertex 12.2517 1.3 -2
    endloop
  endfacet
  facet normal -0.923888 -0.382664 0
    outer loop
      vertex 12.3567 1.04643 -1.6238
      vertex 12.5114 0.672929 -2
      vertex 12.5114 0.672929 -1.6238
    endloop
  endfacet
  facet normal -0.923921 -0.382583 0
    outer loop
      vertex 12.3567 1.04643 1.6238
      vertex 12.2517 1.3 2
      vertex 12.2517 1.3 1.6238
    endloop
  endfacet
  facet normal -0.923888 -0.382664 -0
    outer loop
      vertex 12.5114 0.672929 2
      vertex 12.3567 1.04643 1.6238
      vertex 12.5114 0.672929 1.6238
    endloop
  endfacet
  facet normal -0.923901 -0.382631 3.78875e-05
    outer loop
      vertex 12.3567 1.04643 1.6238
      vertex 12.5114 0.672929 2
      vertex 12.2517 1.3 2
    endloop
  endfacet
  facet normal -0.991435 -0.130603 0
    outer loop
      vertex 12.5114 0.672929 -2
      vertex 12.5642 0.272114 -1.6238
      vertex 12.5114 0.672929 -1.6238
    endloop
  endfacet
  facet normal -0.991443 -0.130537 7.22258e-05
    outer loop
      vertex 12.6 0 -2
      vertex 12.5642 0.272114 -1.6238
      vertex 12.5114 0.672929 -2
    endloop
  endfacet
  facet normal -0.991456 -0.130438 0
    outer loop
      vertex 12.5642 0.272114 -1.6238
      vertex 12.6 0 -2
      vertex 12.6 0 -1.6238
    endloop
  endfacet
  facet normal -0.991435 -0.130603 0
    outer loop
      vertex 12.5642 0.272114 1.6238
      vertex 12.5114 0.672929 2
      vertex 12.5114 0.672929 1.6238
    endloop
  endfacet
  facet normal -0.991456 -0.130438 -0
    outer loop
      vertex 12.6 0 2
      vertex 12.5642 0.272114 1.6238
      vertex 12.6 0 1.6238
    endloop
  endfacet
  facet normal -0.991443 -0.130537 -7.22258e-05
    outer loop
      vertex 12.5642 0.272114 1.6238
      vertex 12.6 0 2
      vertex 12.5114 0.672929 2
    endloop
  endfacet
  facet normal -0.793368 -0.608742 0
    outer loop
      vertex 11.8385 1.83848 -2
      vertex 12.0846 1.51774 -1.6238
      vertex 11.8385 1.83848 -1.6238
    endloop
  endfacet
  facet normal -0.793346 -0.60877 -3.85363e-05
    outer loop
      vertex 12.2517 1.3 -2
      vertex 12.0846 1.51774 -1.6238
      vertex 11.8385 1.83848 -2
    endloop
  endfacet
  facet normal -0.793314 -0.608812 0
    outer loop
      vertex 12.0846 1.51774 -1.6238
      vertex 12.2517 1.3 -2
      vertex 12.2517 1.3 -1.6238
    endloop
  endfacet
  facet normal -0.793368 -0.608742 0
    outer loop
      vertex 12.0846 1.51774 1.6238
      vertex 11.8385 1.83848 2
      vertex 11.8385 1.83848 1.6238
    endloop
  endfacet
  facet normal -0.793314 -0.608812 -0
    outer loop
      vertex 12.2517 1.3 2
      vertex 12.0846 1.51774 1.6238
      vertex 12.2517 1.3 1.6238
    endloop
  endfacet
  facet normal -0.793346 -0.60877 3.85363e-05
    outer loop
      vertex 12.0846 1.51774 1.6238
      vertex 12.2517 1.3 2
      vertex 11.8385 1.83848 2
    endloop
  endfacet
  facet normal -0.130517 -0.991446 -0
    outer loop
      vertex 10 2.6 -1.6238
      vertex 10 2.6 -2
      vertex 10.2721 2.56418 -1.6238
    endloop
  endfacet
  facet normal -0.130528 -0.991445 8.07193e-06
    outer loop
      vertex 10.6729 2.51141 -2
      vertex 10.2721 2.56418 -1.6238
      vertex 10 2.6 -2
    endloop
  endfacet
  facet normal -0.130535 -0.991444 0
    outer loop
      vertex 10.2721 2.56418 -1.6238
      vertex 10.6729 2.51141 -2
      vertex 10.6729 2.51141 -1.6238
    endloop
  endfacet
  facet normal -0.130528 -0.991445 -8.07193e-06
    outer loop
      vertex 10 2.6 2
      vertex 10.2721 2.56418 1.6238
      vertex 10.6729 2.51141 2
    endloop
  endfacet
  facet normal -0.130517 -0.991446 0
    outer loop
      vertex 10.2721 2.56418 1.6238
      vertex 10 2.6 2
      vertex 10 2.6 1.6238
    endloop
  endfacet
  facet normal -0.130535 -0.991444 -0
    outer loop
      vertex 10.6729 2.51141 2
      vertex 10.2721 2.56418 1.6238
      vertex 10.6729 2.51141 1.6238
    endloop
  endfacet
  facet normal -0.793314 0.608812 0
    outer loop
      vertex 12.2517 -1.3 -2
      vertex 12.0846 -1.51774 -1.6238
      vertex 12.2517 -1.3 -1.6238
    endloop
  endfacet
  facet normal -0.793346 0.60877 -3.85363e-05
    outer loop
      vertex 11.8385 -1.83848 -2
      vertex 12.0846 -1.51774 -1.6238
      vertex 12.2517 -1.3 -2
    endloop
  endfacet
  facet normal -0.793368 0.608742 0
    outer loop
      vertex 12.0846 -1.51774 -1.6238
      vertex 11.8385 -1.83848 -2
      vertex 11.8385 -1.83848 -1.6238
    endloop
  endfacet
  facet normal -0.793314 0.608812 0
    outer loop
      vertex 12.0846 -1.51774 1.6238
      vertex 12.2517 -1.3 2
      vertex 12.2517 -1.3 1.6238
    endloop
  endfacet
  facet normal -0.793368 0.608742 0
    outer loop
      vertex 11.8385 -1.83848 2
      vertex 12.0846 -1.51774 1.6238
      vertex 11.8385 -1.83848 1.6238
    endloop
  endfacet
  facet normal -0.793346 0.60877 3.85363e-05
    outer loop
      vertex 12.0846 -1.51774 1.6238
      vertex 11.8385 -1.83848 2
      vertex 12.2517 -1.3 2
    endloop
  endfacet
  facet normal -0.60886 -0.793278 0
    outer loop
      vertex 11.3 2.25167 -2
      vertex 11.5177 2.08458 -1.6238
      vertex 11.3 2.25167 -1.6238
    endloop
  endfacet
  facet normal -0.608747 -0.793364 -0.000103788
    outer loop
      vertex 11.8385 1.83848 -2
      vertex 11.5177 2.08458 -1.6238
      vertex 11.3 2.25167 -2
    endloop
  endfacet
  facet normal -0.60867 -0.793423 0
    outer loop
      vertex 11.5177 2.08458 -1.6238
      vertex 11.8385 1.83848 -2
      vertex 11.8385 1.83848 -1.6238
    endloop
  endfacet
  facet normal -0.60886 -0.793278 0
    outer loop
      vertex 11.5177 2.08458 1.6238
      vertex 11.3 2.25167 2
      vertex 11.3 2.25167 1.6238
    endloop
  endfacet
  facet normal -0.608747 -0.793364 0.000103788
    outer loop
      vertex 11.3 2.25167 2
      vertex 11.5177 2.08458 1.6238
      vertex 11.8385 1.83848 2
    endloop
  endfacet
  facet normal -0.60867 -0.793423 -0
    outer loop
      vertex 11.8385 1.83848 2
      vertex 11.5177 2.08458 1.6238
      vertex 11.8385 1.83848 1.6238
    endloop
  endfacet
  facet normal 0.608754 -0.793359 0
    outer loop
      vertex 8.16152 1.83848 -2
      vertex 8.48225 2.08458 -1.6238
      vertex 8.16152 1.83848 -1.6238
    endloop
  endfacet
  facet normal 0.608761 -0.793354 -9.79355e-06
    outer loop
      vertex 8.7 2.25167 -2
      vertex 8.48225 2.08458 -1.6238
      vertex 8.16152 1.83848 -2
    endloop
  endfacet
  facet normal 0.608772 -0.793345 0
    outer loop
      vertex 8.48225 2.08458 -1.6238
      vertex 8.7 2.25167 -2
      vertex 8.7 2.25167 -1.6238
    endloop
  endfacet
  facet normal 0.608761 -0.793354 9.79355e-06
    outer loop
      vertex 8.48225 2.08458 1.6238
      vertex 8.7 2.25167 2
      vertex 8.16152 1.83848 2
    endloop
  endfacet
  facet normal 0.608772 -0.793345 0
    outer loop
      vertex 8.7 2.25167 2
      vertex 8.48225 2.08458 1.6238
      vertex 8.7 2.25167 1.6238
    endloop
  endfacet
  facet normal 0.608754 -0.793359 0
    outer loop
      vertex 8.48225 2.08458 1.6238
      vertex 8.16152 1.83848 2
      vertex 8.16152 1.83848 1.6238
    endloop
  endfacet
  facet normal 0.923879 0.382685 0
    outer loop
      vertex 7.6433 -1.04643 -1.6238
      vertex 7.48859 -0.672929 -2
      vertex 7.48859 -0.672929 -1.6238
    endloop
  endfacet
  facet normal 0.923882 0.382677 -0
    outer loop
      vertex 7.74833 -1.3 -2
      vertex 7.6433 -1.04643 -1.6238
      vertex 7.74833 -1.3 -1.6238
    endloop
  endfacet
  facet normal 0.92388 0.382682 -3.93463e-06
    outer loop
      vertex 7.6433 -1.04643 -1.6238
      vertex 7.74833 -1.3 -2
      vertex 7.48859 -0.672929 -2
    endloop
  endfacet
  facet normal 0.923879 0.382685 0
    outer loop
      vertex 7.48859 -0.672929 2
      vertex 7.6433 -1.04643 1.6238
      vertex 7.48859 -0.672929 1.6238
    endloop
  endfacet
  facet normal 0.92388 0.382682 3.93463e-06
    outer loop
      vertex 7.74833 -1.3 2
      vertex 7.6433 -1.04643 1.6238
      vertex 7.48859 -0.672929 2
    endloop
  endfacet
  facet normal 0.923882 0.382677 0
    outer loop
      vertex 7.6433 -1.04643 1.6238
      vertex 7.74833 -1.3 2
      vertex 7.74833 -1.3 1.6238
    endloop
  endfacet
  facet normal 0.793368 -0.608742 0
    outer loop
      vertex 7.91542 1.51774 -1.6238
      vertex 8.16152 1.83848 -2
      vertex 8.16152 1.83848 -1.6238
    endloop
  endfacet
  facet normal 0.793332 -0.608789 0
    outer loop
      vertex 7.74833 1.3 -2
      vertex 7.91542 1.51774 -1.6238
      vertex 7.74833 1.3 -1.6238
    endloop
  endfacet
  facet normal 0.793354 -0.608761 -2.59754e-05
    outer loop
      vertex 7.91542 1.51774 -1.6238
      vertex 7.74833 1.3 -2
      vertex 8.16152 1.83848 -2
    endloop
  endfacet
  facet normal 0.793368 -0.608742 0
    outer loop
      vertex 8.16152 1.83848 2
      vertex 7.91542 1.51774 1.6238
      vertex 8.16152 1.83848 1.6238
    endloop
  endfacet
  facet normal 0.793354 -0.608761 2.59754e-05
    outer loop
      vertex 7.74833 1.3 2
      vertex 7.91542 1.51774 1.6238
      vertex 8.16152 1.83848 2
    endloop
  endfacet
  facet normal 0.793332 -0.608789 0
    outer loop
      vertex 7.91542 1.51774 1.6238
      vertex 7.74833 1.3 2
      vertex 7.74833 1.3 1.6238
    endloop
  endfacet
  facet normal -0.991456 0.130438 0
    outer loop
      vertex 12.6 0 -2
      vertex 12.5642 -0.272114 -1.6238
      vertex 12.6 0 -1.6238
    endloop
  endfacet
  facet normal -0.991443 0.130537 7.22258e-05
    outer loop
      vertex 12.5114 -0.672929 -2
      vertex 12.5642 -0.272114 -1.6238
      vertex 12.6 0 -2
    endloop
  endfacet
  facet normal -0.991435 0.130603 0
    outer loop
      vertex 12.5642 -0.272114 -1.6238
      vertex 12.5114 -0.672929 -2
      vertex 12.5114 -0.672929 -1.6238
    endloop
  endfacet
  facet normal -0.991456 0.130438 0
    outer loop
      vertex 12.5642 -0.272114 1.6238
      vertex 12.6 0 2
      vertex 12.6 0 1.6238
    endloop
  endfacet
  facet normal -0.991435 0.130603 0
    outer loop
      vertex 12.5114 -0.672929 2
      vertex 12.5642 -0.272114 1.6238
      vertex 12.5114 -0.672929 1.6238
    endloop
  endfacet
  facet normal -0.991443 0.130537 -7.22258e-05
    outer loop
      vertex 12.5642 -0.272114 1.6238
      vertex 12.5114 -0.672929 2
      vertex 12.6 0 2
    endloop
  endfacet
  facet normal 0.130512 0.991447 0
    outer loop
      vertex 10 -2.6 -1.6238
      vertex 10 -2.6 -2
      vertex 9.72789 -2.56418 -1.6238
    endloop
  endfacet
  facet normal 0.130522 0.991445 7.33256e-06
    outer loop
      vertex 9.32707 -2.51141 -2
      vertex 9.72789 -2.56418 -1.6238
      vertex 10 -2.6 -2
    endloop
  endfacet
  facet normal 0.130529 0.991445 0
    outer loop
      vertex 9.72789 -2.56418 -1.6238
      vertex 9.32707 -2.51141 -2
      vertex 9.32707 -2.51141 -1.6238
    endloop
  endfacet
  facet normal 0.130522 0.991445 -7.33256e-06
    outer loop
      vertex 10 -2.6 2
      vertex 9.72789 -2.56418 1.6238
      vertex 9.32707 -2.51141 2
    endloop
  endfacet
  facet normal 0.130512 0.991447 0
    outer loop
      vertex 9.72789 -2.56418 1.6238
      vertex 10 -2.6 2
      vertex 10 -2.6 1.6238
    endloop
  endfacet
  facet normal 0.130529 0.991445 0
    outer loop
      vertex 9.32707 -2.51141 2
      vertex 9.72789 -2.56418 1.6238
      vertex 9.32707 -2.51141 1.6238
    endloop
  endfacet
  facet normal -0.382686 -0.923878 0
    outer loop
      vertex 10.6729 2.51141 -2
      vertex 11.0464 2.3567 -1.6238
      vertex 10.6729 2.51141 -1.6238
    endloop
  endfacet
  facet normal -0.382667 -0.923886 -2.2522e-05
    outer loop
      vertex 11.3 2.25167 -2
      vertex 11.0464 2.3567 -1.6238
      vertex 10.6729 2.51141 -2
    endloop
  endfacet
  facet normal -0.382638 -0.923898 0
    outer loop
      vertex 11.0464 2.3567 -1.6238
      vertex 11.3 2.25167 -2
      vertex 11.3 2.25167 -1.6238
    endloop
  endfacet
  facet normal -0.382667 -0.923886 2.2522e-05
    outer loop
      vertex 11.0464 2.3567 1.6238
      vertex 11.3 2.25167 2
      vertex 10.6729 2.51141 2
    endloop
  endfacet
  facet normal -0.382638 -0.923898 -0
    outer loop
      vertex 11.3 2.25167 2
      vertex 11.0464 2.3567 1.6238
      vertex 11.3 2.25167 1.6238
    endloop
  endfacet
  facet normal -0.382686 -0.923878 0
    outer loop
      vertex 11.0464 2.3567 1.6238
      vertex 10.6729 2.51141 2
      vertex 10.6729 2.51141 1.6238
    endloop
  endfacet
  facet normal -0.130535 0.991444 0
    outer loop
      vertex 10.6729 -2.51141 -1.6238
      vertex 10.6729 -2.51141 -2
      vertex 10.2721 -2.56418 -1.6238
    endloop
  endfacet
  facet normal -0.130528 0.991445 8.07193e-06
    outer loop
      vertex 10 -2.6 -2
      vertex 10.2721 -2.56418 -1.6238
      vertex 10.6729 -2.51141 -2
    endloop
  endfacet
  facet normal -0.130517 0.991446 0
    outer loop
      vertex 10.2721 -2.56418 -1.6238
      vertex 10 -2.6 -2
      vertex 10 -2.6 -1.6238
    endloop
  endfacet
  facet normal -0.130528 0.991445 -8.07193e-06
    outer loop
      vertex 10.6729 -2.51141 2
      vertex 10.2721 -2.56418 1.6238
      vertex 10 -2.6 2
    endloop
  endfacet
  facet normal -0.130535 0.991444 0
    outer loop
      vertex 10.2721 -2.56418 1.6238
      vertex 10.6729 -2.51141 2
      vertex 10.6729 -2.51141 1.6238
    endloop
  endfacet
  facet normal -0.130517 0.991446 0
    outer loop
      vertex 10 -2.6 2
      vertex 10.2721 -2.56418 1.6238
      vertex 10 -2.6 1.6238
    endloop
  endfacet
  facet normal -0.923888 0.382664 0
    outer loop
      vertex 12.5114 -0.672929 -2
      vertex 12.3567 -1.04643 -1.6238
      vertex 12.5114 -0.672929 -1.6238
    endloop
  endfacet
  facet normal -0.923901 0.382631 -3.78875e-05
    outer loop
      vertex 12.2517 -1.3 -2
      vertex 12.3567 -1.04643 -1.6238
      vertex 12.5114 -0.672929 -2
    endloop
  endfacet
  facet normal -0.923921 0.382583 0
    outer loop
      vertex 12.3567 -1.04643 -1.6238
      vertex 12.2517 -1.3 -2
      vertex 12.2517 -1.3 -1.6238
    endloop
  endfacet
  facet normal -0.923888 0.382664 0
    outer loop
      vertex 12.3567 -1.04643 1.6238
      vertex 12.5114 -0.672929 2
      vertex 12.5114 -0.672929 1.6238
    endloop
  endfacet
  facet normal -0.923921 0.382583 0
    outer loop
      vertex 12.2517 -1.3 2
      vertex 12.3567 -1.04643 1.6238
      vertex 12.2517 -1.3 1.6238
    endloop
  endfacet
  facet normal -0.923901 0.382631 3.78875e-05
    outer loop
      vertex 12.3567 -1.04643 1.6238
      vertex 12.2517 -1.3 2
      vertex 12.5114 -0.672929 2
    endloop
  endfacet
  facet normal -0.382638 0.923898 0
    outer loop
      vertex 11.3 -2.25167 -2
      vertex 11.0464 -2.3567 -1.6238
      vertex 11.3 -2.25167 -1.6238
    endloop
  endfacet
  facet normal -0.382667 0.923886 -2.2522e-05
    outer loop
      vertex 10.6729 -2.51141 -2
      vertex 11.0464 -2.3567 -1.6238
      vertex 11.3 -2.25167 -2
    endloop
  endfacet
  facet normal -0.382686 0.923878 0
    outer loop
      vertex 11.0464 -2.3567 -1.6238
      vertex 10.6729 -2.51141 -2
      vertex 10.6729 -2.51141 -1.6238
    endloop
  endfacet
  facet normal -0.382638 0.923898 0
    outer loop
      vertex 11.0464 -2.3567 1.6238
      vertex 11.3 -2.25167 2
      vertex 11.3 -2.25167 1.6238
    endloop
  endfacet
  facet normal -0.382667 0.923886 2.2522e-05
    outer loop
      vertex 11.3 -2.25167 2
      vertex 11.0464 -2.3567 1.6238
      vertex 10.6729 -2.51141 2
    endloop
  endfacet
  facet normal -0.382686 0.923878 0
    outer loop
      vertex 10.6729 -2.51141 2
      vertex 11.0464 -2.3567 1.6238
      vertex 10.6729 -2.51141 1.6238
    endloop
  endfacet
  facet normal 0.991447 0.13051 0
    outer loop
      vertex 7.43582 -0.272114 -1.6238
      vertex 7.4 0 -2
      vertex 7.4 0 -1.6238
    endloop
  endfacet
  facet normal 0.991444 0.13053 -0
    outer loop
      vertex 7.48859 -0.672929 -2
      vertex 7.43582 -0.272114 -1.6238
      vertex 7.48859 -0.672929 -1.6238
    endloop
  endfacet
  facet normal 0.991445 0.130522 8.86065e-06
    outer loop
      vertex 7.43582 -0.272114 -1.6238
      vertex 7.48859 -0.672929 -2
      vertex 7.4 0 -2
    endloop
  endfacet
  facet normal 0.991447 0.13051 0
    outer loop
      vertex 7.4 0 2
      vertex 7.43582 -0.272114 1.6238
      vertex 7.4 0 1.6238
    endloop
  endfacet
  facet normal 0.991445 0.130522 -8.86065e-06
    outer loop
      vertex 7.48859 -0.672929 2
      vertex 7.43582 -0.272114 1.6238
      vertex 7.4 0 2
    endloop
  endfacet
  facet normal 0.991444 0.13053 0
    outer loop
      vertex 7.43582 -0.272114 1.6238
      vertex 7.48859 -0.672929 2
      vertex 7.48859 -0.672929 1.6238
    endloop
  endfacet
  facet normal 0.382677 -0.923882 0
    outer loop
      vertex 8.7 2.25167 -2
      vertex 8.95357 2.3567 -1.6238
      vertex 8.7 2.25167 -1.6238
    endloop
  endfacet
  facet normal 0.382682 -0.92388 -4.34597e-06
    outer loop
      vertex 9.32707 2.51141 -2
      vertex 8.95357 2.3567 -1.6238
      vertex 8.7 2.25167 -2
    endloop
  endfacet
  facet normal 0.382686 -0.923878 0
    outer loop
      vertex 8.95357 2.3567 -1.6238
      vertex 9.32707 2.51141 -2
      vertex 9.32707 2.51141 -1.6238
    endloop
  endfacet
  facet normal 0.382677 -0.923882 0
    outer loop
      vertex 8.95357 2.3567 1.6238
      vertex 8.7 2.25167 2
      vertex 8.7 2.25167 1.6238
    endloop
  endfacet
  facet normal 0.382682 -0.92388 4.34597e-06
    outer loop
      vertex 8.7 2.25167 2
      vertex 8.95357 2.3567 1.6238
      vertex 9.32707 2.51141 2
    endloop
  endfacet
  facet normal 0.382686 -0.923878 0
    outer loop
      vertex 9.32707 2.51141 2
      vertex 8.95357 2.3567 1.6238
      vertex 9.32707 2.51141 1.6238
    endloop
  endfacet
  facet normal -0.60867 0.793423 0
    outer loop
      vertex 11.8385 -1.83848 -2
      vertex 11.5177 -2.08458 -1.6238
      vertex 11.8385 -1.83848 -1.6238
    endloop
  endfacet
  facet normal -0.608747 0.793364 -0.000103788
    outer loop
      vertex 11.3 -2.25167 -2
      vertex 11.5177 -2.08458 -1.6238
      vertex 11.8385 -1.83848 -2
    endloop
  endfacet
  facet normal -0.60886 0.793278 0
    outer loop
      vertex 11.5177 -2.08458 -1.6238
      vertex 11.3 -2.25167 -2
      vertex 11.3 -2.25167 -1.6238
    endloop
  endfacet
  facet normal -0.608747 0.793364 0.000103788
    outer loop
      vertex 11.5177 -2.08458 1.6238
      vertex 11.3 -2.25167 2
      vertex 11.8385 -1.83848 2
    endloop
  endfacet
  facet normal -0.60886 0.793278 0
    outer loop
      vertex 11.3 -2.25167 2
      vertex 11.5177 -2.08458 1.6238
      vertex 11.3 -2.25167 1.6238
    endloop
  endfacet
  facet normal -0.60867 0.793423 0
    outer loop
      vertex 11.5177 -2.08458 1.6238
      vertex 11.8385 -1.83848 2
      vertex 11.8385 -1.83848 1.6238
    endloop
  endfacet
  facet normal 0.130529 -0.991445 0
    outer loop
      vertex 9.32707 2.51141 -1.6238
      vertex 9.32707 2.51141 -2
      vertex 9.72789 2.56418 -1.6238
    endloop
  endfacet
  facet normal 0.130522 -0.991445 7.33256e-06
    outer loop
      vertex 10 2.6 -2
      vertex 9.72789 2.56418 -1.6238
      vertex 9.32707 2.51141 -2
    endloop
  endfacet
  facet normal 0.130512 -0.991447 0
    outer loop
      vertex 9.72789 2.56418 -1.6238
      vertex 10 2.6 -2
      vertex 10 2.6 -1.6238
    endloop
  endfacet
  facet normal 0.130522 -0.991445 -7.33256e-06
    outer loop
      vertex 9.32707 2.51141 2
      vertex 9.72789 2.56418 1.6238
      vertex 10 2.6 2
    endloop
  endfacet
  facet normal 0.130529 -0.991445 0
    outer loop
      vertex 9.72789 2.56418 1.6238
      vertex 9.32707 2.51141 2
      vertex 9.32707 2.51141 1.6238
    endloop
  endfacet
  facet normal 0.130512 -0.991447 0
    outer loop
      vertex 10 2.6 2
      vertex 9.72789 2.56418 1.6238
      vertex 10 2.6 1.6238
    endloop
  endfacet
  facet normal 0.608772 0.793345 -0
    outer loop
      vertex 8.7 -2.25167 -2
      vertex 8.48225 -2.08458 -1.6238
      vertex 8.7 -2.25167 -1.6238
    endloop
  endfacet
  facet normal 0.608761 0.793354 -9.79355e-06
    outer loop
      vertex 8.16152 -1.83848 -2
      vertex 8.48225 -2.08458 -1.6238
      vertex 8.7 -2.25167 -2
    endloop
  endfacet
  facet normal 0.608754 0.793359 0
    outer loop
      vertex 8.48225 -2.08458 -1.6238
      vertex 8.16152 -1.83848 -2
      vertex 8.16152 -1.83848 -1.6238
    endloop
  endfacet
  facet normal 0.608772 0.793345 0
    outer loop
      vertex 8.48225 -2.08458 1.6238
      vertex 8.7 -2.25167 2
      vertex 8.7 -2.25167 1.6238
    endloop
  endfacet
  facet normal 0.608761 0.793354 9.79355e-06
    outer loop
      vertex 8.7 -2.25167 2
      vertex 8.48225 -2.08458 1.6238
      vertex 8.16152 -1.83848 2
    endloop
  endfacet
  facet normal 0.608754 0.793359 0
    outer loop
      vertex 8.16152 -1.83848 2
      vertex 8.48225 -2.08458 1.6238
      vertex 8.16152 -1.83848 1.6238
    endloop
  endfacet
  facet normal 0.991444 -0.13053 0
    outer loop
      vertex 7.43582 0.272114 -1.6238
      vertex 7.48859 0.672929 -2
      vertex 7.48859 0.672929 -1.6238
    endloop
  endfacet
  facet normal 0.991447 -0.13051 0
    outer loop
      vertex 7.4 0 -2
      vertex 7.43582 0.272114 -1.6238
      vertex 7.4 0 -1.6238
    endloop
  endfacet
  facet normal 0.991445 -0.130522 8.86065e-06
    outer loop
      vertex 7.43582 0.272114 -1.6238
      vertex 7.4 0 -2
      vertex 7.48859 0.672929 -2
    endloop
  endfacet
  facet normal 0.991444 -0.13053 0
    outer loop
      vertex 7.48859 0.672929 2
      vertex 7.43582 0.272114 1.6238
      vertex 7.48859 0.672929 1.6238
    endloop
  endfacet
  facet normal 0.991445 -0.130522 -8.86065e-06
    outer loop
      vertex 7.4 0 2
      vertex 7.43582 0.272114 1.6238
      vertex 7.48859 0.672929 2
    endloop
  endfacet
  facet normal 0.991447 -0.13051 0
    outer loop
      vertex 7.43582 0.272114 1.6238
      vertex 7.4 0 2
      vertex 7.4 0 1.6238
    endloop
  endfacet
  facet normal 0.793332 0.608789 0
    outer loop
      vertex 7.91542 -1.51774 -1.6238
      vertex 7.74833 -1.3 -2
      vertex 7.74833 -1.3 -1.6238
    endloop
  endfacet
  facet normal 0.793368 0.608742 -0
    outer loop
      vertex 8.16152 -1.83848 -2
      vertex 7.91542 -1.51774 -1.6238
      vertex 8.16152 -1.83848 -1.6238
    endloop
  endfacet
  facet normal 0.793354 0.608761 -2.59754e-05
    outer loop
      vertex 7.91542 -1.51774 -1.6238
      vertex 8.16152 -1.83848 -2
      vertex 7.74833 -1.3 -2
    endloop
  endfacet
  facet normal 0.793332 0.608789 0
    outer loop
      vertex 7.74833 -1.3 2
      vertex 7.91542 -1.51774 1.6238
      vertex 7.74833 -1.3 1.6238
    endloop
  endfacet
  facet normal 0.793354 0.608761 2.59754e-05
    outer loop
      vertex 8.16152 -1.83848 2
      vertex 7.91542 -1.51774 1.6238
      vertex 7.74833 -1.3 2
    endloop
  endfacet
  facet normal 0.793368 0.608742 0
    outer loop
      vertex 7.91542 -1.51774 1.6238
      vertex 8.16152 -1.83848 2
      vertex 8.16152 -1.83848 1.6238
    endloop
  endfacet
  facet normal 0.382686 0.923878 -0
    outer loop
      vertex 9.32707 -2.51141 -2
      vertex 8.95357 -2.3567 -1.6238
      vertex 9.32707 -2.51141 -1.6238
    endloop
  endfacet
  facet normal 0.382682 0.92388 -4.34597e-06
    outer loop
      vertex 8.7 -2.25167 -2
      vertex 8.95357 -2.3567 -1.6238
      vertex 9.32707 -2.51141 -2
    endloop
  endfacet
  facet normal 0.382677 0.923882 0
    outer loop
      vertex 8.95357 -2.3567 -1.6238
      vertex 8.7 -2.25167 -2
      vertex 8.7 -2.25167 -1.6238
    endloop
  endfacet
  facet normal 0.382682 0.92388 4.34597e-06
    outer loop
      vertex 8.95357 -2.3567 1.6238
      vertex 8.7 -2.25167 2
      vertex 9.32707 -2.51141 2
    endloop
  endfacet
  facet normal 0.382677 0.923882 0
    outer loop
      vertex 8.7 -2.25167 2
      vertex 8.95357 -2.3567 1.6238
      vertex 8.7 -2.25167 1.6238
    endloop
  endfacet
  facet normal 0.382686 0.923878 0
    outer loop
      vertex 8.95357 -2.3567 1.6238
      vertex 9.32707 -2.51141 2
      vertex 9.32707 -2.51141 1.6238
    endloop
  endfacet
  facet normal 0.923882 -0.382677 0
    outer loop
      vertex 7.6433 1.04643 -1.6238
      vertex 7.74833 1.3 -2
      vertex 7.74833 1.3 -1.6238
    endloop
  endfacet
  facet normal 0.923879 -0.382685 0
    outer loop
      vertex 7.48859 0.672929 -2
      vertex 7.6433 1.04643 -1.6238
      vertex 7.48859 0.672929 -1.6238
    endloop
  endfacet
  facet normal 0.92388 -0.382682 -3.93463e-06
    outer loop
      vertex 7.6433 1.04643 -1.6238
      vertex 7.48859 0.672929 -2
      vertex 7.74833 1.3 -2
    endloop
  endfacet
  facet normal 0.923882 -0.382677 0
    outer loop
      vertex 7.74833 1.3 2
      vertex 7.6433 1.04643 1.6238
      vertex 7.74833 1.3 1.6238
    endloop
  endfacet
  facet normal 0.92388 -0.382682 3.93463e-06
    outer loop
      vertex 7.48859 0.672929 2
      vertex 7.6433 1.04643 1.6238
      vertex 7.74833 1.3 2
    endloop
  endfacet
  facet normal 0.923879 -0.382685 0
    outer loop
      vertex 7.6433 1.04643 1.6238
      vertex 7.48859 0.672929 2
      vertex 7.48859 0.672929 1.6238
    endloop
  endfacet
endsolid OpenSCAD_Model
